<svg width="220" height="300" viewBox="0 0 220 300" fill="none" xmlns="http://www.w3.org/2000/svg">
<rect width="220" height="300" fill="#FECB3B"/>
<path d="M81.58 18.08V24.5H80.66V18.08H81.58ZM74.38 22.52C75.74 22.02 76.55 20.76 76.56 19.44V18.58H77.5V19.44C77.5 20.71 78.31 21.89 79.66 22.36L79.18 23.1C78.17 22.73 77.42 21.98 77.04 21.03C76.65 22.05 75.9 22.86 74.86 23.26L74.38 22.52ZM75.86 26.64V23.9H76.78V25.9H81.84V26.64H75.86ZM90.4826 18.08V26.82H89.5826V18.08H90.4826ZM83.2826 24.78V19.12H86.6026V19.88H84.1826V24C85.3326 23.99 86.0926 23.94 87.0026 23.74L87.0826 24.52C86.0826 24.73 85.2226 24.77 83.8626 24.78H83.2826ZM86.0026 22.14V21.38H87.8026V18.26H88.6826V26.4H87.8026V22.14H86.0026ZM95.0852 18.54V20.78H92.8852V21.72C93.9952 21.72 94.7952 21.66 95.7252 21.5L95.8252 22.22C94.7552 22.42 93.8752 22.45 92.5652 22.44H91.9852V20.1H94.2052V19.26H91.9852V18.54H95.0852ZM93.2052 26.74V24.56H98.1652V23.8H93.2052V23.08H99.0652V25.22H94.1252V26.02H99.3652V26.74H93.2052ZM95.4252 20.56V19.8H96.4252V18.22H97.3252V22.64H96.4252V20.56H95.4252ZM98.1852 22.72V18.08H99.0652V22.72H98.1852ZM107.068 18.08V21.5H108.468V22.28H107.068V26.84H106.148V18.08H107.068ZM100.588 19.62V18.86H104.608V22.08H101.528V23.98C103.028 23.98 104.148 23.92 105.428 23.68L105.508 24.44C104.148 24.69 102.968 24.75 101.328 24.76H100.608V21.34H103.668V19.62H100.588ZM115.97 20.64V21.38H109.95V18.4H110.87V20.64H115.97ZM108.89 23.22V22.48H116.89V23.22H108.89ZM109.89 26.62V24.06H110.81V25.86H116.03V26.62H109.89ZM122.354 18.74C123.544 18.74 124.404 19.75 124.534 21.36H126.354V18.08H127.274V26.84H126.354V22.12H124.544C124.444 23.82 123.574 24.88 122.354 24.88C121.044 24.88 120.124 23.69 120.134 21.8C120.124 19.93 121.044 18.74 122.354 18.74ZM121.014 21.8C121.014 23.19 121.554 24.05 122.354 24.04C123.144 24.05 123.684 23.19 123.694 21.8C123.684 20.43 123.144 19.57 122.354 19.56C121.554 19.57 121.014 20.43 121.014 21.8ZM135.917 18.08V26.84H134.997V23.18H133.277V22.42H134.997V20.8H133.317V20.04H134.997V18.08H135.917ZM128.917 19.6V18.86H132.797V22.04H129.857V24.06C131.087 24.05 132.137 24 133.397 23.8L133.477 24.58C132.107 24.79 130.987 24.83 129.617 24.82H128.937V21.32H131.897V19.6H128.917ZM140.419 20.3C140.419 21.91 141.319 23.5 142.659 24.1L142.099 24.84C141.099 24.35 140.339 23.36 139.959 22.16C139.569 23.42 138.809 24.49 137.799 25L137.219 24.26C138.569 23.61 139.469 21.93 139.479 20.3V18.8H140.419V20.3ZM141.699 21.74V20.98H143.639V18.08H144.559V26.84H143.639V21.74H141.699ZM156.343 23.22V23.96H152.763V26.82H151.863V23.96H148.343V23.22H156.343ZM149.323 22.24V18.44H150.243V19.58H154.423V18.44H155.343V22.24H149.323ZM150.243 21.48H154.423V20.32H150.243V21.48ZM165.006 24.96V25.74H156.986V24.96H160.506V22.94H157.906V18.78H164.046V22.94H161.426V24.96H165.006ZM158.806 22.22H163.126V19.52H158.806V22.22ZM172.869 18.08V23.02H171.969V18.08H172.869ZM166.169 22.44V18.6H167.089V21.66C168.509 21.64 169.739 21.55 171.049 21.26L171.189 22.04C169.749 22.33 168.419 22.43 166.889 22.44H166.169ZM167.149 26.72V23.42H172.869V26.72H167.149ZM168.049 25.98H171.969V24.16H168.049V25.98ZM178.251 18.22C180.231 18.22 181.381 18.76 181.371 19.72C181.381 20.71 180.231 21.24 178.251 21.24C176.281 21.24 175.131 20.71 175.131 19.72C175.131 18.76 176.281 18.22 178.251 18.22ZM174.271 22.52V21.78H182.251V22.52H174.271ZM175.231 23.9V23.2H181.251V25.24H176.151V26.02H181.491V26.74H175.251V24.58H180.331V23.9H175.231ZM176.091 19.72C176.091 20.27 176.861 20.55 178.251 20.56C179.661 20.55 180.431 20.27 180.431 19.72C180.431 19.21 179.661 18.91 178.251 18.92C176.861 18.91 176.091 19.21 176.091 19.72ZM192.595 18.08V22.48H191.695V18.08H192.595ZM185.535 20.34C185.535 19.19 186.505 18.38 187.835 18.38C189.155 18.38 190.125 19.19 190.135 20.34C190.125 21.49 189.155 22.29 187.835 22.28C186.505 22.29 185.535 21.49 185.535 20.34ZM186.355 23.72V23.02H189.135V25.14H187.255V25.98C188.175 25.99 188.725 25.96 189.415 25.82L189.495 26.52C188.695 26.68 188.065 26.7 186.855 26.7H186.395V24.48H188.235V23.72H186.355ZM186.435 20.34C186.435 21.06 187.035 21.53 187.835 21.54C188.635 21.53 189.235 21.06 189.235 20.34C189.235 19.63 188.635 19.15 187.835 19.16C187.035 19.15 186.435 19.63 186.435 20.34ZM189.455 24.08V23.38H190.875V22.62H191.795V23.38H193.215V24.08H189.455ZM189.795 25.6C189.785 24.87 190.445 24.39 191.315 24.38C192.205 24.39 192.865 24.87 192.855 25.6C192.865 26.35 192.205 26.82 191.315 26.82C190.445 26.82 189.785 26.35 189.795 25.6ZM190.575 25.6C190.575 25.96 190.885 26.16 191.315 26.16C191.755 26.16 192.065 25.96 192.075 25.6C192.065 25.26 191.755 25.05 191.315 25.06C190.885 25.05 190.575 25.26 190.575 25.6ZM201.078 18.92V19.78C201.078 20.86 201.078 22.07 200.738 23.86L199.818 23.76C200.148 22.07 200.148 20.83 200.158 19.78V19.68H194.838V18.92H201.078ZM193.998 25.64V24.88H197.038V21.8H197.958V24.88H201.978V25.64H193.998ZM210.66 24.96V25.74H202.64V24.96H204.56V22.68C203.84 22.29 203.4 21.66 203.4 20.88C203.4 19.5 204.75 18.59 206.62 18.58C208.51 18.59 209.86 19.5 209.86 20.88C209.86 21.64 209.44 22.26 208.74 22.66V24.96H210.66ZM204.3 20.88C204.3 21.81 205.25 22.42 206.62 22.42C207.99 22.42 208.96 21.81 208.96 20.88C208.96 19.93 207.99 19.33 206.62 19.34C205.25 19.33 204.3 19.93 204.3 20.88ZM205.48 24.96H207.8V23.01C207.44 23.1 207.04 23.14 206.62 23.14C206.21 23.14 205.83 23.1 205.48 23.02V24.96Z" fill="black"/>
<path d="M32.408 256.496V266.984H31.352V256.496H32.408ZM23.336 263.96C25.556 262.64 26.624 260.864 26.816 258.704H23.84V257.792H27.92C27.92 258.332 27.884 258.86 27.8 259.376H29.216V256.76H30.272V266.48H29.216V262.904H27.416V261.992H29.216V260.288H27.584C27.08 262.052 25.952 263.576 23.984 264.752L23.336 263.96ZM43.3791 264.752V265.688H33.7551V264.752H37.9791V262.328H34.8591V257.336H42.2271V262.328H39.0831V264.752H43.3791ZM35.9391 261.464H41.1231V258.224H35.9391V261.464ZM47.2942 257.168C48.9022 257.168 50.1022 258.188 50.1022 259.664C50.1022 260.96 49.1662 261.908 47.8462 262.124V263.78C48.7822 263.732 49.7062 263.66 50.5822 263.552L50.6542 264.392C48.4342 264.764 45.9982 264.788 44.1742 264.776L44.0062 263.84C44.8222 263.84 45.7582 263.84 46.7422 263.816V262.124C45.3862 261.92 44.4502 260.972 44.4622 259.664C44.4502 258.188 45.6382 257.168 47.2942 257.168ZM45.5422 259.664C45.5302 260.588 46.2742 261.212 47.2942 261.2C48.2782 261.212 49.0102 260.588 49.0222 259.664C49.0102 258.728 48.2782 258.116 47.2942 258.104C46.2742 258.116 45.5302 258.728 45.5422 259.664ZM51.2062 266.984V256.496H52.3102V260.768H53.9422V261.704H52.3102V266.984H51.2062ZM66.187 256.496V264.224H65.083V260.288H63.019C62.779 261.548 61.687 262.4 60.331 262.4C58.759 262.4 57.583 261.308 57.595 259.784C57.583 258.236 58.759 257.168 60.331 257.168C61.723 257.168 62.839 258.056 63.031 259.376H65.083V256.496H66.187ZM58.651 259.784C58.639 260.756 59.371 261.44 60.331 261.44C61.279 261.44 61.999 260.756 62.011 259.784C61.999 258.8 61.279 258.14 60.331 258.128C59.371 258.14 58.639 258.8 58.651 259.784ZM59.371 266.768V263.432H60.475V265.88H66.451V266.768H59.371ZM76.5101 256.496V266.984H75.4061V256.496H76.5101ZM68.4461 264.32V257.528H69.5501V263.36C71.0741 263.36 72.6941 263.228 74.3741 262.88L74.5181 263.816C72.6701 264.2 70.9781 264.332 69.3341 264.32H68.4461ZM87.7692 260.792V261.68H78.1692V260.792H87.7692ZM79.3212 263.384V262.52H86.5452V265.064H80.4252V266H86.8332V266.888H79.3452V264.248H85.4412V263.384H79.3212ZM79.4172 260.024V256.808H86.5212V257.696H80.5452V259.136H86.6172V260.024H79.4172ZM97.5643 256.496V266.984H96.5083V256.496H97.5643ZM88.6603 261.032C88.6603 258.752 89.5483 257.336 90.9163 257.336C92.1883 257.336 93.0643 258.548 93.1963 260.528H94.3723V256.688H95.4523V266.48H94.3723V261.416H93.2083C93.1003 263.468 92.2123 264.74 90.9163 264.728C89.5483 264.74 88.6603 263.312 88.6603 261.032ZM89.6923 261.032C89.6923 262.7 90.1603 263.684 90.9163 263.672C91.6963 263.684 92.1763 262.7 92.1883 261.032C92.1763 259.352 91.6963 258.38 90.9163 258.368C90.1603 258.38 89.6923 259.352 89.6923 261.032ZM107.935 256.496V266.984H106.879V256.496H107.935ZM98.8873 263.96C101.107 262.64 102.175 260.864 102.367 258.704H99.3673V257.792H103.471C103.471 258.824 103.327 259.808 103.003 260.72H104.671V256.76H105.727V266.48H104.671V261.608H102.619C101.983 262.82 100.987 263.888 99.5113 264.752L98.8873 263.96ZM118.332 257.696V258.296C118.32 259.136 118.32 260.444 118.044 262.304L116.94 262.184C117.192 260.612 117.228 259.424 117.228 258.608H112.908V257.696H118.332ZM112.236 263.864C112.944 263.864 113.712 263.864 114.516 263.84V260.84H115.62V263.816C116.82 263.78 118.044 263.696 119.196 263.552L119.292 264.392C116.928 264.752 114.384 264.8 112.404 264.8L112.236 263.864ZM119.868 267.008V256.496H120.972V267.008H119.868ZM132.183 261.824V262.712H122.583V261.824H126.831V260.936H123.807V258.392H129.855V257.552H123.783V256.688H130.983V259.208H124.911V260.072H131.175V260.936H127.935V261.824H132.183ZM123.831 266.864V263.192H124.959V264.104H129.879V263.192H130.983V266.864H123.831ZM124.959 265.976H129.879V264.968H124.959V265.976ZM141.666 256.496V262.856H140.562V256.496H141.666ZM133.098 258.464V257.552H135.738V256.424H136.866V257.552H139.506V258.464H133.098ZM133.722 260.792C133.71 259.64 134.754 258.908 136.314 258.92C137.874 258.908 138.906 259.64 138.906 260.792C138.906 261.932 137.874 262.664 136.314 262.664C134.754 262.664 133.71 261.932 133.722 260.792ZM134.754 266.864V263.384H141.666V266.864H134.754ZM134.778 260.792C134.778 261.44 135.378 261.824 136.314 261.824C137.238 261.824 137.85 261.44 137.85 260.792C137.85 260.144 137.238 259.748 136.314 259.736C135.378 259.748 134.778 260.144 134.778 260.792ZM135.858 265.952H140.586V264.248H135.858V265.952ZM148.101 256.664C150.477 256.664 151.857 257.312 151.845 258.464C151.857 259.652 150.477 260.288 148.101 260.288C145.737 260.288 144.357 259.652 144.357 258.464C144.357 257.312 145.737 256.664 148.101 256.664ZM143.325 261.824V260.936H152.901V261.824H143.325ZM144.477 263.48V262.64H151.701V265.088H145.581V266.024H151.989V266.888H144.501V264.296H150.597V263.48H144.477ZM145.509 258.464C145.509 259.124 146.433 259.46 148.101 259.472C149.793 259.46 150.717 259.124 150.717 258.464C150.717 257.852 149.793 257.492 148.101 257.504C146.433 257.492 145.509 257.852 145.509 258.464ZM164.882 256.496V258.968H166.394V259.904H164.882V262.64H163.778V256.496H164.882ZM157.034 262.016V257.096H158.138V258.608H160.874V257.096H161.978V262.016H157.034ZM158.138 261.128H160.874V259.496H158.138V261.128ZM158.186 266.84V263.168H164.954V264.056H159.314V265.952H165.146V266.84H158.186ZM169.949 257.096C171.557 257.096 172.745 258.104 172.757 259.592C172.745 261.056 171.557 262.076 169.949 262.088C168.341 262.076 167.153 261.056 167.165 259.592C167.153 258.104 168.341 257.096 169.949 257.096ZM167.381 266.048C168.713 265.556 169.469 264.44 169.469 263.408V262.904H170.525V263.408C170.525 264.332 170.969 265.28 171.917 265.868C172.889 265.232 173.345 264.212 173.357 263.408V262.904H174.437V263.408C174.437 264.524 175.157 265.58 176.525 266.048L175.973 266.864C174.941 266.492 174.245 265.784 173.885 264.92C173.549 265.772 172.925 266.564 171.941 266.96C170.933 266.564 170.309 265.82 169.985 264.956C169.601 265.796 168.917 266.504 167.933 266.864L167.381 266.048ZM168.245 259.592C168.245 260.528 168.965 261.14 169.949 261.152C170.933 261.14 171.665 260.528 171.677 259.592C171.665 258.668 170.933 258.032 169.949 258.032C168.965 258.032 168.245 258.668 168.245 259.592ZM174.149 262.448V256.496H175.253V258.944H176.765V259.856H175.253V262.448H174.149ZM182.696 257.48V258.392H179V263.504C180.776 263.504 181.976 263.444 183.368 263.168L183.488 264.08C181.976 264.38 180.704 264.44 178.712 264.44H177.896V257.48H182.696ZM182.096 261.176V260.24H185.024V256.496H186.128V267.008H185.024V261.176H182.096ZM192.035 257.6V261.392H189.155V263.6C190.295 263.6 191.375 263.552 192.635 263.336L192.707 264.248C191.267 264.5 190.091 264.536 188.771 264.536H188.075V260.48H190.955V258.512H188.051V257.6H192.035ZM193.307 266.456V256.712H194.339V260.576H195.683V256.496H196.739V266.984H195.683V261.488H194.339V266.456H193.307ZM207.735 264.752V265.688H198.111V264.752H200.415V262.016C199.551 261.548 199.023 260.792 199.023 259.856C199.023 258.2 200.643 257.108 202.887 257.096C205.155 257.108 206.775 258.2 206.775 259.856C206.775 260.768 206.271 261.512 205.431 261.992V264.752H207.735ZM200.103 259.856C200.103 260.972 201.243 261.704 202.887 261.704C204.531 261.704 205.695 260.972 205.695 259.856C205.695 258.716 204.531 257.996 202.887 258.008C201.243 257.996 200.103 258.716 200.103 259.856ZM201.519 264.752H204.303V262.412C203.871 262.52 203.391 262.568 202.887 262.568C202.395 262.568 201.939 262.52 201.519 262.424V264.752Z" fill="black"/>
<path d="M31.712 277.552V278.68C31.7 280.048 31.7 281.524 31.328 283.768L30.2 283.672C30.608 281.56 30.608 280.012 30.608 278.68V278.464H24.416V277.552H31.712ZM23.384 285.496V284.584H32.96V285.496H23.384ZM38.0511 277.6V281.392H35.1711V283.6C36.3111 283.6 37.3911 283.552 38.6511 283.336L38.7231 284.248C37.2831 284.5 36.1071 284.536 34.7871 284.536H34.0911V280.48H36.9711V278.512H34.0671V277.6H38.0511ZM39.3231 286.456V276.712H40.3551V280.576H41.6991V276.496H42.7551V286.984H41.6991V281.488H40.3551V286.456H39.3231ZM47.9182 279.16C47.9182 281.092 48.9982 283 50.6062 283.72L49.9342 284.608C48.7342 284.02 47.8222 282.832 47.3662 281.392C46.8982 282.904 45.9862 284.188 44.7742 284.8L44.0782 283.912C45.6982 283.132 46.7782 281.116 46.7902 279.16V277.36H47.9182V279.16ZM49.4542 280.888V279.976H51.7822V276.496H52.8862V287.008H51.7822V280.888H49.4542ZM65.827 277.12V277.96C65.827 278.848 65.827 279.892 65.563 281.272H67.051V282.184H57.427V281.272H64.447C64.723 279.892 64.723 278.884 64.723 278.008H58.627V277.12H65.827ZM58.675 286.768V283.264H59.779V285.856H66.139V286.768H58.675ZM77.3741 281.512V282.4H74.9021V283.624H76.1981V286.984H75.0701V284.488H68.8541V283.624H70.2461V282.4H67.7981V281.512H77.3741ZM68.8301 278.752C68.8301 277.492 70.2821 276.724 72.5741 276.736C74.8781 276.724 76.3301 277.492 76.3181 278.752C76.3301 280.024 74.8781 280.792 72.5741 280.792C70.2821 280.792 68.8301 280.024 68.8301 278.752ZM69.9821 278.752C69.9701 279.496 70.9661 279.916 72.5741 279.928C74.1941 279.916 75.1901 279.496 75.1901 278.752C75.1901 278.032 74.1941 277.6 72.5741 277.6C70.9661 277.6 69.9701 278.032 69.9821 278.752ZM71.3501 283.624H73.7981V282.4H71.3501V283.624ZM82.9452 276.664C85.3212 276.664 86.7012 277.312 86.6892 278.464C86.7012 279.652 85.3212 280.288 82.9452 280.288C80.5812 280.288 79.2012 279.652 79.2012 278.464C79.2012 277.312 80.5812 276.664 82.9452 276.664ZM78.1692 281.824V280.936H87.7452V281.824H78.1692ZM79.3212 283.48V282.64H86.5452V285.088H80.4252V286.024H86.8332V286.888H79.3452V284.296H85.4412V283.48H79.3212ZM80.3532 278.464C80.3532 279.124 81.2772 279.46 82.9452 279.472C84.6372 279.46 85.5612 279.124 85.5612 278.464C85.5612 277.852 84.6372 277.492 82.9452 277.504C81.2772 277.492 80.3532 277.852 80.3532 278.464ZM97.1339 277.552C97.1339 280.66 96.1019 283.444 92.2379 285.328L91.6379 284.464C93.5339 283.54 94.7099 282.4 95.3579 281.056L91.8539 281.392L91.7099 280.432L95.7179 280.156C95.8859 279.628 95.9819 279.052 96.0299 278.464H92.2379V277.552H97.1339ZM99.0779 286.984V276.496H100.206V286.984H99.0779ZM110.577 276.496V283.12H109.449V282.544H107.385V281.752H109.449V276.496H110.577ZM101.793 280.6C103.713 280.6 106.353 280.576 108.585 280.264L108.657 281.056C107.709 281.212 106.713 281.32 105.729 281.38V283.072H104.601V281.44C103.641 281.476 102.717 281.488 101.913 281.488L101.793 280.6ZM102.321 286.048C103.665 285.628 104.409 284.656 104.433 283.648V283.48H105.489V283.648C105.477 284.488 105.945 285.376 106.893 285.904C107.841 285.364 108.321 284.452 108.321 283.648V283.48H109.401V283.648C109.401 284.68 110.133 285.652 111.513 286.048L110.985 286.864C109.941 286.528 109.221 285.88 108.849 285.064C108.525 285.88 107.889 286.588 106.905 286.96C105.921 286.6 105.285 285.904 104.961 285.088C104.577 285.892 103.857 286.54 102.849 286.864L102.321 286.048ZM102.609 278.368C102.609 277.36 103.641 276.724 105.225 276.736C106.797 276.724 107.829 277.36 107.841 278.368C107.829 279.4 106.797 280.012 105.225 280.024C103.641 280.012 102.609 279.4 102.609 278.368ZM103.641 278.368C103.641 278.908 104.253 279.232 105.225 279.232C106.173 279.232 106.785 278.908 106.785 278.368C106.785 277.852 106.173 277.516 105.225 277.528C104.253 277.516 103.641 277.852 103.641 278.368ZM117.54 277.48V278.392H113.844V283.504C115.62 283.504 116.82 283.444 118.212 283.168L118.332 284.08C116.82 284.38 115.548 284.44 113.556 284.44H112.74V277.48H117.54ZM116.94 281.176V280.24H119.868V276.496H120.972V287.008H119.868V281.176H116.94ZM126.879 277.6V281.392H123.999V283.6C125.139 283.6 126.219 283.552 127.479 283.336L127.551 284.248C126.111 284.5 124.935 284.536 123.615 284.536H122.919V280.48H125.799V278.512H122.895V277.6H126.879ZM128.151 286.456V276.712H129.183V280.576H130.527V276.496H131.583V286.984H130.527V281.488H129.183V286.456H128.151ZM142.578 284.752V285.688H132.954V284.752H135.258V282.016C134.394 281.548 133.866 280.792 133.866 279.856C133.866 278.2 135.486 277.108 137.73 277.096C139.998 277.108 141.618 278.2 141.618 279.856C141.618 280.768 141.114 281.512 140.274 281.992V284.752H142.578ZM134.946 279.856C134.946 280.972 136.086 281.704 137.73 281.704C139.374 281.704 140.538 280.972 140.538 279.856C140.538 278.716 139.374 277.996 137.73 278.008C136.086 277.996 134.946 278.716 134.946 279.856ZM136.362 284.752H139.146V282.412C138.714 282.52 138.234 282.568 137.73 282.568C137.238 282.568 136.782 282.52 136.362 282.424V284.752Z" fill="black"/>
<path d="M94.1375 118.022C91.2626 117.907 87.9683 118.46 85.6722 116.43C84.3989 115.305 83.7629 113.415 83.1978 111.891C81.7706 108.041 79.7786 103.242 80.02 99.0225C80.0975 97.6689 81.5496 95.9361 82.2861 94.8646C82.8371 94.063 83.4536 93.2774 84.3438 92.8646C86.8881 91.6847 89.3855 91.0225 92.21 91.0225C93.6109 91.0225 94.613 92.0109 95.6221 92.9172C97.1995 94.3338 97.6633 95.243 97.8882 97.3383C98.2062 100.301 98.5658 103.249 98.9171 106.207C99.0418 107.257 99.0495 108.125 98.7738 109.128C98.4418 110.335 97.9461 112.025 97.1329 112.996C96.56 113.68 95.8767 115.138 95.0231 115.47C93.7388 115.969 92.7443 116.95 91.5588 117.549" stroke="black" stroke-width="2" stroke-linecap="round"/>
<path d="M82 103.022L102 102.022" stroke="black" stroke-width="2" stroke-linecap="round"/>
<path d="M83 110.022C88.3205 107.983 93.7773 105.475 99.3514 104.207C100.58 103.928 100.388 103.93 101 104.46" stroke="black" stroke-width="2" stroke-linecap="round"/>
<path d="M82 105.002C84.1073 104.597 85.2393 104.3 87.303 104.253C89.1214 104.212 94.1523 103.564 92.7441 104.64C92.1903 105.063 86.5956 107.128 86.6263 107.196C86.7672 107.513 93.9234 105.681 94.4289 105.57C95.0778 105.427 95.7273 105.287 96.376 105.144C97.2786 104.944 97.1955 104.966 96.1689 105.118C92.876 105.604 89.5903 106.132 86.3087 106.68C85.2389 106.859 82.3837 107.942 83.091 107.17C83.7733 106.426 87.3738 105.881 83.9058 106.344C83.651 106.378 82.9172 106.522 84.0991 106.293C86.1818 105.888 88.2361 105.373 90.3135 104.95C92.9026 104.424 89.6554 105.83 89.4021 105.97C88.173 106.647 86.9519 107.336 85.7287 108.022" stroke="black" stroke-width="2" stroke-linecap="round"/>
<path d="M92 91.0225C91.3047 94.4553 90 98.3714 90 102.022" stroke="black" stroke-width="2" stroke-linecap="round"/>
<path d="M92.5841 94.0225C92.7071 95.138 92.9081 96.2482 92.9531 97.369C92.9747 97.9067 93.1126 98.5362 92.7828 98.9753C92.385 99.5048 91.6842 98.1369 91.0227 97.9579C89.7807 97.6218 89.9671 100.628 90.086 101.197C90.1931 101.711 91.0396 99.7904 91.2215 99.832C91.6581 99.9318 91.3066 102.454 91.3066 102.857C91.3066 103.673 91.578 101.245 91.7608 100.448C91.9495 99.6246 91.706 102.184 91.3066 102.938" stroke="black" stroke-width="2" stroke-linecap="round"/>
<path d="M87 91.0225L85 87.0225" stroke="black" stroke-width="2" stroke-linecap="round"/>
<path d="M89 91.0225L90 86.0225" stroke="black" stroke-width="2" stroke-linecap="round"/>
<path d="M92 91.0225C93.0743 89.7316 94.0151 88.3702 95 87.0225" stroke="black" stroke-width="2" stroke-linecap="round"/>
<path d="M120.709 90.3957C117.47 92.7741 111.841 95.743 112.003 100.521C112.049 101.864 112.205 104.196 112.288 105.389C112.393 106.894 112.308 109.17 112.81 110.695C113.192 111.854 115.484 113.115 116.368 113.821C121.128 117.623 127.333 116.235 131.264 111.689C134.331 108.143 134.352 102.746 133.565 98.3779C133.113 95.8646 132.259 93.3844 131.264 91.0352C130.869 90.1017 130.388 89.1746 129.485 88.6429C127.459 87.4494 124.742 86.5156 122.429 87.3284C120.598 87.9715 120.376 88.7662 120.068 90.6089" stroke="black" stroke-width="2" stroke-linecap="round"/>
<path d="M113 103.022L132 104.022" stroke="black" stroke-width="2" stroke-linecap="round"/>
<path d="M113.547 106.022C115.554 105.707 117.599 105.579 119.568 105.076C123.38 104.103 121.444 103.466 118.928 102.711C116.205 101.895 107.85 100.358 110.519 101.34C113.943 102.6 117.92 103.255 121.571 103.255C124.621 103.255 127.533 101.926 130.55 101.978C131.322 101.992 133.589 101.943 132.856 102.191C130.095 103.126 126.577 102.803 123.703 103.066C120.904 103.323 118.518 103.712 116.063 104.958" stroke="black" stroke-width="2" stroke-linecap="round"/>
<path d="M124.772 86.0225C124.798 86.3946 125.201 95.0471 125.826 96.8504C126.197 97.9217 126.93 92.5716 127.088 93.7173C127.654 97.8224 126.467 110.318 126.978 106.202C127.446 102.434 127.934 98.7524 127.992 94.9297C128.008 93.8506 127.992 92.7681 127.992 91.6885C127.992 91.3589 128.037 90.4108 127.913 90.7042C127.051 92.7344 127.139 95.8348 126.869 98.0629C126.841 98.2914 126.82 98.5214 126.78 98.7471C126.708 99.1488 126.848 97.9289 126.899 97.5227C127.128 95.7112 127.412 93.911 127.684 92.1087C127.812 91.2606 127.992 90.3957 127.992 89.5277C127.992 88.1568 127.657 92.2406 127.436 93.5852C127.09 95.6842 127.35 92.6848 127.366 92.3128C127.415 91.1782 127.462 90.0401 127.455 88.9035C127.454 88.6328 127.537 87.3742 127.177 88.3873C126.901 89.1648 126.397 90.9726 126.213 91.6165C126.03 92.2564 125.853 92.8989 125.667 93.5372C125.537 93.9801 125.315 95.2859 125.21 94.8337C125.048 94.1391 125.348 92.7834 125.388 92.0967C125.393 92.0146 125.624 89.9516 125.448 89.7918C125.343 89.6969 123.082 98.3854 124.424 91.0883C124.482 90.7772 125.275 85.1715 125.051 88.1833C124.943 89.6306 124.763 91.0677 124.593 92.5048" stroke="black" stroke-width="2" stroke-linecap="round"/>
<path d="M116 105.497C121.085 106.338 127.1 108.086 132.181 106.13C132.865 105.867 133.526 105.358 132.371 105.313C130.637 105.244 128.75 105.535 127.044 105.88C126 106.091 129.163 105.69 130.212 105.51C130.561 105.451 130.52 105.352 130.52 105.022" stroke="black" stroke-width="2" stroke-linecap="round"/>
<path d="M124 90.0225L122 83.0225" stroke="black" stroke-width="2" stroke-linecap="round"/>
<path d="M128 88.0225C128 85.9356 128 84.0468 128 82.0225" stroke="black" stroke-width="2" stroke-linecap="round"/>
<path d="M129 89.0225C131.785 88.0574 134.871 87.3291 137 85.0225" stroke="black" stroke-width="2" stroke-linecap="round"/>
<path d="M104 115.022C97.4706 117.244 91.0465 119.268 84.1173 120.143C83.4057 120.233 81.7299 120.363 80.8268 120.399C80.823 120.399 79.562 120.258 80.1618 120.537C82.8508 121.791 85.9239 122.574 88.8313 123.258C93.7246 124.407 98.5806 123.945 103.58 123.855" stroke="black" stroke-width="2" stroke-linecap="round"/>
<path d="M103 125.022L101 128.022" stroke="black" stroke-width="2" stroke-linecap="round"/>
<path d="M105 125.022L107 129.022" stroke="black" stroke-width="2" stroke-linecap="round"/>
<path d="M94 123.022L89 127.022" stroke="black" stroke-width="2" stroke-linecap="round"/>
<path d="M95 124.022L94 127.022" stroke="black" stroke-width="2" stroke-linecap="round"/>
<path d="M109.486 131.905C105.752 131.41 101.774 130.567 98.0096 131.324C97.181 131.49 95.7244 131.813 95.0167 132.369C93.793 133.33 93.6724 135.303 94.6632 136.482C96.8502 139.085 101.146 139.68 104.325 139.967C107.055 140.213 110.097 139.652 112.373 138.073C113.62 137.208 114.928 136.942 116.061 135.878C117.06 134.94 118.237 133.51 117.958 131.998C117.582 129.956 115.443 130.023 113.775 130.023C112.832 130.023 106.881 131.159 107.577 132.532" stroke="black" stroke-width="2" stroke-linecap="round"/>
<path d="M102 136.022L112 134.022" stroke="black" stroke-width="2" stroke-linecap="round"/>
<path d="M76.8627 109.77C75.4383 113.13 74.6461 116.803 73.0905 120.087C72.6709 120.972 73.8163 121.66 74.3595 122.307C75.0314 123.108 75.4767 124.058 76.1292 124.875C78.1177 127.366 80.2669 129.703 82.1951 132.254C84.1718 134.869 86.1858 137.528 87.4344 140.581C88.7706 143.849 89.8635 147.245 91.1368 150.54C91.2192 150.753 92.9141 156.45 93.7215 156.982C93.8981 157.098 94.1427 156.932 94.3502 156.889C94.9037 156.777 95.454 156.649 96.0035 156.519C97.2216 156.231 100.522 155.414 101.685 155.108C105.162 154.195 108.951 153.102 112.117 151.361C116.926 148.717 121.371 144.601 125.39 140.998C131.381 135.627 137.362 130.204 143.029 124.493C143.962 123.553 145.048 122.463 145.811 121.313C146.06 120.938 145.994 120.245 145.986 119.867C145.943 117.94 145.658 116.038 145.416 114.13C145.219 112.582 145.299 110.951 144.764 109.469C144.567 108.925 144.404 108.451 144.333 107.885C144.25 107.225 143.845 106.666 143.716 106.022" stroke="black" stroke-width="2" stroke-linecap="round"/>
<path d="M73 119.022C75.0195 119.639 77.3255 120.128 79.121 121.274C80.6087 122.224 79.6752 123.482 79.6948 124.878C79.7223 126.838 80.4803 127.959 82.4684 127.035C83.1343 126.725 83.6878 126.188 84.3812 125.944C85.0175 125.721 83.9338 127.209 83.6519 127.817C81.9995 131.38 88.2133 126.848 87.5851 128.825C86.9589 130.795 85.9842 132.651 85.0985 134.514C84.3719 136.042 87.3789 133.842 87.7764 133.672C89.95 132.743 86.9629 137.896 86.7722 138.319C85.6777 140.745 87.3155 139.275 88.4698 138.627C89.3478 138.134 90.2751 137.503 91.2194 137.133C91.3431 137.085 90.4546 138.666 90.3467 138.828C89.7465 139.731 90.0561 139.695 90.9564 139.208C91.7935 138.755 93.6379 136.863 93.4311 137.785C93.0378 139.54 91.5249 141.064 91.0042 142.823C90.3556 145.014 94.4789 141.808 94.9494 141.448C95.5048 141.022 96.7236 139.44 96.5752 140.12C96.1676 141.99 94.7544 143.956 93.993 145.691C93.7964 146.139 92.8951 148.232 92.7496 148.939C92.6186 149.576 92.9282 149.511 93.3713 149.271C94.7492 148.525 96.1462 146.403 97.6512 146.059C97.9394 145.993 97.8889 146.62 97.8664 146.912C97.7828 147.999 97.4324 150.412 97.3165 151.286C97.0889 153 96.9076 154.303 96.7426 155.979C96.7096 156.315 96.5845 157.211 96.8383 156.987C98.1616 155.815 99.1159 153.815 100.054 152.341C101.35 150.304 100.608 154.198 100.688 155.007C100.845 156.6 102.234 153.929 102.385 153.656C103.262 152.079 103.739 150.362 104.274 148.654C105.043 146.202 104.848 149.807 104.848 150.527C104.848 152.525 105.831 149.701 106.103 149.093C106.624 147.932 106.689 148.76 107 149.531" stroke="black" stroke-width="2" stroke-linecap="round"/>
<path d="M109 148.306C109.445 149.899 110.255 148.468 110.943 147.556C111.542 146.763 112.751 144.228 112.79 145.213C112.82 145.974 112.454 146.787 112.454 147.58C112.454 147.921 114.375 145.608 114.613 145.354C115.802 144.086 117.031 142.861 118.295 141.664C118.671 141.307 119.573 140.463 120.046 140.047C120.146 139.959 120.388 139.741 120.406 139.871C120.526 140.752 120.32 142.073 120.118 142.941C119.763 144.468 121.717 140.224 122.469 138.84C122.583 138.63 124.839 133.947 124.328 136.193C123.783 138.587 126.398 134.442 126.727 133.967C127.787 132.435 127.763 135.075 127.782 135.748C127.783 135.775 127.642 136.875 128.022 136.462C128.929 135.478 129.587 134.1 130.229 132.96C130.936 131.703 131.53 130.347 132.328 129.141C132.752 128.5 132.735 129.06 132.748 129.492C132.766 130.162 132.714 130.837 132.76 131.507C132.84 132.69 134.19 129.586 134.81 128.566C135.406 127.589 136.58 124.812 136.969 125.884C137.07 126.162 136.84 128.436 137.317 128.414C138.339 128.367 139.71 126.282 140.639 125.79C141.283 125.45 141.949 125.876 142.391 125.31C142.546 125.11 143.924 122.819 143.962 123.037C144.04 123.497 143.974 124.011 143.974 124.478" stroke="black" stroke-width="2" stroke-linecap="round"/>
<path d="M144 104.318C145.2 103.123 147.726 100.553 149.12 99.3451C150.05 98.5398 150.842 97.8373 152.053 98.0664C153.135 98.2713 154.538 98.6445 155.166 99.7003C156.387 101.755 156.049 104.655 155.527 106.863C155.007 109.062 154.202 111.755 152.921 113.612C151.939 115.036 150.486 116.081 149.075 116.986C148.531 117.335 145.762 118.882 146.03 119.022" stroke="black" stroke-width="2" stroke-linecap="round"/>
<path d="M74.1092 114.022C72.6447 110.317 70.6347 106.334 70.043 102.326C69.9037 101.383 70.1148 100.964 70.5046 100.217C70.7034 99.8366 71.268 99.4924 71.6475 99.3297C72.5606 98.9381 76.4595 98.7381 76.8787 99.8845C77.1792 100.706 76.8412 102.206 76.7248 103.058C76.4962 104.732 76.6808 106.543 76.6808 108.23" stroke="black" stroke-width="2" stroke-linecap="round"/>
<path d="M125 74.0225C121.428 69.4353 116.807 61.5974 109.974 61.0521C107.276 60.8368 104.51 61.8428 101.978 62.5158C98.6541 63.3993 95.1781 64.2077 92.1958 65.9385C89.6424 67.4203 87.306 69.1833 85 70.9825" stroke="black" stroke-width="2" stroke-linecap="round"/>
<path d="M86 71.0225C83.5921 72.9673 81.5535 75.5168 79.5595 77.857C78.0927 79.5785 75.8849 82.177 74.5161 84.1999C73.7991 85.2595 73.9127 84.9237 74.3503 85.7587C75.3373 87.6415 76.2528 89.5716 77.1444 91.5021C77.6489 92.5946 78.0986 93.4782 78.1152 94.6675C78.1498 97.1617 76.6359 98.8325 75.771 101.022" stroke="black" stroke-width="2" stroke-linecap="round"/>
<path d="M134 65.513C131.923 62.2966 126.448 53.7777 124.006 50.1348C123.499 49.3792 121.59 45.8688 120.052 45.3777C118.503 44.8828 116.38 45.0502 114.879 45.048C110.302 45.0415 105.703 45.0488 101.131 45.2953C96.916 45.5226 92.6759 46.3241 88.5089 46.9556C84.6702 47.5373 80.7857 47.8013 77.4353 49.8993C75.6821 50.9972 74.201 52.3156 72.6844 53.7027C71.717 54.5874 70.5666 55.2406 69.5875 56.1165C66.5214 58.8597 64.2823 62.3064 61.8336 65.5836C57.4548 71.4443 52.9004 77.6647 49.716 84.2352C47.8684 88.0473 46.5587 92.3112 46.0443 96.5283C45.8499 98.122 46.2979 99.2327 47.3347 100.461C50.1618 103.811 53.8432 105.466 57.5637 107.503C59.4473 108.534 57.7017 110.941 56.9303 112.048C55.6362 113.905 53.9789 115.421 52.5313 117.146C50.119 120.022 48.6447 123.621 48.8596 127.438C49.2233 133.897 55.3521 136.024 60.1914 138.824C61.7043 139.699 64.15 140.906 63.8513 143.087C63.6672 144.431 62.8442 145.75 62.2442 146.937C61.751 147.913 61.5171 148.864 61.1415 149.869C61.0144 150.209 60.6634 150.751 60.731 151.141C60.9345 152.316 64.1331 152.766 64.9305 152.954C66.066 153.222 68.4337 153.205 69.3881 153.955C70.0653 154.487 69.2929 156.742 69.0948 157.405C68.9065 158.035 74.1734 158.395 74.9719 159.76C75.6946 160.995 75.6955 162.478 77.013 163.234C78.2119 163.921 81.4435 164.602 82.2683 163.222" stroke="black" stroke-width="2" stroke-linecap="round"/>
<path d="M134 64.839C137.443 64.6114 142.565 64.245 146.151 64.0998C147.662 64.0386 149.396 63.8959 150.908 64.2786C152.481 64.6769 152.808 66.4303 153.487 67.8437C154.384 69.7126 154.982 71.0296 154.982 73.0541C154.982 74.0771 154.827 75.0744 154.664 76.0826C154.328 78.1623 153.694 80.2435 153.122 82.2708C152.857 83.2091 152.863 84.1427 152.863 85.1205C152.863 86.7882 154.238 87.9124 155.453 88.8763C156.23 89.4934 157.014 89.8996 157.855 90.3786C158.326 90.647 157.517 90.9195 157.313 91.0225" stroke="black" stroke-width="2" stroke-linecap="round"/>
<path d="M138 79.0225C142.61 83.7583 147.265 88.4266 152 93.0225" stroke="black" stroke-width="2" stroke-linecap="round"/>
<path d="M140 90.0225L146 97.0225" stroke="black" stroke-width="2" stroke-linecap="round"/>
<path d="M142 98.0225C142.518 99.7317 146.827 100.518 148 101.022" stroke="black" stroke-width="2" stroke-linecap="round"/>
<path d="M154 84.315C154.801 83.2184 154.67 83.3479 155.994 81.981C157.846 80.0687 160.417 76.7411 163.145 76.058C164.837 75.6345 165.686 79.1083 165.898 80.2636C166.351 82.7391 165.203 85.5902 164.316 87.7939C163.17 90.6373 162.352 92.2315 160.512 94.6086C159.833 95.4865 157.52 97.2583 158.616 97.3499C159.801 97.4489 161.693 96.6427 162.799 97.0746C163.788 97.4612 164.071 98.6748 163.535 99.5297C163.169 100.114 162.362 100.911 161.867 101.357C161.586 101.61 160.495 102.204 160.285 102.601C160.251 102.666 162.376 102.674 162.56 102.722C164.818 103.32 162.985 107.014 163.384 108.381C163.672 109.368 164.385 110.987 163.34 111.783C162.714 112.261 161.895 111.952 161.368 111.486C159.902 110.187 158.464 107.824 157.597 106.113C157.008 104.95 156.804 103.97 156.536 102.744" stroke="black" stroke-width="2" stroke-linecap="round"/>
<path d="M155 86.0225C154.003 88.6367 152.217 91.7991 152.001 94.6225C151.983 94.855 152.183 95.1563 152.304 95.3558C152.863 96.2816 153.606 97.056 154.093 98.0225" stroke="black" stroke-width="2" stroke-linecap="round"/>
<path d="M165 90.0225C168.319 92.9761 172.034 95.8226 174.877 99.2436C176.556 101.264 175.731 103.157 175.253 105.801C174.659 109.091 173.462 114.685 172.71 117.937C172.186 120.2 171.743 122.613 170.62 124.696C170.079 125.699 169.464 126.448 169.932 127.585C171.41 131.176 174.436 133.991 176.551 137.208C180.154 142.687 176.377 147.749 172.424 151.882C170.797 153.582 168.924 154.229 170.347 156.48C171.682 158.591 174.444 161.134 174.02 163.842C173.773 165.422 172.18 166.616 172.009 168.138C171.748 170.449 174.047 172.329 173.54 174.646C173.075 176.773 171.033 178.107 170.373 180.022" stroke="black" stroke-width="2" stroke-linecap="round"/>
<path d="M139 129.022C138.347 136.374 138.225 143.885 135.983 151.005C135.02 154.062 133.223 157.03 132 160.022" stroke="black" stroke-width="2" stroke-linecap="round"/>
<path d="M122 147.022V155.022" stroke="black" stroke-width="2" stroke-linecap="round"/>
<path d="M136 155.022C143.362 165.156 151 177.368 151 190.507C151 192.858 150.854 194.787 150.118 197.022" stroke="black" stroke-width="2" stroke-linecap="round"/>
<path d="M124 187.049C129.031 188.317 134.358 190.166 139.581 190.014C140.609 189.984 141.349 189.732 142.115 189.059C142.956 188.32 143.5 187.051 144 186.022" stroke="black" stroke-width="2" stroke-linecap="round"/>
<path d="M133 211.023C139.355 207.817 147.744 204.816 152.043 198.623C153.158 197.017 153.183 195.602 152.706 193.891C152.509 193.181 152.161 192.517 151.669 192.023" stroke="black" stroke-width="2" stroke-linecap="round"/>
<path d="M122 155.173C119.015 154.903 113.771 154.413 110.587 154.176C110.308 154.155 107.843 153.948 106.992 154.051C106.769 154.078 106.111 154.533 105.886 154.6C101.088 156.028 96.5688 158.145 91.9095 159.96C89.4016 160.937 86.5923 161.97 84.3429 163.451C79.8203 166.427 76.0357 170.464 72 174.022" stroke="black" stroke-width="2" stroke-linecap="round"/>
<path d="M72.9971 174.022C72.9799 174.361 73.1441 179.294 72.3242 179.458C72.1137 179.5 71.2548 178.867 71.0035 178.766C70.6251 178.615 70.1543 178.552 69.7576 178.458C67.8318 178.005 66.038 179.042 64.3252 179.676C60.0865 181.246 56.7356 184.567 54.7438 188.766C53.905 190.534 53.1441 192.316 52.5883 194.202C51.7948 196.894 50.5734 198.722 49 201.022" stroke="black" stroke-width="2" stroke-linecap="round"/>
<path d="M57 205.023L94 193.023" stroke="black" stroke-width="2" stroke-linecap="round"/>
<path d="M85 182.022C92.3192 180.975 99.8668 180.257 107.047 178.343C108.478 177.962 109.259 177.478 110.456 176.817C110.935 176.553 111.281 176.274 111.695 175.92C112.678 175.08 113.595 174.278 114 173.022" stroke="black" stroke-width="2" stroke-linecap="round"/>
<path d="M57 187.022C56.3886 184.099 55.2418 178.517 54.5163 175.375C54.3623 174.708 53.9244 172.68 53.4706 171.735C53.3736 171.533 53.0496 171.225 52.8954 171.031C51.935 169.828 50.2281 168.925 49 168.022" stroke="black" stroke-width="2" stroke-linecap="round"/>
<path d="M30.035 156.853C30.0718 152.407 29.7476 147.667 30.5435 143.249C30.8402 141.602 32.0072 141.031 33.4548 140.296C35.9804 139.014 38.9945 138.943 41.7817 138.645C44.0958 138.398 48.5183 137.206 50.5663 138.971C52.7045 140.813 53.2001 144.206 54.1895 146.659C54.6426 147.782 54.7894 148.821 54.9268 150.009C55.3003 153.239 54.2759 156.113 51.1257 157.685C49.5154 158.488 48.0893 159.022 46.2821 159.022" stroke="black" stroke-width="2" stroke-linecap="round"/>
<path d="M48 160.022C48.3667 163.689 48.6979 167.353 49 171.022" stroke="black" stroke-width="2" stroke-linecap="round"/>
<path d="M28.0967 158.022C27.063 164.195 25.8886 170.378 25.1321 176.594C25.0189 177.525 24.9082 178.166 25.1196 179.006C25.5767 180.823 25.9845 182.647 26.3955 184.476C27.2954 188.479 28.05 192.537 29.1724 196.484C29.4372 197.415 29.43 198.466 29.7728 199.368C30.159 200.384 30.2831 201.445 30.6234 202.501C31.182 204.233 31.9018 205.948 32.3746 207.697C33.0314 210.126 34.264 212.269 35.1265 214.583C35.4712 215.508 36.0254 216.62 36.4774 217.269C38.6421 220.376 43.4606 219.957 46.9346 220.675C51.3516 221.587 55.9148 220.47 60.2937 220.003C69.1173 219.064 77.3395 216.271 85.7111 213.514C92.5696 211.256 99.6587 208.673 106 205.235" stroke="black" stroke-width="2" stroke-linecap="round"/>
<path d="M71 178.022C74.0477 189.651 77.4452 201.272 80 213.022" stroke="black" stroke-width="2" stroke-linecap="round"/>
<path d="M93 212.023C95.9859 215.527 99.1153 219.015 102.663 221.97C103.769 222.891 105.228 223.678 105.959 224.96C107.824 228.228 109.496 231.616 111.377 234.882C111.962 235.898 112.714 236.871 113 238.023" stroke="black" stroke-width="2" stroke-linecap="round"/>
<path d="M150.495 197.023C154.588 205.885 158.903 214.708 162.625 223.728C163.562 226 162.666 227.078 160.792 228.629C158.384 230.623 154.652 231.735 151.804 232.73C148.066 234.036 144.2 235.411 140.272 235.956C136.927 236.419 133.618 237.249 130.249 237.531C127.481 237.762 124.72 237.756 121.946 237.756C118.33 237.756 114.59 238.356 111 237.756" stroke="black" stroke-width="2" stroke-linecap="round"/>
<path d="M165 227.023C156.754 233.737 144.625 243.782 135.79 250.405C132.264 253.048 127.792 256.321 123.527 258.208C121.192 259.241 118.452 259.32 116.023 260.035C113.605 260.747 111.026 262.031 108.872 263.121C104.39 265.388 98.5994 268.586 94.2918 271.097C91.1518 272.927 87.9356 274.864 85 277.023" stroke="black" stroke-width="2" stroke-linecap="round"/>
<path d="M118 233.278C110.524 229.626 102.915 225.156 94.4333 224.214C85.2595 223.195 75.4918 226.428 67.0262 229.511C62.7867 231.054 58.6159 232.862 54.557 234.819C52.5953 235.766 52.2006 236.745 50.4173 235.26C47.9614 233.215 45.7287 231.386 42.5742 230.416C37.8396 228.959 32.6798 229.612 27.9604 230.734C24.9482 231.45 21.9596 232.391 19.0449 233.425C18.1437 233.745 17.4064 233.935 17 234.599" stroke="black" stroke-width="2" stroke-linecap="round"/>
<path d="M158 216.904C163.41 217.213 168.814 217.589 174.225 217.876C177.018 218.024 178.897 218.385 181.011 216.872C182.399 215.878 183.41 215.023 185.28 215.023C186.993 215.023 188.656 215.425 190 216.333" stroke="black" stroke-width="2" stroke-linecap="round"/>
<path d="M170.353 180.022C171.236 183.397 172.964 189.678 173.651 193.374C173.837 194.375 174.318 196.647 173.679 197.883C173.313 198.591 171.512 199.266 170.851 199.683C169.974 200.238 169.168 200.909 168.378 201.587C167.113 202.673 169.38 204.619 169.956 205.642C172.045 209.358 173.623 213.179 170.595 216.665C170.017 217.331 169.317 218.634 168.563 219.022" stroke="black" stroke-width="2" stroke-linecap="round"/>
<path d="M118.532 77.3952C120.606 76.3918 133.176 68.3151 133.176 75.5057" stroke="black" stroke-width="2" stroke-linecap="round"/>
<path d="M26.4211 111.169C25.7423 112.902 22.2154 118.773 24.7678 120.485C26.0897 121.372 27.5303 121.428 28.5729 122.755C29.8079 124.327 30.3784 122.355 30.7773 121.168C31.2034 119.899 32.4507 117.383 32.2863 115.985C32.1469 114.8 30.5916 113.505 29.9376 112.56C28.4637 110.431 25.3924 110.1 23.1145 109.28" stroke="black" stroke-width="2" stroke-linecap="round"/>
<path d="M199.071 129.592C195.95 134.6 193.379 138.484 194.924 144.589C194.994 144.864 196.284 149.088 197.798 149.326C199.041 149.521 199.232 147.232 199.687 146.059C200.471 144.041 201.134 141.76 202.194 139.852C202.715 138.914 202.217 138.056 201.682 137.058C200.369 134.607 198.836 132.192 197.417 129.828" stroke="black" stroke-width="2" stroke-linecap="round"/>
<path d="M45.3181 53.4458L37.3254 65.798" stroke="black" stroke-width="2" stroke-linecap="round"/>
<path d="M39.7474 60.4696L50.8887 69.9154" stroke="black" stroke-width="2" stroke-linecap="round"/>
<path d="M50.8887 49.5707C52.145 54.9311 53.6051 60.2322 55.0061 65.5559" stroke="black" stroke-width="2" stroke-linecap="round"/>
<path d="M53.795 58.0476L57.9125 53.9302" stroke="black" stroke-width="2" stroke-linecap="round"/>
<path d="M55.2483 60.4696L59.8501 57.8054" stroke="black" stroke-width="2" stroke-linecap="round"/>
<path d="M157.699 49.5706C158.087 53.1116 158.342 56.7236 159.233 60.1871C159.551 61.423 159.827 62.2018 161.251 62.0843C164.808 61.791 166.633 59.7242 167.279 56.406C168.036 52.522 167.947 47.9195 167.387 44" stroke="black" stroke-width="2" stroke-linecap="round"/>
<path d="M157.457 55.3834L169.567 51.5082" stroke="black" stroke-width="2" stroke-linecap="round"/>
<path d="M179.982 44.4844L174.169 63.1338" stroke="black" stroke-width="2" stroke-linecap="round"/>
<path d="M176.106 54.6569L183.615 51.7505" stroke="black" stroke-width="2" stroke-linecap="round"/>
<path d="M174.895 67.2512C174.734 69.135 174.551 71.0171 174.411 72.9026C174.408 72.9468 173.937 77.6153 174.317 78.7557C174.547 79.4458 176.317 75.7816 176.402 75.5399C176.635 74.8809 177.096 73.7201 177.021 72.9833C176.828 71.0846 173.18 69.213 171.989 68.22" stroke="black" stroke-width="2" stroke-linecap="round"/>
<path d="M94.3781 209.226C94.2516 207.553 93.9314 205.741 94.6482 204.144C94.9896 203.384 95.6672 202.806 96.2188 202.204C96.4087 201.996 96.6008 201.758 96.834 201.593C97.1708 201.356 98.7464 201.691 98.9798 201.713C100.12 201.822 101.637 202.235 102.716 201.638C103.399 201.261 104.061 200.841 104.732 200.443C105.053 200.253 105.499 199.897 105.882 199.793C106.187 199.71 106.647 199.735 106.933 199.723C108.182 199.668 109.433 199.626 110.684 199.613C111.831 199.601 113.001 199.577 114.14 199.743C114.632 199.814 115.144 199.931 115.481 200.323C116.198 201.156 116.256 202.021 116.256 203.064C116.256 204.829 115.005 205.862 114.225 207.355C113.645 208.466 113.398 209.711 113.645 210.947C113.752 211.481 113.846 211.739 113.735 212.292C113.598 212.979 112.944 213.565 112.425 213.978C111.379 214.809 109.969 214.903 108.763 215.348C107.8 215.704 106.56 215.79 105.542 215.878C104.801 215.943 104.036 215.888 103.291 215.888C102.473 215.888 100.835 215.669 100.39 216.609C100.034 217.36 99.7801 218.285 99.7801 219.13" stroke="black" stroke-width="2" stroke-linecap="round"/>
<path d="M99.0353 210.144C98.3817 210.471 96.5334 211.224 97.2416 211.404C98.7818 211.796 100.476 210.793 102.009 210.895C102.784 210.947 99.1666 211.923 99.7302 211.388C100.486 210.67 102.031 210.749 102.679 209.909C102.946 209.564 101.821 210.101 101.427 210.289C100.538 210.714 99.7135 211.302 98.9384 211.905C98.5779 212.186 97.061 213.382 98.2274 213.747C101.05 214.632 104.448 213.118 106.8 211.727C107.347 211.404 110.626 209.584 110.557 208.415C110.516 207.725 108.275 208.52 108.19 208.552C107.004 208.992 105.415 209.743 104.497 210.661C104.182 210.976 104.22 211.386 104.707 211.428C105.965 211.538 107.923 211.753 109.119 211.275C109.622 211.074 109.942 210.336 108.989 210.596C108.571 210.711 103.249 212.976 104.029 213.852C104.544 214.432 106.975 214.017 107.567 213.941C109.113 213.744 110.921 213.161 112.011 211.97C112.18 211.785 112.913 211.014 112.69 210.725C112.345 210.279 111.308 210.43 110.832 210.435C109.431 210.448 107.025 210.46 105.952 211.533C105.846 211.639 105.527 211.88 105.677 211.889C106.942 211.968 108.45 211.405 109.604 210.984C110.519 210.65 111.462 210.267 112.108 209.514C112.692 208.833 111.222 209.707 111.017 209.788C110.475 210.004 109.098 211.025 109.644 209.95C109.926 209.395 112.001 206.09 111.373 205.619C111.144 205.447 110.094 205.665 110.072 205.668C108.804 205.846 107.534 206.047 106.291 206.362C105.065 206.673 103.864 207.168 102.704 207.671C101.765 208.078 100.908 208.588 100.199 209.336C99.9474 209.601 99.7108 209.947 99.5605 210.281C99.1534 211.186 100.824 210.632 101.071 210.556C102.946 209.979 104.708 209.067 106.42 208.124C107.088 207.756 108.071 207.281 108.634 206.694C108.933 206.381 108.414 206.506 108.262 206.556C106.844 207.026 105.534 207.882 104.328 208.738C103.021 209.665 101.273 210.839 100.635 212.406C100.333 213.149 102.496 212.607 102.817 212.551C105.13 212.148 106.81 210.735 108.618 209.4C111.18 207.51 113.778 205.29 113.87 201.902C113.906 200.542 109.943 202.239 109.458 202.759C109.204 203.032 111.553 202.797 111.801 202.719C112.04 202.643 112.617 202.331 112.383 202.242C111.796 202.019 110.493 202.542 110.008 202.686C109.797 202.748 106.134 203.798 108.198 203.68C108.772 203.647 111.814 203.828 112.124 203.131C112.307 202.719 110.598 202.483 110.428 202.444C109.645 202.265 109.516 201.757 108.747 201.757C106.439 201.757 103.928 202.114 101.847 203.155C101.074 203.542 100.358 204.029 99.5848 204.415C98.6625 204.876 97.8028 205.431 96.9185 205.958C96.6718 206.106 96.1266 206.585 96.1266 206.298C96.1266 205.983 96.5785 205.393 96.7003 205.126C96.9368 204.608 97.097 204.082 97.2901 203.551C97.4405 203.137 101.485 203.45 101.896 203.454C102.027 203.455 103.95 203.201 103.099 203.834C101.857 204.757 100.487 205.526 99.1969 206.379C97.9426 207.207 94.5299 210.118 95.5126 208.98C96.0896 208.312 97.129 207.892 97.8638 207.429C98.6207 206.952 99.3358 206.55 100.191 206.274C101.187 205.952 102.206 205.453 103.237 205.264C105.094 204.923 106.988 204.792 108.852 204.488C109.256 204.422 109.915 204.257 110.218 203.987C110.856 203.417 108.289 204.313 107.664 203.728C107.364 203.447 109.62 202.645 108.763 202.791C107.963 202.928 107.268 203.112 106.452 203.163" stroke="#939393" stroke-width="2" stroke-linecap="round"/>
<path d="M92.4596 209.215C94.0987 206.79 95.7464 204.371 97.3878 201.948C97.7745 201.377 98.1101 200.716 98.5937 200.218C99.1661 199.628 99.4767 200.005 100.02 200.344C100.599 200.706 101.62 201.288 102.306 201.288C103.272 201.288 104.431 201.451 105.399 201.267C106.384 201.079 107.074 200.001 108.031 199.788C109.147 199.54 109.866 199.023 111.051 199.023C111.415 199.023 111.826 198.969 112.183 199.044C112.662 199.145 112.98 199.617 113.431 199.767C114.79 200.22 116.296 199.706 116.419 201.613C116.501 202.876 116.784 204.938 116.335 206.195C115.195 209.387 115.131 214.027 111.344 215.181C108.955 215.909 106.266 216.764 103.742 216.764C102.799 216.764 101.97 217.176 101.131 217.582C101.035 217.629 100.615 217.98 100.869 217.687C101.811 216.604 103.05 215.983 104.434 215.632C106.965 214.991 110.095 215.524 112.435 214.216C113.575 213.579 113.575 213.309 113.913 211.857C114.684 208.551 114.784 205.17 115.381 201.843C115.409 201.688 115.668 200.472 115.371 201.026C113.687 204.164 109.197 213.841 111.03 210.788C111.64 209.77 112.254 208.754 112.865 207.736C112.939 207.612 113.169 207.245 113.095 207.369C112.349 208.62 111.749 209.587 110.935 210.882C109.728 212.804 106.432 218.698 107.15 216.544C107.869 214.388 108.926 212.308 109.782 210.2C110.343 208.818 109.767 209.177 108.482 209.655C104.679 211.07 100.958 212.688 97.2096 214.237C95.9801 214.746 95.8329 214.681 96.6329 213.755C97.3967 212.871 98.2874 212.118 99.1284 211.312C99.2643 211.182 98.9459 211.642 98.8348 211.794C98.3307 212.484 97.5753 213.907 96.7377 214.248C96.3506 214.406 95.7704 212.979 95.6682 212.801C95.3999 212.333 94.6495 210.933 94.7664 211.459C95.0198 212.599 96.7888 213.897 97.5766 214.625C98.1137 215.122 98.6114 215.541 99.2543 215.863C99.9077 216.189 100.093 213.752 100.261 213.304C100.43 212.854 100.347 213.152 100.596 213.199C101.452 213.362 102.002 213.113 102.84 212.654C105.842 211.009 108.762 208.441 109.992 205.167C110.084 204.922 110.948 201.783 110.537 201.518C110.157 201.274 109.018 201.71 108.754 201.812C106.626 202.631 104.535 204.06 102.924 205.671C101.418 207.177 105.912 205.697 106.07 205.65C107.355 205.264 108.979 204.814 110.075 203.972C110.202 203.875 110.449 203.481 110.306 203.553C109.844 203.784 109.715 206.029 109.698 206.405C109.666 207.138 110.081 209.059 111.292 208.145C112.265 207.411 112.65 205.689 112.613 204.538C112.583 203.614 112.009 205.093 112.005 205.104C111.615 206.226 111.349 207.499 111.522 208.691C111.621 209.368 112.09 209.644 112.34 208.795C112.651 207.742 112.58 206.626 112.655 205.545C112.706 204.809 112.796 207.014 112.886 207.747C113.036 208.975 112.699 209.038 111.669 209.676C107.769 212.093 103.929 214.867 99.5059 216.261C96.5584 217.19 105.276 214.012 108.02 212.591C110.296 211.413 111.65 209.892 112.214 207.348C112.728 205.032 112.788 203.195 112.655 200.931C112.519 198.618 110.48 200.23 109.341 200.491C107.589 200.893 105.649 200.758 103.973 201.434C103.568 201.598 103.267 201.665 102.84 201.665C101.799 201.665 100.941 200.959 100.009 200.91C99.5806 200.888 97.6978 201.202 98.4993 201.959C98.9244 202.36 99.8434 201.799 100.303 201.896C100.521 201.942 99.9972 202.222 99.8205 202.357C99.1498 202.87 98.4639 203.363 97.7863 203.867C97.0291 204.43 96.2097 204.918 95.4585 205.482C94.704 206.048 94.3029 207.166 94.0115 208.04C93.472 209.659 96.4816 207.835 96.9894 207.327" stroke="#939393" stroke-width="2" stroke-linecap="round"/>
<path d="M94.8021 210.533L104.557 206.3" stroke="black" stroke-width="2" stroke-linecap="round"/>
<rect x="8.5" y="11.5" width="59" height="29" rx="14.5" fill="white" stroke="#FFD963"/>
<mask id="path-82-outside-1_347_43" maskUnits="userSpaceOnUse" x="23" y="16" width="15" height="21" fill="black">
<rect fill="white" x="23" y="16" width="15" height="21"/>
<path d="M33.9688 22.5078C33.8047 20.9375 32.4219 20.0234 30.4766 20.0234C28.3906 20.0234 27.0781 21.0781 27.0781 22.5312C27.0781 24.1484 28.8359 24.7578 30.1719 25.0859L31.8125 25.5312C33.9922 26.0469 36.6875 27.2422 36.7109 30.3125C36.6875 33.1719 34.4141 35.2812 30.4062 35.2812C26.6094 35.2812 24.2188 33.3828 24.0547 30.2891H26.6328C26.7969 32.1406 28.4141 33.0312 30.4062 33.0312C32.5625 33.0312 34.1328 31.9297 34.1562 30.2656C34.1328 28.7891 32.75 28.1797 30.9453 27.7109L28.9297 27.1719C26.2109 26.4219 24.5 25.0391 24.5 22.6719C24.5 19.7422 27.125 17.7969 30.5469 17.7969C33.9922 17.7969 36.4062 19.7656 36.4766 22.5078H33.9688Z"/>
</mask>
<path d="M33.9688 22.5078C33.8047 20.9375 32.4219 20.0234 30.4766 20.0234C28.3906 20.0234 27.0781 21.0781 27.0781 22.5312C27.0781 24.1484 28.8359 24.7578 30.1719 25.0859L31.8125 25.5312C33.9922 26.0469 36.6875 27.2422 36.7109 30.3125C36.6875 33.1719 34.4141 35.2812 30.4062 35.2812C26.6094 35.2812 24.2188 33.3828 24.0547 30.2891H26.6328C26.7969 32.1406 28.4141 33.0312 30.4062 33.0312C32.5625 33.0312 34.1328 31.9297 34.1562 30.2656C34.1328 28.7891 32.75 28.1797 30.9453 27.7109L28.9297 27.1719C26.2109 26.4219 24.5 25.0391 24.5 22.6719C24.5 19.7422 27.125 17.7969 30.5469 17.7969C33.9922 17.7969 36.4062 19.7656 36.4766 22.5078H33.9688Z" fill="#FFEFBD"/>
<path d="M33.9688 22.5078L32.9742 22.6117L33.0678 23.5078H33.9688V22.5078ZM30.1719 25.0859L30.4338 24.1209L30.4221 24.1177L30.4104 24.1148L30.1719 25.0859ZM31.8125 25.5312L31.5505 26.4963L31.5664 26.5006L31.5823 26.5044L31.8125 25.5312ZM36.7109 30.3125L37.7109 30.3207L37.711 30.3128L37.7109 30.3049L36.7109 30.3125ZM24.0547 30.2891V29.2891H23.0003L23.0561 30.342L24.0547 30.2891ZM26.6328 30.2891L27.6289 30.2008L27.5481 29.2891H26.6328V30.2891ZM34.1562 30.2656L35.1562 30.2797L35.1564 30.2647L35.1561 30.2498L34.1562 30.2656ZM30.9453 27.7109L30.6869 28.677L30.6939 28.6788L30.9453 27.7109ZM28.9297 27.1719L28.6638 28.1359L28.6713 28.1379L28.9297 27.1719ZM36.4766 22.5078V23.5078H37.5025L37.4762 22.4822L36.4766 22.5078ZM33.9688 22.5078L34.9633 22.4039C34.8503 21.322 34.3036 20.4427 33.4625 19.8564C32.6433 19.2853 31.5956 19.0234 30.4766 19.0234V20.0234V21.0234C31.3028 21.0234 31.9192 21.2186 32.3188 21.4971C32.6964 21.7604 32.9231 22.1233 32.9742 22.6117L33.9688 22.5078ZM30.4766 20.0234V19.0234C29.2749 19.0234 28.1963 19.3265 27.3919 19.9348C26.5682 20.5577 26.0781 21.4729 26.0781 22.5312H27.0781H28.0781C28.0781 22.1365 28.2443 21.7978 28.5983 21.53C28.9717 21.2477 29.5923 21.0234 30.4766 21.0234V20.0234ZM27.0781 22.5312H26.0781C26.0781 23.7816 26.7879 24.6145 27.5778 25.1296C28.3344 25.623 29.2484 25.8888 29.9334 26.0571L30.1719 25.0859L30.4104 24.1148C29.7594 23.9549 29.1266 23.752 28.6703 23.4544C28.2472 23.1785 28.0781 22.8981 28.0781 22.5312H27.0781ZM30.1719 25.0859L29.9099 26.051L31.5505 26.4963L31.8125 25.5312L32.0745 24.5662L30.4338 24.1209L30.1719 25.0859ZM31.8125 25.5312L31.5823 26.5044C32.6139 26.7484 33.6691 27.1336 34.4518 27.7497C35.1958 28.3352 35.7019 29.1292 35.711 30.3201L36.7109 30.3125L37.7109 30.3049C37.6966 28.4255 36.8432 27.0867 35.6888 26.1781C34.5731 25.3 33.1908 24.8297 32.0427 24.5581L31.8125 25.5312ZM36.7109 30.3125L35.711 30.3043C35.7016 31.452 35.2503 32.4097 34.4163 33.0978C33.5669 33.7987 32.2417 34.2812 30.4062 34.2812V35.2812V36.2812C32.5786 36.2812 34.394 35.7091 35.6892 34.6405C36.9997 33.5591 37.6969 32.0324 37.7109 30.3207L36.7109 30.3125ZM30.4062 35.2812V34.2812C28.6655 34.2812 27.3574 33.8458 26.4872 33.1599C25.6368 32.4897 25.1212 31.5171 25.0533 30.2361L24.0547 30.2891L23.0561 30.342C23.1522 32.1548 23.914 33.6783 25.2491 34.7307C26.5645 35.7674 28.3501 36.2812 30.4062 36.2812V35.2812ZM24.0547 30.2891V31.2891H26.6328V30.2891V29.2891H24.0547V30.2891ZM26.6328 30.2891L25.6367 30.3773C25.7462 31.6125 26.359 32.5664 27.2751 33.1838C28.1605 33.7804 29.2755 34.0312 30.4062 34.0312V33.0312V32.0312C29.5448 32.0312 28.8551 31.8368 28.3928 31.5252C27.9613 31.2344 27.6835 30.8172 27.6289 30.2008L26.6328 30.2891ZM30.4062 33.0312V34.0312C31.6439 34.0312 32.7955 33.7163 33.669 33.0814C34.5622 32.4321 35.1395 31.4584 35.1562 30.2797L34.1562 30.2656L33.1563 30.2515C33.1495 30.7369 32.93 31.146 32.4931 31.4636C32.0365 31.7955 31.3248 32.0312 30.4062 32.0312V33.0312ZM34.1562 30.2656L35.1561 30.2498C35.1383 29.1265 34.5713 28.3277 33.786 27.7868C33.0567 27.2845 32.1114 26.9806 31.1967 26.7431L30.9453 27.7109L30.6939 28.6788C31.5839 28.91 32.2323 29.1452 32.6515 29.4339C33.0146 29.684 33.1508 29.9282 33.1564 30.2815L34.1562 30.2656ZM30.9453 27.7109L31.2037 26.7449L29.188 26.2058L28.9297 27.1719L28.6713 28.1379L30.687 28.677L30.9453 27.7109ZM28.9297 27.1719L29.1956 26.2079C27.9203 25.8561 26.9888 25.3827 26.3871 24.8062C25.8155 24.2587 25.5 23.5816 25.5 22.6719H24.5H23.5C23.5 24.1293 24.0399 25.3273 25.0035 26.2504C25.937 27.1447 27.2203 27.7377 28.6638 28.1359L28.9297 27.1719ZM24.5 22.6719H25.5C25.5 20.5049 27.4402 18.7969 30.5469 18.7969V17.7969V16.7969C26.8098 16.7969 23.5 18.9795 23.5 22.6719H24.5ZM30.5469 17.7969V18.7969C33.6402 18.7969 35.4249 20.5055 35.4769 22.5334L36.4766 22.5078L37.4762 22.4822C37.3876 19.0258 34.3442 16.7969 30.5469 16.7969V17.7969ZM36.4766 22.5078V21.5078H33.9688V22.5078V23.5078H36.4766V22.5078Z" fill="#FFD963" mask="url(#path-82-outside-1_347_43)"/>
<mask id="path-84-outside-2_347_43" maskUnits="userSpaceOnUse" x="38" y="17" width="17" height="19" fill="black">
<rect fill="white" x="38" y="17" width="17" height="19"/>
<path d="M39.7344 35V18.0312H45.7812C49.7188 18.0312 51.6641 20.2344 51.6641 23.3516C51.6641 25.6367 50.6328 27.3711 48.5703 28.1328L52.3203 35H49.3906L45.9453 28.6016H45.7812H42.3125V35H39.7344ZM42.3125 26.375H45.5234C48.0312 26.375 49.0625 25.2734 49.0625 23.3516C49.0625 21.4297 48.0312 20.2344 45.5234 20.2344H42.3125V26.375Z"/>
</mask>
<path d="M39.7344 35V18.0312H45.7812C49.7188 18.0312 51.6641 20.2344 51.6641 23.3516C51.6641 25.6367 50.6328 27.3711 48.5703 28.1328L52.3203 35H49.3906L45.9453 28.6016H45.7812H42.3125V35H39.7344ZM42.3125 26.375H45.5234C48.0312 26.375 49.0625 25.2734 49.0625 23.3516C49.0625 21.4297 48.0312 20.2344 45.5234 20.2344H42.3125V26.375Z" fill="#FFEFBD"/>
<path d="M39.7344 35H38.7344V36H39.7344V35ZM39.7344 18.0312V17.0312H38.7344V18.0312H39.7344ZM48.5703 28.1328L48.2239 27.1947L47.1377 27.5959L47.6926 28.6121L48.5703 28.1328ZM52.3203 35V36H54.0058L53.198 34.5207L52.3203 35ZM49.3906 35L48.5102 35.4741L48.7933 36H49.3906V35ZM45.9453 28.6016L46.8258 28.1275L46.5426 27.6016H45.9453V28.6016ZM42.3125 28.6016V27.6016H41.3125V28.6016H42.3125ZM42.3125 35V36H43.3125V35H42.3125ZM42.3125 26.375H41.3125V27.375H42.3125V26.375ZM42.3125 20.2344V19.2344H41.3125V20.2344H42.3125ZM39.7344 35H40.7344V18.0312H39.7344H38.7344V35H39.7344ZM39.7344 18.0312V19.0312H45.7812V18.0312V17.0312H39.7344V18.0312ZM45.7812 18.0312V19.0312C47.5663 19.0312 48.7617 19.5279 49.5063 20.2435C50.2478 20.9561 50.6641 22.0027 50.6641 23.3516H51.6641H52.6641C52.6641 21.5832 52.1077 19.9697 50.8922 18.8015C49.6797 17.6362 47.9337 17.0312 45.7812 17.0312V18.0312ZM51.6641 23.3516H50.6641C50.6641 24.3453 50.4403 25.1552 50.0457 25.7786C49.6561 26.394 49.0648 26.8842 48.2239 27.1947L48.5703 28.1328L48.9168 29.0709C50.1383 28.6197 51.0939 27.8619 51.7355 26.8484C52.3722 25.8428 52.6641 24.643 52.6641 23.3516H51.6641ZM48.5703 28.1328L47.6926 28.6121L51.4426 35.4793L52.3203 35L53.198 34.5207L49.448 27.6535L48.5703 28.1328ZM52.3203 35V34H49.3906V35V36H52.3203V35ZM49.3906 35L50.2711 34.5259L46.8258 28.1275L45.9453 28.6016L45.0648 29.0757L48.5102 35.4741L49.3906 35ZM45.9453 28.6016V27.6016H45.7812V28.6016V29.6016H45.9453V28.6016ZM45.7812 28.6016V27.6016H42.3125V28.6016V29.6016H45.7812V28.6016ZM42.3125 28.6016H41.3125V35H42.3125H43.3125V28.6016H42.3125ZM42.3125 35V34H39.7344V35V36H42.3125V35ZM42.3125 26.375V27.375H45.5234V26.375V25.375H42.3125V26.375ZM45.5234 26.375V27.375C46.901 27.375 48.0735 27.0754 48.9034 26.3263C49.7541 25.5586 50.0625 24.4864 50.0625 23.3516H49.0625H48.0625C48.0625 24.1386 47.8553 24.5781 47.5634 24.8416C47.2507 25.1238 46.6537 25.375 45.5234 25.375V26.375ZM49.0625 23.3516H50.0625C50.0625 22.218 49.7553 21.1334 48.9197 20.3449C48.0946 19.5664 46.9201 19.2344 45.5234 19.2344V20.2344V21.2344C46.6346 21.2344 47.2296 21.5 47.5471 21.7996C47.8541 22.0892 48.0625 22.5632 48.0625 23.3516H49.0625ZM45.5234 20.2344V19.2344H42.3125V20.2344V21.2344H45.5234V20.2344ZM42.3125 20.2344H41.3125V26.375H42.3125H43.3125V20.2344H42.3125Z" fill="#FFD963" mask="url(#path-84-outside-2_347_43)"/>
</svg>
