<svg width="220" height="300" viewBox="0 0 220 300" fill="none" xmlns="http://www.w3.org/2000/svg">
<rect width="220" height="300" fill="url(#paint0_linear_347_44)"/>
<path d="M123.072 17.856V18.768H121.536V20.88H123.024V21.768H119.736V22.944H123.96V23.832H114.384V22.944H118.608V21.768H115.32V20.88H116.808V18.768H115.272V17.856H123.072ZM115.44 25.68V24.768H122.784V27.984H121.656V25.68H115.44ZM117.912 20.88H120.432V18.768H117.912V20.88ZM133.155 18.024V18.888C133.155 19.764 133.155 20.748 132.891 22.08H134.379V22.968H130.155V25.416H129.051V22.968H124.755V22.08H131.763C132.051 20.772 132.051 19.8 132.051 18.936H125.955V18.024H133.155ZM125.931 27.768V24.456H127.059V26.88H133.347V27.768H125.931ZM147.008 17.496V22.944H145.952V17.496H147.008ZM138.152 20.304C138.14 18.912 139.148 17.988 140.552 18C141.788 17.988 142.712 18.708 142.928 19.824H143.912V17.712H144.968V22.872H143.912V20.736H142.94C142.736 21.864 141.8 22.62 140.552 22.608C139.148 22.62 138.14 21.66 138.152 20.304ZM139.16 20.304C139.148 21.156 139.736 21.72 140.552 21.72C141.356 21.72 141.968 21.156 141.968 20.304C141.968 19.452 141.356 18.852 140.552 18.864C139.736 18.852 139.148 19.452 139.16 20.304ZM139.976 27.864V25.152H145.904V24.264H139.976V23.376H147.008V25.992H141.104V26.976H147.416V27.864H139.976ZM152.075 20.16C152.063 22.02 153.143 23.928 154.715 24.696L154.019 25.584C152.879 24.984 151.991 23.82 151.523 22.416C151.055 23.904 150.143 25.164 148.955 25.776L148.259 24.888C149.867 24.108 150.959 22.092 150.971 20.16V18.36H152.075V20.16ZM155.507 27.984V17.496H156.611V21.672H158.291V22.632H156.611V27.984H155.507ZM165.904 18.288V21.312H163.264V22.728C164.56 22.704 165.532 22.644 166.696 22.416L166.792 23.304C165.508 23.556 164.428 23.592 162.88 23.592H162.184V20.472H164.848V19.176H162.184V18.288H165.904ZM163.048 27.096C165.016 26.808 166.564 25.704 166.576 24.408V24.168H167.68V24.408C167.68 25.704 169.24 26.808 171.208 27.096L170.776 27.936C169.156 27.684 167.776 26.916 167.128 25.824C166.48 26.916 165.088 27.684 163.48 27.936L163.048 27.096ZM166.312 21V20.112H167.512V17.712H168.592V23.808H167.512V21H166.312ZM169.624 24.696V17.496H170.68V24.696H169.624ZM180.811 17.496V24.528H179.707V17.496H180.811ZM172.315 20.688C172.315 19.2 173.503 18.18 175.123 18.168C176.719 18.18 177.907 19.2 177.907 20.688C177.907 22.176 176.719 23.208 175.123 23.208C173.503 23.208 172.315 22.176 172.315 20.688ZM173.275 27.072C175.255 26.76 176.767 25.62 176.755 24.216V23.928H177.931V24.216C177.919 25.608 179.395 26.748 181.387 27.072L180.931 27.96C179.311 27.66 177.955 26.856 177.343 25.692C176.707 26.856 175.327 27.66 173.707 27.96L173.275 27.072ZM173.395 20.688C173.395 21.636 174.115 22.26 175.123 22.248C176.095 22.26 176.815 21.636 176.803 20.688C176.815 19.74 176.095 19.128 175.123 19.128C174.115 19.128 173.395 19.74 173.395 20.688ZM190.966 18.504V19.536C190.966 20.832 190.966 22.284 190.558 24.432L189.454 24.312C189.85 22.284 189.85 20.796 189.862 19.536V19.416H183.478V18.504H190.966ZM182.47 26.568V25.656H186.118V21.96H187.222V25.656H192.046V26.568H182.47ZM118.248 34.16C118.236 36.08 119.388 38.012 121.008 38.744L120.36 39.608C119.148 39.044 118.188 37.868 117.696 36.44C117.216 37.976 116.244 39.236 114.984 39.848L114.312 38.912C115.956 38.18 117.12 36.176 117.12 34.16V32.36H118.248V34.16ZM121.968 42.008V31.496H123.096V42.008H121.968ZM128.979 32.6V33.056C128.967 34.04 128.979 35.708 128.259 38.48L127.131 38.312C127.755 36.14 127.851 34.532 127.863 33.512H125.475V32.6H128.979ZM124.755 40.448V39.536H134.331V40.448H124.755ZM129.723 33.512V32.6H133.275V33.392C133.275 34.52 133.287 36.08 132.819 38.48L131.691 38.36C132.159 36.176 132.171 34.616 132.171 33.512H129.723ZM143.886 31.496V42.008H142.782V36.368H140.838V35.456H142.782V31.496H143.886ZM135.486 33.344V32.432H140.238V36.2H136.614V38.576C138.294 38.576 139.578 38.528 141.054 38.264L141.15 39.176C139.578 39.452 138.198 39.512 136.35 39.512H135.51V35.288H139.134V33.344H135.486ZM155.097 36.752V37.664H150.945V39.704H149.817V37.664H145.497V36.752H155.097ZM146.553 33.872C146.541 32.564 148.029 31.748 150.273 31.736C152.541 31.748 154.017 32.564 154.017 33.872C154.017 35.18 152.541 35.996 150.273 35.984C148.029 35.996 146.541 35.18 146.553 33.872ZM146.697 41.768V38.696H147.801V40.856H154.041V41.768H146.697ZM147.729 33.872C147.729 34.628 148.749 35.096 150.273 35.096C151.821 35.096 152.829 34.628 152.841 33.872C152.829 33.092 151.821 32.636 150.273 32.648C148.749 32.636 147.729 33.092 147.729 33.872ZM164.628 31.496V39.248H163.524V35.6H161.34V34.664H163.524V31.496H164.628ZM156.036 37.184C158.364 36.416 159.948 35 160.188 33.224H156.564V32.288H161.388C161.388 35.036 159.504 37.1 156.492 38.072L156.036 37.184ZM157.86 41.768V38.456H158.988V40.88H164.892V41.768H157.86ZM172.841 33.656C172.853 34.88 173.801 36.008 175.409 36.464L174.881 37.328C173.681 36.98 172.781 36.236 172.313 35.276C171.857 36.332 170.933 37.148 169.673 37.52L169.145 36.656C170.753 36.188 171.749 34.988 171.737 33.656V33.56H169.457V32.672H171.737V31.448H172.865V32.672H175.121V33.56H172.841V33.656ZM170.705 41.864V38.168H177.425V41.864H170.705ZM171.809 40.952H176.321V39.032H171.809V40.952ZM176.321 37.688V31.496H177.425V34.088H178.937V35.024H177.425V37.688H176.321ZM183.404 34.592C183.404 36.344 184.556 38.156 186.188 38.84L185.564 39.728C184.328 39.176 183.356 38.024 182.864 36.632C182.372 38.12 181.388 39.404 180.164 39.992L179.516 39.104C181.1 38.372 182.276 36.392 182.276 34.592V33.464H179.876V32.552H185.804V33.464H183.404V34.592ZM187.124 41.984V31.496H188.252V41.984H187.124ZM192.839 32.072C194.423 32.06 195.587 33.068 195.599 34.496C195.587 35.924 194.423 36.932 192.839 36.944C191.255 36.932 190.067 35.924 190.079 34.496C190.067 33.068 191.255 32.06 192.839 32.072ZM190.967 41.72V37.808H192.047V40.796C192.671 40.76 193.379 40.676 194.039 40.448L194.231 41.336C193.235 41.672 192.299 41.708 191.495 41.72H190.967ZM191.159 34.496C191.147 35.396 191.879 36.02 192.839 36.032C193.787 36.02 194.507 35.396 194.519 34.496C194.507 33.608 193.787 32.984 192.839 32.984C191.879 32.984 191.147 33.608 191.159 34.496ZM193.847 38.696V37.856H195.959V36.992H197.063V37.856H199.151V38.696H193.847ZM194.519 40.496C194.507 39.596 195.323 39.008 196.487 39.008C197.663 39.008 198.479 39.596 198.479 40.496C198.479 41.408 197.663 41.984 196.487 41.984C195.323 41.984 194.507 41.408 194.519 40.496ZM195.503 40.496C195.503 40.928 195.923 41.192 196.487 41.192C197.063 41.192 197.483 40.928 197.471 40.496C197.483 40.076 197.063 39.812 196.487 39.8C195.923 39.812 195.503 40.076 195.503 40.496ZM197.063 36.728V31.496H198.167V33.8H199.679V34.712H198.167V36.728H197.063ZM203.09 32.288C204.674 32.288 205.79 33.716 205.802 35.96C205.79 38.228 204.674 39.656 203.09 39.656C201.53 39.656 200.402 38.228 200.426 35.96C200.402 33.716 201.53 32.288 203.09 32.288ZM201.482 35.96C201.47 37.628 202.142 38.66 203.09 38.648C204.074 38.66 204.722 37.628 204.722 35.96C204.722 34.316 204.074 33.284 203.09 33.272C202.142 33.284 201.47 34.316 201.482 35.96ZM207.362 41.984V31.496H208.466V35.6H210.146V36.56H208.466V41.984H207.362Z" fill="black"/>
<path d="M83.3328 84.6524C86.775 82.9818 89.7426 81.7001 93.3883 83.6313C94.1207 84.0192 94.6898 84.6527 95.3077 85.1772C96.1204 85.8669 96.2442 86.6464 97.528 86.9642C99.8446 87.5376 102.191 87.6074 104.575 87.3329C105.955 87.1741 105.19 87.1305 104.332 86.95C103.265 86.7255 102.978 86.5036 102.656 85.4467C101.813 82.6802 101.111 79.7842 100.464 76.9655C100.165 75.6622 99.7981 74.72 98.7742 73.8453C96.4217 71.8358 94.4634 72.5529 91.5835 72.9093" stroke="black" stroke-width="2" stroke-linecap="round"/>
<path d="M101.116 76.8295C104.315 78.294 107.49 79.9041 110.747 81.2404C111.279 81.4586 111.988 81.3521 112.533 81.3521C116.72 81.3521 121.478 82.0409 125.402 80.3192C129.313 78.6037 132.546 77.2509 133.917 73.0608C134.372 71.669 134.279 70.2035 134.279 68.7616C134.279 67.6844 134.408 66.5099 134.266 65.4395C134.125 64.3864 132.313 66.4824 132.186 66.612C128.841 70.0158 125.109 65.7008 122.136 63.6667C120.315 62.4207 118.863 60.7331 116.693 60.0096C114.211 59.1823 111.685 58.4882 109.072 58.4882C106.447 58.4882 104.28 58.6394 101.772 59.3675C98.9525 60.1862 97.0515 62.8581 94.3328 63.7644" stroke="black" stroke-width="2" stroke-linecap="round"/>
<path d="M80.3328 84.3388C77.9269 81.2349 73.8893 80.7007 70.6939 82.5656C68.8652 83.6328 67.9653 85.1754 67.3328 87.2751C66.6792 89.4445 65.1125 90.1662 63.3328 91.4882" stroke="black" stroke-width="2" stroke-linecap="round"/>
<path d="M65.209 91.4882C64.9455 94.1888 63.9169 97.8474 64.5188 100.632C65.0912 103.28 66.3243 106.078 67.5695 108.469C68.654 110.551 69.8427 112.497 71.0619 114.478C72.118 116.194 72.1771 118.835 72.6632 120.733C73.3056 123.242 73.2232 125.953 74.0574 128.382C75.3717 132.209 76.5186 135.717 78.737 139.151C79.8064 140.806 81.7578 141.502 82.7402 143.099C83.252 143.93 83.9061 143.928 84.7142 144.289C86.5337 145.1 88.115 146.218 90.0564 146.814C92.3948 147.532 95.1868 147.169 97.5796 147.264C99.7521 147.351 101.921 147.395 104.095 147.395C104.9 147.395 106.314 147.669 107.091 147.279C109.057 146.292 111.049 144.753 112.916 143.534C114.343 142.602 115.863 141.915 117.278 140.994C119.015 139.864 120.584 138.216 121.999 136.684C123.87 134.658 126.081 132.731 128.335 131.198C130.794 129.525 133.116 127.222 134.782 124.666C135.94 122.888 137.673 121.041 137.998 118.817C138.596 114.73 138.367 110.412 137.515 106.379" stroke="black" stroke-width="2" stroke-linecap="round"/>
<path d="M127.333 81.4882C129.909 86.5426 132.386 91.6719 135.276 96.5558C135.755 97.3649 135.719 98.0918 135.758 99.01C135.86 101.363 136.674 94.3863 137.304 92.1183C138.124 89.1702 139.333 85.8921 139.333 82.7723" stroke="black" stroke-width="2" stroke-linecap="round"/>
<path d="M80.5485 69.4882C78.6067 65.2406 75.2691 58.0528 73.357 53.4944C72.8065 52.1819 71.6154 49.3872 71.3579 47.5989C71.2107 46.577 71.7326 44.9608 72.3436 44.1841C74.2163 41.8037 77.2624 40.1197 80.0765 39.2809C82.8954 38.4406 85.7857 38.4929 88.684 38.4929C90.2888 38.4929 91.8813 38.4254 93.4598 38.7994C95.3848 39.2553 96.5135 40.049 98.0413 41.1196C99.8546 42.3903 101.932 43.5456 104.08 43.8777C107.321 44.3786 110.915 43.7396 112.799 40.7694C112.873 40.6526 112.961 40.9941 113.021 41.1196C113.3 41.705 113.812 42.8615 114.035 43.3669C114.445 44.2981 115.233 45.5513 115.284 46.6357C115.319 47.3611 115.425 48.3138 115.145 48.9852C114.949 49.4572 114.489 49.6199 114.076 49.8316C112.145 50.822 110.432 52.1735 108.62 53.3776C107.489 54.1293 106.302 54.8611 105.038 55.3039" stroke="black" stroke-width="2" stroke-linecap="round"/>
<path d="M116.333 48.3942C118.073 47.8027 119.777 47.0832 121.557 46.6292C123.305 46.1833 124.109 46.8439 125.44 47.9179C126.368 48.666 127.597 49.4885 128.258 50.5514C128.896 51.5798 129.295 52.7737 130.008 53.8291C131.042 55.3592 132.333 57.5319 132.333 59.4882" stroke="black" stroke-width="2" stroke-linecap="round"/>
<path d="M69.3328 50.4882C66.6565 51.0482 65.1686 51.2279 63.4647 53.4592C62.0585 55.3006 60.3961 57.2517 59.4085 59.4012C58.5323 61.3081 57.8876 63.5748 57.2992 65.5979C56.3656 68.8076 56.6773 72.5062 56.6773 75.8408C56.6773 77.4475 56.4244 78.1009 55.8931 79.4909C55.2024 81.2976 55.031 82.148 56.0688 83.8626C57.5638 86.3325 58.5195 89.8944 61.058 91.4882" stroke="black" stroke-width="2" stroke-linecap="round"/>
<path d="M57.7645 88.4882C57.4989 92.0442 56.6815 95.9872 58.3727 99.2574C59.0752 100.616 59.8441 101.797 60.9115 102.847C62.7698 104.676 64.4769 106.655 66.3328 108.488" stroke="black" stroke-width="2" stroke-linecap="round"/>
<path d="M98.3328 99.4882C100.922 98.9688 102.918 98.6244 104.827 96.8354C107.434 94.3909 111.225 92.5759 114.526 91.2382C116.059 90.6165 117.691 90.604 119.333 90.4882" stroke="black" stroke-width="2" stroke-linecap="round"/>
<path d="M67.3328 108.488C69.238 106.729 69.9583 106.079 71.7362 104.389C71.9941 104.143 72.8069 103.126 73.3225 103.022C75.2539 102.632 77.2734 102.551 79.2302 102.491C80.6564 102.447 81.9531 103.022 83.3328 103.022" stroke="black" stroke-width="2" stroke-linecap="round"/>
<path d="M143.274 85.4882C143.727 88.7023 144.648 92.1594 144.224 95.4075C143.936 97.6148 143.108 100.37 142.033 102.261C141.05 103.99 138.438 103.278 137.333 104.488" stroke="black" stroke-width="2" stroke-linecap="round"/>
<path d="M136.417 71.1509C136.71 71.2166 143.843 72.8356 144.665 72.9591C146.07 73.1704 147.24 73.3507 148.393 72.3851C149.439 71.5093 150.572 69.472 150.907 68.1085C150.985 67.7918 150.907 67.3465 150.907 67.0178C150.907 66.4157 150.907 66.1823 150.907 67.1039C150.907 69.3893 151.018 71.5648 151.274 73.8345C151.681 77.4357 149.944 78.1219 146.84 79.7184C144.856 80.7384 142.168 82.4882 139.835 82.4882C138.735 82.4882 137.248 81.4888 136.346 81.0387C134.593 80.1633 132.93 79.2491 131.333 78.1255" stroke="black" stroke-width="2" stroke-linecap="round"/>
<path d="M135.333 56.4882C135.908 57.1765 142.148 64.637 143.197 65.9326C143.845 66.7317 145.166 68.2721 145.669 69.4326C146.052 70.3189 146.129 71.5315 146.333 72.4882" stroke="black" stroke-width="2" stroke-linecap="round"/>
<path d="M151.333 77.4882C152.115 77.8222 153.084 80.3749 153.416 81.2126C155.288 85.926 157.834 90.1237 159.126 95.0997C159.774 97.5975 158.758 99.2403 158.043 101.567C157.181 104.375 156.249 108.154 154.499 110.488" stroke="black" stroke-width="2" stroke-linecap="round"/>
<path d="M157.826 107.488C160.066 110.396 164.376 115.948 166.729 119.141C166.89 119.358 168.9 122.02 169.273 123.015C169.938 124.786 164.829 129.237 164.186 129.945C161.778 132.594 160.016 135.488 156.333 135.488" stroke="black" stroke-width="2" stroke-linecap="round"/>
<path d="M139.333 110.488C141.728 110.604 144.442 110.465 146.778 111.188C147.982 111.562 149.001 112.833 149.954 113.61C152.431 115.63 156.093 117.094 156.917 120.439C158.26 125.885 159.029 131.095 157.456 136.488" stroke="black" stroke-width="2" stroke-linecap="round"/>
<path d="M137.333 122.488C137.679 125.459 138.362 131.302 138.733 134.53C138.802 135.135 139.133 137.304 139.133 138.308C139.133 138.755 139.228 139.072 139.333 139.488" stroke="black" stroke-width="2" stroke-linecap="round"/>
<path d="M140.333 142.046C145.451 139.819 155.694 134.878 161.841 133.696C164.195 133.243 166.448 133.313 166.328 136.171C166.26 137.792 164.583 139.962 163.692 141.241C162.179 143.413 161.19 144.857 158.841 145.953C155.344 147.584 151.72 148.488 147.904 148.488" stroke="black" stroke-width="2" stroke-linecap="round"/>
<path d="M139.333 131.488C136.574 136.015 132.135 140.954 132.34 146.537C132.47 150.107 136.072 153.691 138.035 156.488" stroke="black" stroke-width="2" stroke-linecap="round"/>
<path d="M141.333 139.488L143.333 149.488" stroke="black" stroke-width="2" stroke-linecap="round"/>
<path d="M158.333 148.488L142.333 158.488" stroke="black" stroke-width="2" stroke-linecap="round"/>
<path d="M135.333 150.488L132.333 153.488" stroke="black" stroke-width="2" stroke-linecap="round"/>
<path d="M132.329 153.488C131.316 157.946 130.045 162.478 129.402 167.018C129.243 168.143 129.348 167.742 129.82 168.34C131.087 169.948 132.154 171.812 133.333 173.488" stroke="black" stroke-width="2" stroke-linecap="round"/>
<path d="M141.333 159.488C139.598 163.468 137.923 167.46 136.333 171.488" stroke="black" stroke-width="2" stroke-linecap="round"/>
<path d="M151.377 155.488C154.302 159.611 155.685 165.299 152.545 169.669C150.838 172.046 147.949 173.915 145.741 175.59C143.508 177.285 140.782 179.421 138.333 180.488" stroke="black" stroke-width="2" stroke-linecap="round"/>
<path d="M144.333 176.488C138.758 182.549 133.252 188.743 127.333 194.488" stroke="black" stroke-width="2" stroke-linecap="round"/>
<path d="M132.333 169.488C130.709 178.175 128.98 186.855 127.561 195.59C127.501 195.957 127.216 196.905 127.386 197.488" stroke="black" stroke-width="2" stroke-linecap="round"/>
<path d="M135.333 179.488L129.333 190.488" stroke="black" stroke-width="2" stroke-linecap="round"/>
<path d="M131.333 190.488V191.488" stroke="black" stroke-width="2" stroke-linecap="round"/>
<path d="M131.669 190.473C131.105 189.849 130.869 189.714 131.964 190.321C134.089 191.499 136.357 193.309 138.795 193.481C139.694 193.545 139.97 193.174 140.228 192.351C140.737 190.727 139.276 189.622 138.232 188.886C135.368 186.864 131.189 184.488 127.704 184.488C126.794 184.488 126.287 185.097 125.829 185.924C123.683 189.792 129.052 190.625 131.428 190.748" stroke="black" stroke-width="2" stroke-linecap="round"/>
<path d="M132.056 188.485C128.67 191.664 122.438 195.533 122.395 200.942C122.38 202.803 122.263 204.736 122.395 206.591C122.829 212.654 126.028 217.916 128.533 223.19C128.626 223.387 130.951 227.729 131.258 227.478C131.801 227.034 131.331 223.096 131.368 222.379C131.44 221.009 131.701 220.058 132.359 218.874C134.013 215.897 136.017 213.22 137.369 210.067C137.819 209.016 139.163 207.334 139.24 206.156C139.474 202.595 139.304 199.483 138.277 196.017C136.945 191.523 135.352 186.53 133.047 182.488" stroke="black" stroke-width="2" stroke-linecap="round"/>
<path d="M100.333 135.488C101.83 133.663 103.573 130.713 105.946 129.871C106.701 129.604 107.549 129.596 108.333 129.488" stroke="black" stroke-width="2" stroke-linecap="round"/>
<path d="M108.948 97.4895C106.951 99.1227 104.544 100.488 104.373 103.33C104.303 104.505 104.302 105.69 104.557 106.841C104.836 108.097 105.361 108.593 106.293 109.553C107.701 111.004 109.115 112.488 110.691 113.746C111.287 114.221 111.724 114.36 112.443 114.411C114.457 114.556 116.662 114.63 118.417 113.363C119.497 112.583 120.644 110.983 120.976 109.652C121.133 109.024 121.41 108.436 121.312 107.772C120.791 104.245 118.178 101.852 116.122 99.2033C114.704 97.3775 112.092 97.4895 110.1 97.4895" stroke="black" stroke-width="2" stroke-linecap="round"/>
<path d="M110.273 102.025C109.248 104.29 108.117 106.515 107.362 108.887C107.03 109.929 109.649 109.588 110.208 109.624C111.091 109.681 112.05 109.719 112.917 109.927C115.238 110.484 117.521 111.109 119.896 111.426C120.223 111.469 120.494 111.593 120.22 111.294C119.649 110.674 119.275 109.86 118.958 109.084C118.569 108.131 118.725 107.185 118.425 106.242C118.128 105.311 118.23 104.072 118.287 103.098C118.315 102.613 118.406 102.62 117.842 102.615C117.126 102.608 116.335 102.71 115.643 102.468C114.336 102.011 113.101 100.756 111.971 99.9948C111.306 99.5464 110.32 99.1418 109.836 98.4882" stroke="black" stroke-width="2" stroke-linecap="round"/>
<path d="M96.3441 112.488C94.7138 114.053 93.0688 115.601 91.4533 117.182C90.8113 117.81 87.4046 121.006 86.4891 122.521C85.9273 123.45 87.0365 123.159 87.3531 123.149C88.289 123.119 89.3884 123.017 90.3039 122.953C93.2772 122.746 96.169 122.711 99.1156 123.183C99.8671 123.303 100.577 123.488 101.333 123.488" stroke="black" stroke-width="2" stroke-linecap="round"/>
<path d="M104.333 99.4882C104.281 99.3973 103.073 97.4882 103.384 97.4882" stroke="black" stroke-width="2" stroke-linecap="round"/>
<path d="M107.333 98.4882C107.845 96.9826 108.028 95.0945 108.333 93.4882" stroke="black" stroke-width="2" stroke-linecap="round"/>
<path d="M110.333 96.4882L112.333 92.4882" stroke="black" stroke-width="2" stroke-linecap="round"/>
<path d="M84.3139 108.577C83.5687 108.354 79.6725 107.184 78.6494 106.892C78.3679 106.812 77.0689 106.269 76.6099 106.588C75.8926 107.086 75.4368 108.01 75.0629 108.785C74.9945 108.927 74.4322 110.181 74.4011 110.357C74.0533 112.331 75.1174 114.796 75.7094 116.55C76.2335 118.102 76.8149 119.685 77.4796 121.186C77.6785 121.635 77.7988 121.998 78.2338 122.181C81.3836 123.503 84.9656 120.25 87.2385 118.346C88.4178 117.359 88.3314 116.112 88.3314 114.673C88.3314 114.025 88.2264 113.869 87.9158 113.309C87.0989 111.837 86.3401 110.28 85.6992 108.721" stroke="black" stroke-width="2" stroke-linecap="round"/>
<path d="M80.0398 109.536C78.2516 111.767 76.5783 114.274 74.4732 116.266C73.7433 116.956 76.0808 117.114 76.3975 117.192C78.1899 117.635 79.9886 118.031 81.7923 118.427C82.1125 118.498 82.2943 118.545 82.5139 118.753C82.7599 118.985 82.9096 119.217 83.098 119.484C83.1929 119.619 84.6846 116.407 84.8333 116.071C85.2467 115.135 85.658 114.173 86.1906 113.291C86.826 112.239 85.1702 111.881 84.4038 111.373C82.9171 110.387 81.2871 108.967 80.3491 107.488" stroke="black" stroke-width="2" stroke-linecap="round"/>
<path d="M76.3328 108.488C75.5756 108.993 74.9656 109.832 74.3328 110.488" stroke="black" stroke-width="2" stroke-linecap="round"/>
<path d="M74.3328 110.488L71.3328 109.488" stroke="black" stroke-width="2" stroke-linecap="round"/>
<path d="M76.3328 107.488V102.488" stroke="black" stroke-width="2" stroke-linecap="round"/>
<path d="M81.3328 108.488L82.3328 104.488" stroke="black" stroke-width="2" stroke-linecap="round"/>
<path d="M102.056 118.488C100.991 119.086 99.3017 119.725 98.4502 120.712C98.1025 121.116 98.614 121.578 98.8591 121.839C100.183 123.252 101.232 122.105 102.27 120.801C102.608 120.375 101.491 119.199 101.219 118.841" stroke="black" stroke-width="2" stroke-linecap="round"/>
<path d="M84.3328 90.4882L88.3328 97.4882" stroke="black" stroke-width="2" stroke-linecap="round"/>
<path d="M91.3328 89.4882V97.4882" stroke="black" stroke-width="2" stroke-linecap="round"/>
<path d="M109.333 121.488C111.228 122.441 115.662 124.664 117.776 125.752C117.84 125.785 119.72 126.729 120.22 127.101C120.304 127.163 120.309 127.395 120.333 127.488" stroke="black" stroke-width="2" stroke-linecap="round"/>
<path d="M97.3328 128.488L94.3328 134.488" stroke="black" stroke-width="2" stroke-linecap="round"/>
<path d="M140.333 96.4882L149.333 104.488" stroke="black" stroke-width="2" stroke-linecap="round"/>
<path d="M151.28 104.488C151.311 106.732 151.613 104.453 150.333 104.768" stroke="black" stroke-width="2" stroke-linecap="round"/>
<path d="M151.333 103.488C151.053 104.252 149.468 107.312 149.722 108.313C149.934 109.152 150.52 106.749 150.688 105.901C150.89 104.886 150.069 104.945 149.333 104.672" stroke="black" stroke-width="2" stroke-linecap="round"/>
<path d="M73.3328 125.488C72.3308 126.891 69.0695 131.513 67.7816 133.132C66.8749 134.272 66.2712 135.264 64.8877 134.974C63.9066 134.769 62.4947 134.611 61.6065 135.26C60.2619 136.244 64.2858 138.255 64.7048 138.396C65.8451 138.779 67.0387 137.891 67.9107 137.228C69.4129 136.087 66.6043 134.705 66.9425 134.345" stroke="black" stroke-width="2" stroke-linecap="round"/>
<path d="M113.333 143.488C112.811 147.095 114.018 150.614 112.225 153.946C110.98 156.259 108.387 158.036 105.978 158.611C102.485 159.446 98.8191 159.133 95.319 159.979C90.2732 161.198 85.2511 164.318 81.1067 167.5C78.2277 169.711 75.7325 172.431 73.1601 175.012C71.1759 177.002 69.3267 179.118 67.3911 181.155C67.1296 181.431 65.0455 183.319 65.3662 183.488" stroke="black" stroke-width="2" stroke-linecap="round"/>
<path d="M14.9673 132.46C15.3579 132.679 18 134.241 18 133.968C18 132.465 17.6479 130.57 16.2882 130.21C15.4583 129.99 14.0066 129.82 13.2151 130.36C12.5346 130.825 13.6618 132.07 13.9362 132.318C14.2609 132.612 14.7761 133.06 15.2099 133.06" stroke="black" stroke-width="2" stroke-linecap="round"/>
<path d="M17 135L16 138" stroke="black" stroke-width="2" stroke-linecap="round"/>
<path d="M11 139C17.6737 138.039 24.3439 137.048 31 136" stroke="black" stroke-width="2" stroke-linecap="round"/>
<path d="M19 141.193C19.1813 141.185 23.9795 140.697 24.0314 141.305C24.0882 141.969 22.6644 143.126 22.195 143.543C22.0918 143.634 20.9012 144.378 21.2558 144.504C21.8305 144.707 22.8672 144.824 23.3857 144.876C23.9065 144.927 24.4296 144.973 24.9539 144.981C29.8067 145.054 23.5071 144.907 27 144.728" stroke="black" stroke-width="2" stroke-linecap="round"/>
<path d="M27 134C27.8908 136.214 27.3953 139.012 30.5867 139.764C31.4407 139.965 33.255 140.168 34.1189 139.778C34.8786 139.435 34.8114 138.275 35 137.678" stroke="black" stroke-width="2" stroke-linecap="round"/>
<path d="M25 133C27.0043 132.702 29.0717 132.496 31 132" stroke="black" stroke-width="2" stroke-linecap="round"/>
<path d="M37 130V144" stroke="black" stroke-width="2" stroke-linecap="round"/>
<path d="M35 137L46 133" stroke="black" stroke-width="2" stroke-linecap="round"/>
<path d="M42 131C45.0054 130.015 48.0042 129.014 51 128" stroke="black" stroke-width="2" stroke-linecap="round"/>
<path d="M45 131C44.6504 132.611 44 134.356 44 136" stroke="black" stroke-width="2" stroke-linecap="round"/>
<path d="M50 130C49.6631 131.329 49 132.659 49 134" stroke="black" stroke-width="2" stroke-linecap="round"/>
<path d="M42 137L52 135" stroke="black" stroke-width="2" stroke-linecap="round"/>
<path d="M43 142C46.6646 140.99 50.3309 139.989 54 139" stroke="black" stroke-width="2" stroke-linecap="round"/>
<path d="M66.3328 127.488H67.3328" stroke="black" stroke-width="2" stroke-linecap="round"/>
<path d="M20 155C17.6736 158.005 15.3411 161.006 13 164" stroke="black" stroke-width="2" stroke-linecap="round"/>
<path d="M16 160L27 166" stroke="black" stroke-width="2" stroke-linecap="round"/>
<path d="M27 153L29 167" stroke="black" stroke-width="2" stroke-linecap="round"/>
<path d="M29 155.308C31.1366 154.542 33.4241 153.459 35.6558 153.018C36.262 152.898 35.9031 153.399 35.8056 153.719C35.5327 154.613 35.4122 155.609 35.3063 156.544C35.2518 157.025 35.1636 157.518 35.1636 158" stroke="black" stroke-width="2" stroke-linecap="round"/>
<path d="M37 154.239C37.574 154.15 38.8017 153.844 39.4654 154.1C40.2486 154.402 39.9614 155.396 39.8878 155.899C39.8251 156.327 39.7857 156.606 39.9482 157" stroke="black" stroke-width="2" stroke-linecap="round"/>
<path d="M31 164C34.9627 162.901 38.9956 161.972 43 161" stroke="black" stroke-width="2" stroke-linecap="round"/>
<path d="M44 151.256C45.1742 151.039 46.6333 150.498 46.9333 152.196C47.0762 153.005 46.9014 154.312 46.5111 155.063C45.9961 156.054 45.443 156.862 45.0963 157.96C44.9658 158.374 44.4407 159.663 45.1111 159.848C45.8017 160.04 46.5855 159.99 47.2889 159.995C48.8591 160.006 50.4298 159.995 52 159.995" stroke="black" stroke-width="2" stroke-linecap="round"/>
<path d="M49 157L56 153" stroke="black" stroke-width="2" stroke-linecap="round"/>
<path d="M56 149C55.1542 153.328 54.5931 157.626 54 162" stroke="black" stroke-width="2" stroke-linecap="round"/>
<path d="M57 152C58.0768 151.208 60.555 149.414 61.7196 148.469C61.9753 148.262 63.2116 147.493 62.9685 146.786C62.7459 146.138 62.2055 145.96 61.6584 146.007C60.2387 146.129 58.9308 148.44 58.9308 150.045" stroke="black" stroke-width="2" stroke-linecap="round"/>
<path d="M59 155L65 152" stroke="black" stroke-width="2" stroke-linecap="round"/>
<path d="M63 153C62.6542 154.662 62.3273 156.33 62 158" stroke="black" stroke-width="2" stroke-linecap="round"/>
<path d="M64 154L68 152" stroke="black" stroke-width="2" stroke-linecap="round"/>
<path d="M66 144L69 166" stroke="black" stroke-width="2" stroke-linecap="round"/>
<path d="M89.9657 259.863C89.2315 257.415 81.3081 257.111 79.3171 257.007C72.2414 256.637 68.1637 259.603 62.4263 263.126C60.0267 264.6 58.5318 265.727 57.9385 268.471C57.598 270.046 57.6629 271.407 58.5504 272.816C59.4259 274.207 60.745 273.849 62.2836 273.999C66.4907 274.412 70.7981 274.183 75.0128 274.183C82.1275 274.183 86.8482 278.848 92.8624 281.976C95.4977 283.346 98.0853 285.159 101.043 285.709C104.553 286.361 108.241 286.89 111.793 287.239C116.305 287.681 121.024 285.598 124.441 282.669C131.271 276.815 141.916 277.005 150.328 277.712C155.051 278.109 159.297 279.904 163.934 280.792C169.244 281.809 174.69 282.202 180.091 282.261C182.533 282.288 184.355 281.051 186.21 279.487C189.393 276.804 191.509 273.562 192.249 269.45C192.805 266.354 191.677 262.709 191.677 259.495C191.677 257.595 194.233 255.546 195.574 254.355C196.686 253.366 197.931 252.763 199.225 252.07C202.21 250.471 204.711 247.64 207.507 245.705C212.137 242.503 211.782 237.091 209.058 232.446C207.294 229.438 204.717 225.478 201.428 223.878C199.082 222.736 195.955 223.04 193.432 223.225C190.205 223.462 186.211 223.744 183.436 225.51C182.409 226.164 180.607 225.185 179.683 224.816C177.495 223.945 176.284 223.153 174.746 221.471C172.936 219.491 170.396 217.835 167.728 217.35C165.632 216.969 161.82 216.705 159.773 217.513C156.028 218.991 152.561 221.374 148.9 223.082C147.316 223.821 146.281 225.072 144.82 225.897C140.451 228.367 136.945 230.735 131.703 231.181C129.13 231.4 127.088 230.222 124.93 228.937C121.353 226.807 117.932 224.377 113.955 223.021C106.143 220.358 96.759 221.632 89.2925 224.592C85.7527 225.995 82.4458 228.1 82.2546 232.242C82.1523 234.46 81.4026 236.494 81.5203 238.729C81.6439 241.078 82.4242 243.552 82.6422 245.95C82.8898 248.673 83.7234 251.005 83.7234 253.783C83.7234 256.013 81.5431 256.577 79.6843 257.292" stroke="black" stroke-width="2" stroke-linecap="round"/>
<path d="M23.4221 206.682C23.8731 207.819 24.0624 208.982 25.3 209.59C27.0272 210.44 29.4091 209.654 31.1384 209.287C31.8826 209.129 33.3663 209.228 33.334 208.207C33.3022 207.199 32.9682 206.203 32.7198 205.235C32.5872 204.717 32.5999 204.082 32.4445 203.59C32.0937 202.479 25.7817 205.23 24.9188 205.651C24.4563 205.877 24.0829 206.123 23.6763 206.428" stroke="black" stroke-width="2" stroke-linecap="round"/>
<path d="M21.2618 216.213C26.2694 215.118 31.2779 214.142 36.3274 213.262C37.5523 213.048 38.7796 212.748 40.0126 212.584C40.2548 212.552 39.5423 212.717 39.3066 212.782" stroke="black" stroke-width="2" stroke-linecap="round"/>
<path d="M33.2069 214.434C32.5641 215.712 31.9315 216.992 31.5549 218.373" stroke="black" stroke-width="2" stroke-linecap="round"/>
<path d="M26.2178 222.185C27.9394 221.246 29.8603 220.597 31.682 219.884C32.538 219.548 33.1863 219.228 34.0753 219.269C34.5248 219.29 35.9328 219.175 35.4943 219.997C34.6002 221.672 32.6719 222.72 31.1172 223.668C30.305 224.163 29.4941 224.66 28.6746 225.143C28.4617 225.269 27.836 225.56 28.0815 225.588C30.0971 225.816 32.4095 225.251 34.393 224.995C36.0322 224.783 37.6705 224.571 39.3066 224.345" stroke="black" stroke-width="2" stroke-linecap="round"/>
<path d="M41.0856 213.417C40.7565 213.449 40.4736 213.517 41.0433 213.304C41.6797 213.066 42.4366 212.85 43.0624 212.584C44.0893 212.147 42.6721 212.377 42.427 212.457C42.0127 212.591 41.2917 212.875 41.015 213.233C40.6549 213.7 44.0019 214.305 44.0084 214.306" stroke="black" stroke-width="2" stroke-linecap="round"/>
<path d="M44.3896 212.4C43.9484 212.76 45.8454 214.092 45.3497 213.812C44.7564 213.477 44.2407 213.017 43.6554 212.669C27.2887 202.914 47.3967 214.73 42.7376 212.4" stroke="black" stroke-width="2" stroke-linecap="round"/>
<path d="M48.7102 200.963L53.7932 220.914" stroke="black" stroke-width="2" stroke-linecap="round"/>
<path d="M60.9094 203.251C62.3541 202.453 63.7976 201.655 65.2229 200.822C65.4595 200.684 65.9363 200.322 66.2607 200.257C66.3782 200.234 65.9952 200.58 65.9925 200.582" stroke="black" stroke-width="2" stroke-linecap="round"/>
<path d="M61.6719 202.107C63.5115 203.169 65.6354 204.798 67.7856 205.213C68.0993 205.274 67.5928 205.896 67.5174 206.047" stroke="black" stroke-width="2" stroke-linecap="round"/>
<path d="M65.9924 206.809C65.7249 207.885 65.23 209.111 65.23 210.24" stroke="black" stroke-width="2" stroke-linecap="round"/>
<path d="M58.7491 213.163C62.2433 211.55 66.2457 209.711 69.7765 208.051C70.6813 207.626 71.6108 207.244 72.4733 206.738C72.8598 206.512 71.698 207.189 71.3296 207.444" stroke="black" stroke-width="2" stroke-linecap="round"/>
<path d="M72.9817 196.516C74.0268 200.54 75.0981 204.56 76.1021 208.595C76.2338 209.125 76.2857 209.212 76.2857 209.605" stroke="black" stroke-width="2" stroke-linecap="round"/>
<path d="M67.5175 214.688C67.9471 216.133 68.3309 219.187 69.8966 220.06C70.7065 220.512 72.1326 220.185 72.8829 220.088C74.6471 219.86 76.081 219.633 77.8459 219.333C79.9049 218.983 82.053 218.751 83.9102 217.738" stroke="black" stroke-width="2" stroke-linecap="round"/>
<path d="M6.77524 238.959C8.13078 241.055 9.99203 245.43 13.1361 243.845C14.8822 242.964 16.2079 241.739 15.5293 239.609C14.8599 237.507 12.6961 237.499 10.9123 238.098C9.66361 238.517 8.5399 239.223 7.38944 239.849C7.31057 239.892 6.57032 240.153 6.52815 240.301C6.29889 241.103 6.95565 241.445 7.5377 241.882" stroke="black" stroke-width="2" stroke-linecap="round"/>
<path d="M14.5269 244.296L15.5435 248.363" stroke="black" stroke-width="2" stroke-linecap="round"/>
<path d="M9.95215 250.142L27.6157 246.838" stroke="black" stroke-width="2" stroke-linecap="round"/>
<path d="M12.6207 255.225C13.6067 255.185 14.5994 254.984 15.5788 255.105C17.4403 255.335 17.1012 255.956 16.4754 257.272C16.4428 257.341 14.8795 259.367 15.2681 260.025C15.6167 260.616 17.7155 260.418 17.9579 260.414C18.9423 260.395 20.1229 260.559 21.0077 260.054" stroke="black" stroke-width="2" stroke-linecap="round"/>
<path d="M26.9802 239.34C28.4656 239.551 31.8566 240.012 33.5034 240.315C34.1344 240.431 34.9587 240.377 35.339 240.893C35.5466 241.176 34.3555 242.665 34.2306 242.849C33.2029 244.365 32.1611 245.869 31.202 247.431C30.9784 247.795 29.2272 249.837 30.4395 250.015C31.5782 250.181 32.7672 250.141 33.9129 250.114C35.1051 250.085 36.3705 250.139 37.5557 249.994C38.1909 249.916 38.6706 249.602 39.0524 249.125" stroke="black" stroke-width="2" stroke-linecap="round"/>
<path d="M38.163 236.545C40.0468 240.496 41.9297 244.449 43.8037 248.405C43.8775 248.561 43.8814 248.702 43.8814 248.871" stroke="black" stroke-width="2" stroke-linecap="round"/>
<path d="M40.7045 242.263L53.1579 238.959" stroke="black" stroke-width="2" stroke-linecap="round"/>
<path d="M49.7268 234.13L61.6719 230.064" stroke="black" stroke-width="2" stroke-linecap="round"/>
<path d="M54.1744 234.893L56.3347 240.738" stroke="black" stroke-width="2" stroke-linecap="round"/>
<path d="M60.6553 233.114L60.7823 240.611" stroke="black" stroke-width="2" stroke-linecap="round"/>
<path d="M52.3954 244.678C56.5952 243.364 60.8471 242.137 64.9829 240.625C65.7881 240.331 65.9408 240.236 66.5008 239.849" stroke="black" stroke-width="2" stroke-linecap="round"/>
<path d="M55.9535 251.794L77.4293 247.473" stroke="black" stroke-width="2" stroke-linecap="round"/>
<path d="M165.183 169.367C163.288 163.681 161.248 158.575 162.908 152.513C162.961 152.32 163.624 149.955 164.011 149.893C164.43 149.826 164.745 150.322 165.08 150.583C166.825 151.94 168.525 153.365 170.232 154.77C171.631 155.921 172.439 156.486 172.938 158.131C173.474 159.898 173.801 157.387 173.886 156.838C174.569 152.397 174.962 147.954 175.919 143.551C176.556 140.628 177.163 137.086 178.591 134.383C179.727 132.232 180.465 135.652 181.003 136.796C182.217 139.375 184.022 142.428 184.105 145.344C184.135 146.372 184.074 149.437 185.415 147.101C187.364 143.706 189.27 139.957 190.912 136.4C191.537 135.047 191.972 140.589 191.998 140.725C192.487 143.308 192.939 145.908 193.48 148.48C193.6 149.049 193.76 150.966 194.204 151.41C194.294 151.5 195.81 147.459 195.893 147.239C196.585 145.4 197.235 143.558 197.892 141.707C198.276 140.625 199.076 139.983 199.856 139.174C200.783 138.213 200.535 138.697 200.873 140.191C201.535 143.116 201.318 146.128 201.855 149.032C202.118 150.451 202.691 149.746 203.044 148.756C203.614 147.161 203.981 145.463 204.716 143.931C205.294 142.726 205.53 142.29 206.732 141.914C208.027 141.51 207.646 142.673 207.749 143.689C208.489 150.992 206.964 157.593 205.319 164.679C204.275 169.176 201.069 172.465 198.374 176.036C196.111 179.034 194.093 181.651 190.447 182.636C187.198 183.514 182.586 183.314 179.28 182.946C176.449 182.632 174.955 181.139 173.283 178.707C171.895 176.689 170.474 175.119 168.699 173.485C167.062 171.98 165.86 170.777 165.183 168.746" stroke="black" stroke-width="2" stroke-linecap="round"/>
<path d="M161.771 144.551C164.942 145.332 168.132 145.46 171.387 145.482C172.389 145.488 173.486 145.267 174.317 145.947C174.782 146.328 175.51 146.856 176.04 147.033" stroke="black" stroke-width="2" stroke-linecap="round"/>
<path d="M172.008 165.334C165.174 170.64 158.4 176.043 151.483 181.24C150.077 182.297 148.988 182.854 147.502 183.636" stroke="black" stroke-width="2" stroke-linecap="round"/>
<path d="M188.138 157.889L217.138 165.889" stroke="black" stroke-width="2" stroke-linecap="round"/>
<path d="M176.35 171.228L166.734 206.591" stroke="black" stroke-width="2" stroke-linecap="round"/>
<path d="M182.244 170.918C191.206 176.541 199.166 184.166 207.37 190.77" stroke="black" stroke-width="2" stroke-linecap="round"/>
<path d="M196.203 202.558C195.37 205.133 193.564 208.795 194.014 211.657C194.202 212.849 195.448 213.815 196.168 214.69C196.765 215.415 197.063 216.189 197.84 215.138C199.509 212.88 200.728 210.151 201.993 207.659C202.391 206.875 203.596 205.333 202.769 204.436C201.751 203.334 200.431 202.496 199.27 201.558C198.468 200.91 197.732 200.253 197.133 199.456" stroke="black" stroke-width="2" stroke-linecap="round"/>
<path d="M158.049 193.872C155.987 196.045 153.804 198.173 151.896 200.49C151.167 201.376 152.148 202.601 152.534 203.506C153.292 205.282 153.921 207.135 154.74 208.883C155.203 209.871 155.888 208.2 156.101 207.849C157.217 206.009 158.825 204.05 158.531 201.8C157.985 197.626 157.428 193.437 157.428 189.219" stroke="black" stroke-width="2" stroke-linecap="round"/>
<path d="M119.876 112.402C120.463 112.994 121.071 113.828 121.762 114.288" stroke="black" stroke-width="2" stroke-linecap="round"/>
<path d="M122.351 109.221C123.329 109.626 124.31 110.019 125.297 110.399" stroke="black" stroke-width="2" stroke-linecap="round"/>
<path d="M78.162 122.419L76.0409 125.954" stroke="black" stroke-width="2" stroke-linecap="round"/>
<path d="M80.7543 123.479L80.6365 127.25" stroke="black" stroke-width="2" stroke-linecap="round"/>
<path d="M150.515 252.895C153.483 252.424 156.449 251.935 159.422 251.496C159.853 251.433 160.1 251.425 160.479 251.273C161.058 251.042 161.542 250.86 162.171 250.756C163.105 250.602 164.984 250.373 165.802 250.286C166.09 250.256 168.319 249.937 168.963 250.192C169.519 250.412 164.907 255.532 164.404 255.997C162.111 258.115 159.396 260.056 156.813 261.778C154.63 263.233 150.577 263.026 148.87 260.814C147.996 259.681 148.094 258.471 147.872 257.136C147.626 255.663 147.83 254.967 149.035 254.164" stroke="black" stroke-width="2" stroke-linecap="round"/>
<path d="M156.014 252.895C156.398 254.217 156.716 256.064 157.777 257.125C159.901 259.249 158.806 256.851 161.302 258.182" stroke="black" stroke-width="2" stroke-linecap="round"/>
<path d="M161.936 250.78C162.591 252.646 163.287 254.471 164.051 256.279" stroke="black" stroke-width="2" stroke-linecap="round"/>
<path d="M124.924 243.8C123.247 242.727 120.671 242.032 118.685 241.885C116.777 241.744 115.564 242.151 113.62 242.872C111.948 243.492 109.966 244.082 108.38 244.952C107.974 245.174 106.731 245.703 107.581 245.915" stroke="black" stroke-width="2" stroke-linecap="round"/>
<path d="M155.38 237.032C155.947 234.796 156.817 232.583 158.529 230.969C159.688 229.877 161.313 228.146 162.994 227.726" stroke="black" stroke-width="2" stroke-linecap="round"/>
<path d="M180.971 235.34C178.638 236.857 176.384 238.943 174.532 241.004C172.964 242.749 172.967 243.488 174.203 245.151C175.391 246.75 180.398 244.111 181.312 243.718C183.268 242.878 189.386 240.791 188.515 237.455C188.124 235.958 185.248 232.221 183.415 232.661C182.695 232.834 179.856 234.168 180.337 235.129" stroke="black" stroke-width="2" stroke-linecap="round"/>
<path d="M185.201 235.129C185.839 235.81 186.775 236.37 185.53 236.633C184.027 236.95 183.16 237.98 182.51 239.324C181.442 241.532 184.666 240.011 185.53 239.594C186.259 239.242 187.249 238.359 185.777 238.771C185.51 238.846 183.85 239.31 184.003 239.829C184.199 240.497 186.425 239.326 186.705 239.077C187.077 238.746 184.819 238.946 184.508 239.053C184.025 239.219 184.332 240.678 184.355 241.051" stroke="black" stroke-width="2" stroke-linecap="round"/>
<path d="M105.677 259.24C103.521 261.312 98.1943 265.039 103.492 267.218C104.398 267.59 109.285 268.902 110.283 267.3C110.672 266.677 110.33 264.418 110.319 263.74C110.303 262.824 110.36 261.765 110.119 260.861C109.803 259.675 106.362 258.854 105.466 259.451" stroke="black" stroke-width="2" stroke-linecap="round"/>
<path d="M103.139 263.47C103.868 263.844 105.426 264.667 106.265 265.021C106.969 265.318 107.136 265.191 106.57 264.739C106.388 264.592 104.88 263.476 104.714 264.057C104.455 264.963 105.965 265.524 104.878 266.219C104.557 266.425 102.08 267.746 102.458 267.1C102.755 266.593 103.582 265.812 103.645 265.185C103.686 264.769 103.139 266.36 103.139 265.585" stroke="black" stroke-width="2" stroke-linecap="round"/>
<path d="M135.71 270.661C131.718 266.272 127.921 261.28 122.574 258.488C121.863 258.117 121.31 257.799 120.905 257.125" stroke="black" stroke-width="2" stroke-linecap="round"/>
<path d="M125.347 260.086V254.164" stroke="black" stroke-width="2" stroke-linecap="round"/>
<path d="M126.616 260.086L131.269 255.644" stroke="black" stroke-width="2" stroke-linecap="round"/>
<rect x="8.5" y="11.5" width="59" height="29" rx="14.5" fill="white" stroke="#FFD963"/>
<mask id="path-137-outside-1_347_44" maskUnits="userSpaceOnUse" x="23" y="16" width="15" height="21" fill="black">
<rect fill="white" x="23" y="16" width="15" height="21"/>
<path d="M33.9688 22.5078C33.8047 20.9375 32.4219 20.0234 30.4766 20.0234C28.3906 20.0234 27.0781 21.0781 27.0781 22.5312C27.0781 24.1484 28.8359 24.7578 30.1719 25.0859L31.8125 25.5312C33.9922 26.0469 36.6875 27.2422 36.7109 30.3125C36.6875 33.1719 34.4141 35.2812 30.4062 35.2812C26.6094 35.2812 24.2188 33.3828 24.0547 30.2891H26.6328C26.7969 32.1406 28.4141 33.0312 30.4062 33.0312C32.5625 33.0312 34.1328 31.9297 34.1562 30.2656C34.1328 28.7891 32.75 28.1797 30.9453 27.7109L28.9297 27.1719C26.2109 26.4219 24.5 25.0391 24.5 22.6719C24.5 19.7422 27.125 17.7969 30.5469 17.7969C33.9922 17.7969 36.4062 19.7656 36.4766 22.5078H33.9688Z"/>
</mask>
<path d="M33.9688 22.5078C33.8047 20.9375 32.4219 20.0234 30.4766 20.0234C28.3906 20.0234 27.0781 21.0781 27.0781 22.5312C27.0781 24.1484 28.8359 24.7578 30.1719 25.0859L31.8125 25.5312C33.9922 26.0469 36.6875 27.2422 36.7109 30.3125C36.6875 33.1719 34.4141 35.2812 30.4062 35.2812C26.6094 35.2812 24.2188 33.3828 24.0547 30.2891H26.6328C26.7969 32.1406 28.4141 33.0312 30.4062 33.0312C32.5625 33.0312 34.1328 31.9297 34.1562 30.2656C34.1328 28.7891 32.75 28.1797 30.9453 27.7109L28.9297 27.1719C26.2109 26.4219 24.5 25.0391 24.5 22.6719C24.5 19.7422 27.125 17.7969 30.5469 17.7969C33.9922 17.7969 36.4062 19.7656 36.4766 22.5078H33.9688Z" fill="#FFEFBD"/>
<path d="M33.9688 22.5078L32.9742 22.6117L33.0678 23.5078H33.9688V22.5078ZM30.1719 25.0859L30.4338 24.1209L30.4221 24.1177L30.4104 24.1148L30.1719 25.0859ZM31.8125 25.5312L31.5505 26.4963L31.5664 26.5006L31.5823 26.5044L31.8125 25.5312ZM36.7109 30.3125L37.7109 30.3207L37.711 30.3128L37.7109 30.3049L36.7109 30.3125ZM24.0547 30.2891V29.2891H23.0003L23.0561 30.342L24.0547 30.2891ZM26.6328 30.2891L27.6289 30.2008L27.5481 29.2891H26.6328V30.2891ZM34.1562 30.2656L35.1562 30.2797L35.1564 30.2647L35.1561 30.2498L34.1562 30.2656ZM30.9453 27.7109L30.6869 28.677L30.6939 28.6788L30.9453 27.7109ZM28.9297 27.1719L28.6638 28.1359L28.6713 28.1379L28.9297 27.1719ZM36.4766 22.5078V23.5078H37.5025L37.4762 22.4822L36.4766 22.5078ZM33.9688 22.5078L34.9633 22.4039C34.8503 21.322 34.3036 20.4427 33.4625 19.8564C32.6433 19.2853 31.5956 19.0234 30.4766 19.0234V20.0234V21.0234C31.3028 21.0234 31.9192 21.2186 32.3188 21.4971C32.6964 21.7604 32.9231 22.1233 32.9742 22.6117L33.9688 22.5078ZM30.4766 20.0234V19.0234C29.2749 19.0234 28.1963 19.3265 27.3919 19.9348C26.5682 20.5577 26.0781 21.4729 26.0781 22.5312H27.0781H28.0781C28.0781 22.1365 28.2443 21.7978 28.5983 21.53C28.9717 21.2477 29.5923 21.0234 30.4766 21.0234V20.0234ZM27.0781 22.5312H26.0781C26.0781 23.7816 26.7879 24.6145 27.5778 25.1296C28.3344 25.623 29.2484 25.8888 29.9334 26.0571L30.1719 25.0859L30.4104 24.1148C29.7594 23.9549 29.1266 23.752 28.6703 23.4544C28.2472 23.1785 28.0781 22.8981 28.0781 22.5312H27.0781ZM30.1719 25.0859L29.9099 26.051L31.5505 26.4963L31.8125 25.5312L32.0745 24.5662L30.4338 24.1209L30.1719 25.0859ZM31.8125 25.5312L31.5823 26.5044C32.6139 26.7484 33.6691 27.1336 34.4518 27.7497C35.1958 28.3352 35.7019 29.1292 35.711 30.3201L36.7109 30.3125L37.7109 30.3049C37.6966 28.4255 36.8432 27.0867 35.6888 26.1781C34.5731 25.3 33.1908 24.8297 32.0427 24.5581L31.8125 25.5312ZM36.7109 30.3125L35.711 30.3043C35.7016 31.452 35.2503 32.4097 34.4163 33.0978C33.5669 33.7987 32.2417 34.2812 30.4062 34.2812V35.2812V36.2812C32.5786 36.2812 34.394 35.7091 35.6892 34.6405C36.9997 33.5591 37.6969 32.0324 37.7109 30.3207L36.7109 30.3125ZM30.4062 35.2812V34.2812C28.6655 34.2812 27.3574 33.8458 26.4872 33.1599C25.6368 32.4897 25.1212 31.5171 25.0533 30.2361L24.0547 30.2891L23.0561 30.342C23.1522 32.1548 23.914 33.6783 25.2491 34.7307C26.5645 35.7674 28.3501 36.2812 30.4062 36.2812V35.2812ZM24.0547 30.2891V31.2891H26.6328V30.2891V29.2891H24.0547V30.2891ZM26.6328 30.2891L25.6367 30.3773C25.7462 31.6125 26.359 32.5664 27.2751 33.1838C28.1605 33.7804 29.2755 34.0312 30.4062 34.0312V33.0312V32.0312C29.5448 32.0312 28.8551 31.8368 28.3928 31.5252C27.9613 31.2344 27.6835 30.8172 27.6289 30.2008L26.6328 30.2891ZM30.4062 33.0312V34.0312C31.6439 34.0312 32.7955 33.7163 33.669 33.0814C34.5622 32.4321 35.1395 31.4584 35.1562 30.2797L34.1562 30.2656L33.1563 30.2515C33.1495 30.7369 32.93 31.146 32.4931 31.4636C32.0365 31.7955 31.3248 32.0312 30.4062 32.0312V33.0312ZM34.1562 30.2656L35.1561 30.2498C35.1383 29.1265 34.5713 28.3277 33.786 27.7868C33.0567 27.2845 32.1114 26.9806 31.1967 26.7431L30.9453 27.7109L30.6939 28.6788C31.5839 28.91 32.2323 29.1452 32.6515 29.4339C33.0146 29.684 33.1508 29.9282 33.1564 30.2815L34.1562 30.2656ZM30.9453 27.7109L31.2037 26.7449L29.188 26.2058L28.9297 27.1719L28.6713 28.1379L30.687 28.677L30.9453 27.7109ZM28.9297 27.1719L29.1956 26.2079C27.9203 25.8561 26.9888 25.3827 26.3871 24.8062C25.8155 24.2587 25.5 23.5816 25.5 22.6719H24.5H23.5C23.5 24.1293 24.0399 25.3273 25.0035 26.2504C25.937 27.1447 27.2203 27.7377 28.6638 28.1359L28.9297 27.1719ZM24.5 22.6719H25.5C25.5 20.5049 27.4402 18.7969 30.5469 18.7969V17.7969V16.7969C26.8098 16.7969 23.5 18.9795 23.5 22.6719H24.5ZM30.5469 17.7969V18.7969C33.6402 18.7969 35.4249 20.5055 35.4769 22.5334L36.4766 22.5078L37.4762 22.4822C37.3876 19.0258 34.3442 16.7969 30.5469 16.7969V17.7969ZM36.4766 22.5078V21.5078H33.9688V22.5078V23.5078H36.4766V22.5078Z" fill="#FFD963" mask="url(#path-137-outside-1_347_44)"/>
<mask id="path-139-outside-2_347_44" maskUnits="userSpaceOnUse" x="38" y="17" width="17" height="19" fill="black">
<rect fill="white" x="38" y="17" width="17" height="19"/>
<path d="M39.7344 35V18.0312H45.7812C49.7188 18.0312 51.6641 20.2344 51.6641 23.3516C51.6641 25.6367 50.6328 27.3711 48.5703 28.1328L52.3203 35H49.3906L45.9453 28.6016H45.7812H42.3125V35H39.7344ZM42.3125 26.375H45.5234C48.0312 26.375 49.0625 25.2734 49.0625 23.3516C49.0625 21.4297 48.0312 20.2344 45.5234 20.2344H42.3125V26.375Z"/>
</mask>
<path d="M39.7344 35V18.0312H45.7812C49.7188 18.0312 51.6641 20.2344 51.6641 23.3516C51.6641 25.6367 50.6328 27.3711 48.5703 28.1328L52.3203 35H49.3906L45.9453 28.6016H45.7812H42.3125V35H39.7344ZM42.3125 26.375H45.5234C48.0312 26.375 49.0625 25.2734 49.0625 23.3516C49.0625 21.4297 48.0312 20.2344 45.5234 20.2344H42.3125V26.375Z" fill="#FFEFBD"/>
<path d="M39.7344 35H38.7344V36H39.7344V35ZM39.7344 18.0312V17.0312H38.7344V18.0312H39.7344ZM48.5703 28.1328L48.2239 27.1947L47.1377 27.5959L47.6926 28.6121L48.5703 28.1328ZM52.3203 35V36H54.0058L53.198 34.5207L52.3203 35ZM49.3906 35L48.5102 35.4741L48.7933 36H49.3906V35ZM45.9453 28.6016L46.8258 28.1275L46.5426 27.6016H45.9453V28.6016ZM42.3125 28.6016V27.6016H41.3125V28.6016H42.3125ZM42.3125 35V36H43.3125V35H42.3125ZM42.3125 26.375H41.3125V27.375H42.3125V26.375ZM42.3125 20.2344V19.2344H41.3125V20.2344H42.3125ZM39.7344 35H40.7344V18.0312H39.7344H38.7344V35H39.7344ZM39.7344 18.0312V19.0312H45.7812V18.0312V17.0312H39.7344V18.0312ZM45.7812 18.0312V19.0312C47.5663 19.0312 48.7617 19.5279 49.5063 20.2435C50.2478 20.9561 50.6641 22.0027 50.6641 23.3516H51.6641H52.6641C52.6641 21.5832 52.1077 19.9697 50.8922 18.8015C49.6797 17.6362 47.9337 17.0312 45.7812 17.0312V18.0312ZM51.6641 23.3516H50.6641C50.6641 24.3453 50.4403 25.1552 50.0457 25.7786C49.6561 26.394 49.0648 26.8842 48.2239 27.1947L48.5703 28.1328L48.9168 29.0709C50.1383 28.6197 51.0939 27.8619 51.7355 26.8484C52.3722 25.8428 52.6641 24.643 52.6641 23.3516H51.6641ZM48.5703 28.1328L47.6926 28.6121L51.4426 35.4793L52.3203 35L53.198 34.5207L49.448 27.6535L48.5703 28.1328ZM52.3203 35V34H49.3906V35V36H52.3203V35ZM49.3906 35L50.2711 34.5259L46.8258 28.1275L45.9453 28.6016L45.0648 29.0757L48.5102 35.4741L49.3906 35ZM45.9453 28.6016V27.6016H45.7812V28.6016V29.6016H45.9453V28.6016ZM45.7812 28.6016V27.6016H42.3125V28.6016V29.6016H45.7812V28.6016ZM42.3125 28.6016H41.3125V35H42.3125H43.3125V28.6016H42.3125ZM42.3125 35V34H39.7344V35V36H42.3125V35ZM42.3125 26.375V27.375H45.5234V26.375V25.375H42.3125V26.375ZM45.5234 26.375V27.375C46.901 27.375 48.0735 27.0754 48.9034 26.3263C49.7541 25.5586 50.0625 24.4864 50.0625 23.3516H49.0625H48.0625C48.0625 24.1386 47.8553 24.5781 47.5634 24.8416C47.2507 25.1238 46.6537 25.375 45.5234 25.375V26.375ZM49.0625 23.3516H50.0625C50.0625 22.218 49.7553 21.1334 48.9197 20.3449C48.0946 19.5664 46.9201 19.2344 45.5234 19.2344V20.2344V21.2344C46.6346 21.2344 47.2296 21.5 47.5471 21.7996C47.8541 22.0892 48.0625 22.5632 48.0625 23.3516H49.0625ZM45.5234 20.2344V19.2344H42.3125V20.2344V21.2344H45.5234V20.2344ZM42.3125 20.2344H41.3125V26.375H42.3125H43.3125V20.2344H42.3125Z" fill="#FFD963" mask="url(#path-139-outside-2_347_44)"/>
<defs>
<linearGradient id="paint0_linear_347_44" x1="0" y1="0" x2="220" y2="300" gradientUnits="userSpaceOnUse">
<stop stop-color="#2164A8"/>
<stop offset="0.462982" stop-color="#6AB1DD"/>
<stop offset="1" stop-color="#6AB1DD" stop-opacity="0.87"/>
</linearGradient>
</defs>
</svg>
