<svg width="69" height="67" viewBox="0 0 69 67" fill="none" xmlns="http://www.w3.org/2000/svg">
<path d="M62.2061 0.900733C63.5798 -0.340302 65.7003 -0.29886 67.0244 1.02476C68.3485 2.34881 68.3906 4.47015 67.1494 5.84409L67.0244 5.97495L59.8008 13.1986V61.9007C59.8005 64.3857 57.7857 66.4005 55.3008 66.4007H4.5C2.01487 66.4007 0.000249448 64.3858 0 61.9007V11.1C0 8.61467 2.01472 6.59995 4.5 6.59995H55.3008C55.6693 6.59999 56.0273 6.64525 56.3701 6.72886L62.0752 1.02476L62.2061 0.900733ZM7 59.4007H52.8008V20.1986L32.375 40.6253C31.0082 41.9922 28.7916 41.9921 27.4248 40.6253C26.058 39.2585 26.058 37.042 27.4248 35.6751L49.5 13.6H7V59.4007Z" fill="#E2BE4C"/>
</svg>
