<svg width="9" height="11" viewBox="0 0 9 11" fill="none" xmlns="http://www.w3.org/2000/svg">
<g clip-path="url(#clip0_72_169)">
<path d="M8.71676 3.75111C8.65301 3.80039 7.52006 4.42673 7.52006 5.84133C7.52006 7.47408 8.95752 8.05119 9 8.06527C8.99292 8.10751 8.7734 8.85348 8.24231 9.62764C7.77499 10.3033 7.27223 10.9859 6.52164 10.9859C5.77106 10.9859 5.57277 10.5426 4.70889 10.5426C3.85916 10.5426 3.56177 11 2.87489 11C2.18801 11 1.70652 10.3666 1.1542 9.59948C0.516926 8.69163 0 7.29111 0 5.95393C0 3.82149 1.39497 2.68138 2.77577 2.68138C3.50513 2.68138 4.11407 3.15995 4.57435 3.15995C5.0063 3.15995 5.68608 2.65322 6.52164 2.65322C6.84028 2.65322 7.97325 2.68138 8.71676 3.75111ZM4.63102 2.53359C4.57435 2.53359 4.51769 2.52655 4.48229 2.51951C4.47521 2.49135 4.46104 2.40691 4.46104 2.32245C4.46104 1.75241 4.75137 1.18939 5.07003 0.830456C5.46654 0.36597 6.13923 0.02112 6.69158 0C6.70574 0.06336 6.71282 0.140756 6.71282 0.218174C6.71282 0.781198 6.47206 1.3442 6.13217 1.75241C5.76397 2.20282 5.13376 2.53359 4.631 2.53359H4.63102Z" fill="white"/>
</g>
<defs>
<clipPath id="clip0_72_169">
<rect width="9" height="11" fill="white"/>
</clipPath>
</defs>
</svg>
