<svg width="221" height="300" viewBox="0 0 221 300" fill="none" xmlns="http://www.w3.org/2000/svg">
<rect x="1" width="220" height="300" fill="#EEEEEE"/>
<path d="M2.61877 47.2255C4.16217 47.2255 7.11662 44.557 8.32581 43.6613C13.0242 40.1811 17.578 36.2243 21.9046 32.291C25.7584 28.7875 29.7709 25.6568 33.5373 21.9921C36.1553 19.4449 39.2598 17.3967 41.8902 14.8638C46.7157 10.217 51.9086 6.20106 56.5404 1.56921" stroke="#999999" stroke-width="2" stroke-linecap="round"/>
<path d="M4.19312 66.1177C6.10436 66.1177 7.52406 64.0595 8.91618 62.8815C11.8189 60.4254 14.5878 58.0071 17.7719 55.8844C20.6137 53.9899 23.388 51.5567 25.8405 49.1934C28.8406 46.3024 32.1814 42.7799 35.7021 40.5563C42.1799 36.465 48.9534 32.9155 55.3596 28.7268C58.3378 26.7796 62.138 25.2996 64.7183 22.9104C65.7611 21.9449 67.2856 21.468 68.3481 20.4614C69.375 19.4886 70.7298 18.1919 72.0653 17.7063C73.5588 17.1632 74.7793 15.1877 76.2198 14.3827C77.9202 13.4325 79.4119 11.8125 80.9429 10.6217C83.4089 8.70375 86.2048 7.38602 88.4211 5.28641C89.6907 4.08363 91.6524 2.70864 93.1441 1.96277" stroke="#999999" stroke-width="2" stroke-linecap="round"/>
<path d="M3.79956 95.6369C4.37203 95.5097 4.65699 94.8421 5.02406 94.4343C6.31835 92.9962 8.00627 92.036 9.52846 90.8701C14.8295 86.8098 20.4355 83.1373 26.0373 79.4998C31.9023 75.6913 37.8279 71.9747 43.6395 68.0857C49.9162 63.8855 55.744 59.0738 61.9632 54.7911C77.194 44.3028 90.9515 32.0216 105.914 21.2486C111.713 17.073 117.387 12.559 122.882 8.06343C124.673 6.59819 126.844 5.46669 128.655 4.01821C129.527 3.32058 131.189 2.62358 131.716 1.56921" stroke="#999999" stroke-width="2" stroke-linecap="round"/>
<path d="M4.58667 134.602C5.41922 134.602 5.93742 133.948 6.55461 133.4C8.22238 131.917 9.91379 130.572 11.7587 129.311C18.3587 124.799 24.425 119.478 31.1539 115.141C38.6146 110.333 45.5886 104.846 53.1293 100.141C56.298 98.1642 59.3069 95.938 62.2693 93.6689C65.5162 91.1819 69.0704 89.19 72.262 86.6062C74.9879 84.3996 78.0903 82.6395 80.9429 80.593C85.0151 77.6717 88.6344 74.0495 92.3569 70.7096C98.7115 65.0083 105.452 59.5605 112.015 54.0914C114.296 52.19 116.209 49.8482 118.509 47.9252C120.609 46.1684 122.74 44.2999 124.719 42.415C128.418 38.8914 132.398 35.6334 136.242 32.291C141.09 28.0755 146.46 24.1499 151.701 20.4615C153.718 19.042 155.304 16.9241 157.518 15.7165C158.848 14.9909 160.513 13.4681 161.629 12.4148C163.666 10.4906 165.764 8.65158 167.838 6.99198C169.402 5.74106 170.759 4.1414 172.255 3.14355" stroke="#999999" stroke-width="2" stroke-linecap="round"/>
<path d="M3.79956 160.579C4.63153 160.475 5.99372 159.157 6.55468 158.611C9.5511 155.696 12.6712 153.27 16.0008 150.739C24.2126 144.498 32.2057 137.764 40.8844 132.153C48.5723 127.183 55.5884 121.378 63.144 116.278C69.9453 111.687 76.6419 106.565 82.8234 101.147C96.0216 89.5782 110.045 78.9019 123.538 67.692C126.275 65.418 128.751 62.9612 131.41 60.6074C133.946 58.3619 136.771 56.2517 139.194 53.9164C143.48 49.7862 147.83 45.4208 152.489 41.7152C158.493 36.9388 164.736 32.3985 170.856 27.8521C173.679 25.7553 176.723 23.9841 179.34 21.6421C180.279 20.8019 181.648 20.481 182.576 19.5867C183.576 18.6243 184.582 17.7101 185.725 16.9191C189.165 14.5374 191.901 10.67 195.477 8.56624C198.048 7.05412 199.816 4.123 202.562 2.74988" stroke="#999999" stroke-width="2" stroke-linecap="round"/>
<path d="M4.58667 189.705C4.72108 189.1 6.08098 187.942 6.57648 187.54C8.3669 186.085 10.1689 184.899 12.0649 183.582C20.2801 177.877 28.5132 172.399 37.0359 167.183C54.805 156.306 72.2663 145.037 89.3394 133.115C103.362 123.324 116.582 112.178 129.354 100.841C139.019 92.2625 149.29 84.4588 159.267 76.2636C166.579 70.2573 174.015 64.5442 181.395 58.6396C187.753 53.5538 194.314 49.0906 200.987 44.4704C203.74 42.5646 206.473 40.6376 209.231 38.7415C211.148 37.4235 212.746 35.5112 214.763 34.3245C216.251 33.4492 219.138 31.39 219.88 29.9076" stroke="#999999" stroke-width="2" stroke-linecap="round"/>
<path d="M4.19312 225.915C4.26941 225.304 8.11175 223.124 8.76312 222.569C12.606 219.296 17.6704 217.309 22.0577 214.916C29.4445 210.887 36.5552 206.833 43.2896 201.731C48.6274 197.687 53.6947 193.218 59.1206 189.311C64.0039 185.795 69.1489 182.822 74.23 179.646C78.5188 176.966 83.0969 174.087 87.6339 171.818C92.9034 169.183 98.599 166.044 103.377 162.569C104.514 161.742 105.871 161.443 107.007 160.579C108.226 159.652 109.529 158.751 110.878 158.021C113.658 156.515 116.341 154.92 118.924 153.123C124.226 149.434 130.375 146.906 135.63 143.042C141.027 139.074 146.988 136.078 152.663 132.547C155.461 130.806 158.09 128.751 160.754 126.818C163.798 124.608 167.056 122.798 169.981 120.433C172.624 118.296 175.558 116.609 178.159 114.442C180.986 112.086 183.602 109.491 186.425 107.138C191.36 103.026 196.191 98.5593 200.812 94.0625C204.683 90.2966 208.948 86.6702 212.489 82.7359C213.383 81.7428 215.089 81.1205 215.856 79.8933C216.445 78.9515 218.459 77.2584 219.486 76.7446" stroke="#999999" stroke-width="2" stroke-linecap="round"/>
<path d="M4.19312 254.647C4.95711 254.57 5.47349 254.063 6.05173 253.597C8.31889 251.769 10.9177 250.403 13.508 249.093C17.8725 246.885 22.3866 244.73 26.9338 242.926C36.4476 239.154 45.986 235.089 54.966 230.157C71.9436 220.831 90.5492 214.794 106.526 203.699C111.524 200.228 117.302 197.283 122.685 194.449C128.421 191.431 134.191 188.664 139.981 185.769C144.52 183.499 149.238 181.684 153.757 179.384C158.951 176.739 163.975 173.934 169.129 171.206C176.945 167.068 184.329 162.151 192.132 158.021C196.471 155.723 200.869 152.79 205.404 151.045C206.823 150.5 209.342 149.408 210.434 148.378C211.223 147.632 213.154 146.264 214.173 146.038C215.257 145.797 215.816 144.731 216.906 144.42C217.587 144.225 219.187 143.073 219.486 142.474" stroke="#999999" stroke-width="2" stroke-linecap="round"/>
<path d="M3.79956 288.102C4.8221 287.981 5.65404 287.004 6.55468 286.527C8.05397 285.734 9.55296 284.925 10.9716 283.991C16.531 280.332 22.712 277.394 28.8143 274.763C37.1831 271.156 45.4262 267.187 53.02 262.125C58.9691 258.159 65.5061 255.084 71.8904 251.892C78.354 248.66 84.4975 244.338 91.1762 241.571C97.5473 238.931 103.842 235.985 110.068 232.999C115.472 230.409 121.066 228.288 126.402 225.521C132.351 222.437 138.236 219.197 144.398 216.556C150.78 213.821 156.653 209.876 162.788 206.629C171.752 201.883 180.355 196.136 189.092 190.973C191.958 189.279 194.588 187.549 197.358 185.769C199.236 184.561 201.535 183.716 203.174 182.226C204.262 181.237 206.14 180.068 207.482 179.471C208.889 178.846 210.164 177.396 211.614 176.629C213.172 175.804 218.146 173.652 218.699 171.993" stroke="#999999" stroke-width="2" stroke-linecap="round"/>
<path d="M52.2109 295.58C52.3771 294.084 55.1172 292.347 56.2343 291.556C59.8623 288.989 63.9841 286.741 67.9545 284.756C78.5168 279.475 89.4202 274.627 99.7477 268.903C106.995 264.887 114.68 261.711 121.789 257.445C125.903 254.977 129.86 252.393 133.771 249.617C137.925 246.67 142.569 244.418 146.847 241.68C150.379 239.42 153.903 236.914 157.693 235.055C161.369 233.251 164.961 231.46 168.538 229.457C171.623 227.73 174.995 225.713 178.247 224.34C183.128 222.279 188.592 219.82 193.028 216.862C196.307 214.676 200.363 211.36 204.049 210.084C207.336 208.946 209.519 205.975 212.708 204.748C213 204.636 215.878 203.02 215.922 202.868C216.218 201.831 217.858 202.014 218.305 201.119" stroke="#999999" stroke-width="2" stroke-linecap="round"/>
<path d="M107.313 296.761C107.703 296.712 108.599 295.656 109.063 295.361C110.041 294.739 111.042 294.065 112.124 293.612C115.76 292.09 118.982 289.762 122.576 288.189C129.994 284.944 136.911 280.717 144.092 276.994C150.62 273.609 157.538 269.9 163.597 265.755C169.739 261.552 177.123 259.299 183.473 255.434C187.949 252.709 192.943 250.884 197.27 248.131C200.021 246.38 203.046 244.625 205.907 243.036C210.055 240.731 214.137 238.232 218.305 236.148" stroke="#999999" stroke-width="2" stroke-linecap="round"/>
<path d="M170.288 296.367C171.719 296.208 172.673 294.667 173.83 294.006C175.353 293.135 176.748 291.828 178.159 290.769C181.053 288.599 183.921 286.405 186.818 284.253C191.075 281.092 194.763 277.107 199.107 273.933C200.957 272.581 203.068 270.453 204.705 268.816C206.294 267.227 208.432 265.006 210.434 264.005C211.744 263.35 214.325 261.423 215.069 260.157C215.603 259.25 217.412 258.796 217.912 257.795" stroke="#999999" stroke-width="2" stroke-linecap="round"/>
<path d="M1.83167 263.306C7.09587 267.985 12.6962 272.127 18.7122 276.075C22.9733 278.872 26.7926 282.74 30.5636 286.134C33.8538 289.095 37.5199 291.129 40.9937 293.831C42.1529 294.732 43.1026 295.442 44.0331 296.28C44.9502 297.105 45.9428 298.153 47.0944 298.729" stroke="#999999" stroke-width="2" stroke-linecap="round"/>
<path d="M4.19312 225.127C9.24945 230.184 14.6805 234.828 19.7399 239.887C22.932 243.079 26.3358 246.123 29.3828 249.442C30.6519 250.825 32.3161 252.054 33.756 253.269C35.3432 254.608 36.7393 256.278 38.4572 257.424C41.7129 259.594 44.3606 262.395 47.6628 264.508C49.715 265.822 51.8137 267.899 53.5666 269.603C57.7806 273.7 62.8019 277.335 67.6483 280.623C71.3549 283.139 74.6258 286.086 78.5595 288.298C80.0907 289.16 82.6207 290.494 83.698 291.841C84.5092 292.855 86.5096 293.45 87.5464 294.487C88.6007 295.541 90.6315 297.497 91.9634 297.941" stroke="#999999" stroke-width="2" stroke-linecap="round"/>
<path d="M4.98035 187.343C6.40682 188.611 8.52359 189.91 10.1845 190.885C13.1197 192.609 15.8746 194.507 18.7559 196.308C25.3872 200.453 31.5673 205.159 37.8231 209.865C45.0276 215.285 52.5421 220.46 59.9953 225.521C63.5748 227.952 66.6119 231.047 70.0099 233.699C73.5821 236.487 77.202 239.217 80.7462 242.052C86.1307 246.359 91.7634 250.268 97.255 254.428C101.384 257.556 105.907 260.137 109.981 263.306C113.451 266.005 117.154 268.287 120.695 270.871C122.58 272.246 124.5 273.867 126.599 274.916C129.274 276.254 131.64 278.199 134.274 279.618C137.37 281.284 140.749 282.735 143.917 284.319C145.25 284.985 146.67 285.521 148.05 286.134C149.504 286.78 150.587 287.865 152.095 288.408C155.028 289.464 157.673 291.948 160.667 292.803C162.601 293.356 165.069 295.58 167.139 295.58" stroke="#999999" stroke-width="2" stroke-linecap="round"/>
<path d="M6.55469 162.153C7.08603 162.22 8.29594 162.858 8.76316 163.181C11.1389 164.826 13.9026 166.269 16.4381 167.664C28.4032 174.244 40.8409 179.952 52.9763 186.184C64.7737 192.242 76.1698 199.038 88.0275 204.967C97.3295 209.618 107.165 213.92 116.06 219.311C123.482 223.81 131.209 228.016 138.8 232.234C144.57 235.439 149.808 239.783 155.331 243.408C164.703 249.558 174.181 255.882 183.276 262.497C189.903 267.316 197.679 270.311 204.705 274.326C207.228 275.768 209.821 276.808 212.402 278.174C214.41 279.238 216.725 281.804 219.093 281.804" stroke="#999999" stroke-width="2" stroke-linecap="round"/>
<path d="M6.55469 136.57C8.81166 136.635 10.7079 137.562 12.8521 138.144C16.2042 139.054 19.5884 140.061 22.8667 141.206C34.5362 145.281 46.011 149.768 57.3276 154.763C69.0167 159.922 80.5208 165.523 91.9634 171.206C96.8461 173.631 101.869 175.765 106.745 178.203C110.744 180.202 114.511 182.623 118.531 184.588C125.334 187.914 132.029 191.435 138.8 194.821C144.726 197.784 151.073 200.276 156.796 203.546C163.607 207.438 171.339 210.993 178.64 213.801C181.333 214.836 183.698 216.687 186.425 217.649C188.49 218.378 190.938 219.662 192.81 220.798C196.411 222.984 200.316 224.492 203.939 226.505C205.689 227.477 209.169 228.073 210.434 229.654C211 230.362 212.99 230.242 213.779 230.856C214.578 231.478 216.319 231.781 216.731 232.606" stroke="#999999" stroke-width="2" stroke-linecap="round"/>
<path d="M4.19312 99.5728C5.36916 99.6904 6.43165 100.593 7.42929 101.147C10.1366 102.651 13.144 103.952 16.0226 105.083C25.3837 108.761 34.643 112.759 43.9893 116.497C65.3094 125.025 87.3452 131.695 108.494 140.703C117.03 144.339 125.856 147.315 134.471 150.761C139.193 152.65 143.79 154.845 148.553 156.643C150.894 157.527 153.591 158.501 155.725 159.814C157.596 160.966 159.683 161.548 161.629 162.547C163.421 163.467 165.07 164.714 166.942 165.477C169.344 166.455 171.414 167.959 173.83 168.932C175.619 169.653 177.713 170.564 179.34 171.599C183.067 173.971 187.586 175.438 191.541 177.416C195.017 179.154 198.689 180.666 202.168 182.314C205.397 183.843 208.785 185.289 211.833 186.643C213.545 187.404 215.887 188.917 217.912 188.917" stroke="#999999" stroke-width="2" stroke-linecap="round"/>
<path d="M4.98035 66.9049C6.01062 66.9049 7.68691 68.1493 8.61011 68.6542C11.9356 70.4728 15.3627 71.8986 18.8871 73.2898C27.5451 76.7074 36.1296 80.3626 44.9296 83.4356C63.4196 89.8925 81.6691 96.8744 99.9664 103.815C107.978 106.854 115.943 110.21 123.844 113.523C132.223 117.037 140.798 120.132 149.012 123.997C153.976 126.333 159.116 128.468 164.231 130.469C168.391 132.097 172.211 134.397 176.279 136.264C182.112 138.942 187.701 142.15 193.466 145.032C197.082 146.84 200.913 149.493 204.617 150.827C206.236 151.41 207.948 152.901 209.646 153.101C209.965 153.138 212.93 154.548 213.189 154.872C214.307 156.27 219.702 157.43 217.912 157.43" stroke="#999999" stroke-width="2" stroke-linecap="round"/>
<path d="M4.58667 27.9396C5.90184 28.0857 8.0941 29.2573 9.30973 29.8201C12.248 31.1804 15.3251 32.4139 18.3623 33.5373C26.2977 36.4723 34.3473 39.0406 42.3712 41.7152C54.252 45.6755 66.5838 48.7953 78.1877 53.5228C87.6267 57.3683 97.3265 60.8823 106.92 64.3465C113.133 66.59 119.095 69.4142 125.397 71.453C131.358 73.3817 137.465 75.947 143.13 78.625C144.947 79.4843 146.986 79.6231 148.728 80.6805C150.876 81.9848 153.412 82.7398 155.747 83.6324C160.591 85.4845 165.783 87.1738 170.462 89.4269C174.607 91.4225 179.076 93.1742 183.363 94.7622C186.704 95.9993 189.737 98.0749 193.116 99.201C195.368 99.9517 197.684 101.179 199.807 102.24C201.402 103.038 203.418 104.683 205.12 105.061C206.311 105.326 207.57 106.247 208.662 106.854C209.967 107.579 211.615 108.232 212.708 109.106C213.689 109.892 214.792 110.223 215.747 110.987C216.49 111.581 218.395 112.955 219.092 112.955" stroke="#999999" stroke-width="2" stroke-linecap="round"/>
<path d="M38.0417 1.56921C38.7678 1.56921 39.4493 1.90125 40.0972 2.22519C42.4146 3.38391 44.4491 4.52862 46.9194 5.35204C53.8919 7.67622 60.6181 11.0983 67.5828 13.5518C80.6703 18.1622 94.2941 22.0178 107.794 25.1845C118.601 27.7194 128.838 32.14 139.588 34.8275C144.511 36.0582 149.362 37.9061 154.238 39.3537C159.47 40.9071 164.954 42.3336 169.981 44.4704C173.86 46.1186 178.108 47.4488 182.095 48.778C185.823 50.0207 189.542 51.7739 193.312 52.7576C197.004 53.7205 200.847 56.632 204.53 57.0652C205.79 57.2134 206.776 58.2973 207.897 58.6177C209.145 58.9742 210.321 59.1812 211.439 59.8203C212.177 60.242 213.593 60.9554 214.369 61.0011C215.579 61.0722 216.571 62.1819 217.912 62.1819" stroke="#999999" stroke-width="2" stroke-linecap="round"/>
<path d="M149.034 1.17554C151.281 1.17554 154.447 3.65587 156.512 4.71783C158.35 5.66321 160.211 6.30274 162.11 7.07937C163.647 7.70832 165.897 8.95112 167.532 9.04731C172.342 9.33023 178.079 12.243 182.489 13.9016C186.64 15.4629 190.969 16.4618 195.149 17.9249C197.57 18.7721 199.952 19.947 202.365 20.4832C204.366 20.928 207.415 22.1154 209.056 23.3914C209.655 23.857 211.169 23.6432 211.614 24.2005C211.828 24.4676 213.066 25.0651 213.407 25.1626C214.933 25.5985 216.664 27.1524 218.305 27.1524" stroke="#999999" stroke-width="2" stroke-linecap="round"/>
<path d="M58.6443 71.7566C55.861 82.1937 55.118 93.9959 55.0879 104.825C55.2217 105.786 55.5365 106.687 56.2162 107.443C57.8579 109.267 61.0823 108.957 62.5968 107.443C66.2523 103.787 65.7589 98.7058 65.7589 93.8345C65.7589 86.9483 64.6273 79.1754 67.5375 72.773C68.8862 69.806 70.5537 67.0383 71.8571 64.1056C72.8169 61.9461 74.7635 58.5097 76.939 57.358C79.2225 56.1491 81.0003 53.9154 83.5454 52.7843C86.9793 51.2581 90.4963 49.7773 93.9805 48.3103L94.2173 48.2106C96.9129 47.0756 99.5848 45.8207 102.461 44.9356C105.016 44.1496 108.035 44.5404 110.705 44.5404C116.625 44.5404 123.236 45.2297 128.887 46.9684C130.786 47.5528 132.93 47.1498 134.872 47.8436C136.835 48.5445 138.9 48.6247 140.858 49.227C143.523 50.047 146.395 50.8466 148.819 52.389C154.716 56.1416 161.02 59.5077 166.126 64.6137C168.526 67.0141 170.689 69.573 172.76 72.2365C174.968 75.0743 175.517 78.4397 176.939 81.638C178.001 84.0275 177.56 87.0763 177.56 89.769C177.56 92.5668 177.927 95.6391 177.532 98.4082C176.559 105.216 173.963 111.224 169.937 116.816C167.974 119.542 165.728 121.3 162.823 122.914C160.727 124.078 157.605 126.599 155.2 126.867C152.367 127.181 149.932 130.123 147.069 130.424C145.604 130.578 143.676 131.437 142.269 131.949C139.902 132.809 137.103 133.071 134.59 133.473C131.689 133.937 127.92 134.813 125.217 136.014C123.473 136.789 120.891 136.837 119.344 137.821C116.377 139.709 110.714 140.066 108.842 143.129C107.53 145.275 104.994 147.727 104.889 150.356C104.783 153.018 103.436 156.751 102.602 159.419C101.352 163.422 100.686 167.68 100.287 171.869C99.8296 176.676 98.2828 181.194 98.2828 186.07C98.2828 190.172 97.7746 194.342 97.7746 198.521C97.7746 203.322 97.6131 208.825 98.6781 213.484C99.3211 216.297 99.2911 220.139 101.445 222.293C103.504 224.352 106.062 226.494 107.543 229.012C108.917 231.348 111.966 230.709 113.133 228.504C114.321 226.261 114.545 223.991 114.545 221.389C114.545 212.405 112.747 203.677 112.032 194.738C111.058 182.567 109.729 167.597 113.924 155.946C114.763 153.615 119.498 150.098 121.772 149.34C125.648 148.048 129.451 146.642 133.376 145.415C142.412 142.592 151.786 140.668 160.677 137.03C166.148 134.792 171.278 131.206 176.035 127.77C181.77 123.628 184.686 118.599 187.724 112.355C190.265 107.132 190.265 101.966 190.265 96.2726V96.2625C190.265 91.8914 191.139 85.8226 189.022 81.8921C187.111 78.3418 186.879 72.7183 183.884 69.7238C181.932 67.7714 180.811 65.3769 179.197 63.1174C177.857 61.241 176.343 59.5224 175.019 57.6403C173.75 55.8368 171.29 53.5261 169.429 52.389C168.23 51.6562 166.962 50.5513 165.9 49.6222C165.142 48.9588 163.92 48.7286 163.331 47.9847C161.111 45.1811 155.254 42.7955 151.897 41.7736C145.547 39.8412 138.786 36.9346 132.077 36.4376C124.732 35.8935 117.578 35.8365 110.225 36.3811C106.322 36.6703 102.612 36.2723 98.791 37.4257C95.6533 38.373 92.182 38.0737 89.1355 39.4585C83.7192 41.9204 78.0214 42.101 73.4946 46.4602C69.7138 50.101 66.9171 53.4474 64.2343 57.8662C61.6612 62.1043 59.9097 67.0113 58.6443 71.7566Z" fill="#FECB3B"/>
<path d="M55.0869 105.523C55.0869 94.5049 55.8011 82.4185 58.6443 71.7566C59.9097 67.0113 61.6612 62.1043 64.2343 57.8662C66.9171 53.4474 69.7138 50.101 73.4946 46.4602C78.0214 42.101 83.7192 41.9204 89.1355 39.4585C92.182 38.0737 95.6533 38.373 98.791 37.4257C102.612 36.2723 106.322 36.6703 110.225 36.3811C117.578 35.8365 124.732 35.8935 132.077 36.4376C138.786 36.9346 145.547 39.8412 151.897 41.7736C155.254 42.7955 161.111 45.1811 163.331 47.9847C163.92 48.7286 165.142 48.9588 165.9 49.6222C166.962 50.5513 168.23 51.6562 169.429 52.389C171.29 53.5261 173.75 55.8368 175.019 57.6403C176.343 59.5224 177.857 61.241 179.197 63.1174C180.811 65.3769 181.932 67.7714 183.884 69.7238C186.879 72.7183 187.111 78.3418 189.022 81.8921C191.139 85.8226 190.265 91.8914 190.265 96.2625C190.265 101.959 190.266 107.129 187.724 112.355C184.686 118.599 181.77 123.628 176.035 127.77C171.278 131.206 166.148 134.792 160.677 137.03C151.786 140.668 142.412 142.592 133.376 145.415C129.451 146.642 125.648 148.048 121.772 149.34C119.498 150.098 114.763 153.615 113.924 155.946C109.729 167.597 111.058 182.567 112.032 194.738C112.747 203.677 114.545 212.405 114.545 221.389C114.545 223.991 114.321 226.261 113.133 228.504C111.966 230.709 108.917 231.348 107.543 229.012C106.062 226.494 103.504 224.352 101.445 222.293C99.2911 220.139 99.3211 216.297 98.6781 213.484C97.6131 208.825 97.7746 203.322 97.7746 198.521C97.7746 194.342 98.2828 190.172 98.2828 186.07C98.2828 181.194 99.8296 176.676 100.287 171.869C100.686 167.68 101.352 163.422 102.602 159.419C103.436 156.751 104.783 153.018 104.889 150.356C104.994 147.727 107.53 145.275 108.842 143.129C110.714 140.066 116.377 139.709 119.344 137.821C120.891 136.837 123.473 136.789 125.217 136.014C127.92 134.813 131.689 133.937 134.59 133.473C137.103 133.071 139.902 132.809 142.269 131.949C143.676 131.437 145.604 130.578 147.069 130.424C149.932 130.123 152.367 127.181 155.2 126.867C157.605 126.599 160.727 124.078 162.823 122.914C165.728 121.3 167.974 119.542 169.937 116.816C173.963 111.224 176.559 105.216 177.532 98.4082C177.927 95.6391 177.56 92.5668 177.56 89.769C177.56 87.0763 178.001 84.0275 176.939 81.638C175.517 78.4397 174.968 75.0743 172.76 72.2365C170.689 69.573 168.526 67.0141 166.126 64.6137C161.02 59.5077 154.716 56.1416 148.819 52.389C146.395 50.8466 143.523 50.047 140.858 49.227C138.9 48.6247 136.835 48.5445 134.872 47.8436C132.93 47.1498 130.786 47.5528 128.887 46.9684C123.236 45.2297 116.625 44.5404 110.705 44.5404C108.035 44.5404 105.016 44.1496 102.461 44.9356C99.5848 45.8207 96.9129 47.0756 94.2173 48.2106C90.6557 49.7102 87.0572 51.2235 83.5454 52.7843C81.0003 53.9154 79.2225 56.1491 76.939 57.358C74.7635 58.5097 72.8169 61.9461 71.8571 64.1056C70.5537 67.0383 68.8862 69.806 67.5375 72.773C64.6273 79.1754 65.7589 86.9483 65.7589 93.8345C65.7589 98.7058 66.2523 103.787 62.5968 107.443C61.0823 108.957 57.8579 109.267 56.2162 107.443C54.5342 105.574 55.0869 102.814 55.0869 100.441" stroke="#979797" stroke-width="2" stroke-linecap="round"/>
<path d="M106.63 248.63C106.452 248.986 106.242 249.354 106.048 249.734C106.002 250.479 105.589 251.739 105.239 252.37C104.824 253.117 105.076 254.455 105.076 255.298C105.076 257.095 105.158 259.228 106.865 260.177C108.65 261.168 110.386 261.315 112.394 261.315C113.568 261.315 114.222 260.369 115.141 259.833C115.78 259.461 117.266 258.251 117.454 257.593C117.913 255.985 118.235 252.868 117.508 251.232C116.999 250.087 115.314 247.089 113.858 247.003C113.088 246.958 112.308 246.423 111.581 246.1C110.77 245.74 109.702 246.446 108.979 246.751C107.467 247.387 107.317 247.257 106.63 248.63Z" fill="#FECB3B"/>
<path d="M105.401 251.882C105.401 250.693 106.135 249.62 106.63 248.63C107.317 247.257 107.467 247.387 108.979 246.751C109.702 246.446 110.77 245.74 111.581 246.1C112.308 246.423 113.088 246.958 113.858 247.003C115.314 247.089 116.999 250.087 117.508 251.232C118.235 252.868 117.913 255.985 117.454 257.593C117.266 258.251 115.78 259.461 115.141 259.833C114.222 260.369 113.568 261.315 112.394 261.315C110.386 261.315 108.65 261.168 106.865 260.177C105.158 259.228 105.076 257.095 105.076 255.298C105.076 254.455 104.824 253.117 105.239 252.37C105.61 251.702 106.052 250.325 106.052 249.606" stroke="#979797" stroke-width="2" stroke-linecap="round"/>
</svg>
