<svg width="92" height="23" viewBox="0 0 92 23" fill="none" xmlns="http://www.w3.org/2000/svg">
<mask id="path-1-outside-1_273_46" maskUnits="userSpaceOnUse" x="0" y="0" width="92" height="23" fill="black">
<rect fill="white" width="92" height="23"/>
<path d="M7 19V13H1V10H7V4H13V10H19V13H13V19H7ZM25 22V19H31V7H28V4H31V1H37V19H43V22H25ZM52 22V19H49V16H46V7H49V4H52V1H61V4H64V7H67V16H64V19H61V22H52ZM55 19H61V7H58V4H52V16H55V19ZM76 22V19H73V16H70V7H73V4H76V1H85V4H88V7H91V16H88V19H85V22H76ZM79 19H85V7H82V4H76V16H79V19Z"/>
</mask>
<path d="M7 19V13H1V10H7V4H13V10H19V13H13V19H7ZM25 22V19H31V7H28V4H31V1H37V19H43V22H25ZM52 22V19H49V16H46V7H49V4H52V1H61V4H64V7H67V16H64V19H61V22H52ZM55 19H61V7H58V4H52V16H55V19ZM76 22V19H73V16H70V7H73V4H76V1H85V4H88V7H91V16H88V19H85V22H76ZM79 19H85V7H82V4H76V16H79V19Z" fill="#FFE9A7"/>
<path d="M7 19H6V20H7V19ZM7 13H8V12H7V13ZM1 13H0V14H1V13ZM1 10V9H0V10H1ZM7 10V11H8V10H7ZM7 4V3H6V4H7ZM13 4H14V3H13V4ZM13 10H12V11H13V10ZM19 10H20V9H19V10ZM19 13V14H20V13H19ZM13 13V12H12V13H13ZM13 19V20H14V19H13ZM7 19H8V13H7H6V19H7ZM7 13V12H1V13V14H7V13ZM1 13H2V10H1H0V13H1ZM1 10V11H7V10V9H1V10ZM7 10H8V4H7H6V10H7ZM7 4V5H13V4V3H7V4ZM13 4H12V10H13H14V4H13ZM13 10V11H19V10V9H13V10ZM19 10H18V13H19H20V10H19ZM19 13V12H13V13V14H19V13ZM13 13H12V19H13H14V13H13ZM13 19V18H7V19V20H13V19ZM25 22H24V23H25V22ZM25 19V18H24V19H25ZM31 19V20H32V19H31ZM31 7H32V6H31V7ZM28 7H27V8H28V7ZM28 4V3H27V4H28ZM31 4V5H32V4H31ZM31 1V0H30V1H31ZM37 1H38V0H37V1ZM37 19H36V20H37V19ZM43 19H44V18H43V19ZM43 22V23H44V22H43ZM25 22H26V19H25H24V22H25ZM25 19V20H31V19V18H25V19ZM31 19H32V7H31H30V19H31ZM31 7V6H28V7V8H31V7ZM28 7H29V4H28H27V7H28ZM28 4V5H31V4V3H28V4ZM31 4H32V1H31H30V4H31ZM31 1V2H37V1V0H31V1ZM37 1H36V19H37H38V1H37ZM37 19V20H43V19V18H37V19ZM43 19H42V22H43H44V19H43ZM43 22V21H25V22V23H43V22ZM52 22H51V23H52V22ZM52 19H53V18H52V19ZM49 19H48V20H49V19ZM49 16H50V15H49V16ZM46 16H45V17H46V16ZM46 7V6H45V7H46ZM49 7V8H50V7H49ZM49 4V3H48V4H49ZM52 4V5H53V4H52ZM52 1V0H51V1H52ZM61 1H62V0H61V1ZM61 4H60V5H61V4ZM64 4H65V3H64V4ZM64 7H63V8H64V7ZM67 7H68V6H67V7ZM67 16V17H68V16H67ZM64 16V15H63V16H64ZM64 19V20H65V19H64ZM61 19V18H60V19H61ZM61 22V23H62V22H61ZM55 19H54V20H55V19ZM61 19V20H62V19H61ZM61 7H62V6H61V7ZM58 7H57V8H58V7ZM58 4H59V3H58V4ZM52 4V3H51V4H52ZM52 16H51V17H52V16ZM55 16H56V15H55V16ZM52 22H53V19H52H51V22H52ZM52 19V18H49V19V20H52V19ZM49 19H50V16H49H48V19H49ZM49 16V15H46V16V17H49V16ZM46 16H47V7H46H45V16H46ZM46 7V8H49V7V6H46V7ZM49 7H50V4H49H48V7H49ZM49 4V5H52V4V3H49V4ZM52 4H53V1H52H51V4H52ZM52 1V2H61V1V0H52V1ZM61 1H60V4H61H62V1H61ZM61 4V5H64V4V3H61V4ZM64 4H63V7H64H65V4H64ZM64 7V8H67V7V6H64V7ZM67 7H66V16H67H68V7H67ZM67 16V15H64V16V17H67V16ZM64 16H63V19H64H65V16H64ZM64 19V18H61V19V20H64V19ZM61 19H60V22H61H62V19H61ZM61 22V21H52V22V23H61V22ZM55 19V20H61V19V18H55V19ZM61 19H62V7H61H60V19H61ZM61 7V6H58V7V8H61V7ZM58 7H59V4H58H57V7H58ZM58 4V3H52V4V5H58V4ZM52 4H51V16H52H53V4H52ZM52 16V17H55V16V15H52V16ZM55 16H54V19H55H56V16H55ZM76 22H75V23H76V22ZM76 19H77V18H76V19ZM73 19H72V20H73V19ZM73 16H74V15H73V16ZM70 16H69V17H70V16ZM70 7V6H69V7H70ZM73 7V8H74V7H73ZM73 4V3H72V4H73ZM76 4V5H77V4H76ZM76 1V0H75V1H76ZM85 1H86V0H85V1ZM85 4H84V5H85V4ZM88 4H89V3H88V4ZM88 7H87V8H88V7ZM91 7H92V6H91V7ZM91 16V17H92V16H91ZM88 16V15H87V16H88ZM88 19V20H89V19H88ZM85 19V18H84V19H85ZM85 22V23H86V22H85ZM79 19H78V20H79V19ZM85 19V20H86V19H85ZM85 7H86V6H85V7ZM82 7H81V8H82V7ZM82 4H83V3H82V4ZM76 4V3H75V4H76ZM76 16H75V17H76V16ZM79 16H80V15H79V16ZM76 22H77V19H76H75V22H76ZM76 19V18H73V19V20H76V19ZM73 19H74V16H73H72V19H73ZM73 16V15H70V16V17H73V16ZM70 16H71V7H70H69V16H70ZM70 7V8H73V7V6H70V7ZM73 7H74V4H73H72V7H73ZM73 4V5H76V4V3H73V4ZM76 4H77V1H76H75V4H76ZM76 1V2H85V1V0H76V1ZM85 1H84V4H85H86V1H85ZM85 4V5H88V4V3H85V4ZM88 4H87V7H88H89V4H88ZM88 7V8H91V7V6H88V7ZM91 7H90V16H91H92V7H91ZM91 16V15H88V16V17H91V16ZM88 16H87V19H88H89V16H88ZM88 19V18H85V19V20H88V19ZM85 19H84V22H85H86V19H85ZM85 22V21H76V22V23H85V22ZM79 19V20H85V19V18H79V19ZM85 19H86V7H85H84V19H85ZM85 7V6H82V7V8H85V7ZM82 7H83V4H82H81V7H82ZM82 4V3H76V4V5H82V4ZM76 4H75V16H76H77V4H76ZM76 16V17H79V16V15H76V16ZM79 16H78V19H79H80V16H79Z" fill="black" mask="url(#path-1-outside-1_273_46)"/>
</svg>
