<svg width="445" height="112" viewBox="0 0 445 112" fill="none" xmlns="http://www.w3.org/2000/svg">
<g filter="url(#filter0_d_243_155)">
<rect x="348.577" y="17.1674" width="80" height="80" rx="10" transform="rotate(-5.14017 348.577 17.1674)" fill="white"/>
<path d="M397.349 70.7711C397.391 71.238 397.319 71.5739 397.134 71.7788C396.963 71.9668 396.644 72.0818 396.177 72.1238L391.205 72.5711C390.738 72.6131 390.395 72.5576 390.178 72.4046C389.974 72.2346 389.851 71.9162 389.809 71.4494L387.245 42.9473C387.205 42.496 387.252 42.1466 387.387 41.8992C387.994 40.8091 388.878 39.6393 390.036 38.3899C390.253 38.1821 390.446 38.0706 390.618 38.0552C390.804 38.0384 391.007 38.1142 391.226 38.2828C391.964 38.8125 392.591 39.3288 393.107 39.8314C393.622 40.3186 394.072 40.7957 394.46 41.2629C394.638 41.4979 394.746 41.8333 394.785 42.269L397.349 70.7711Z" fill="#684532"/>
</g>
<g filter="url(#filter1_d_243_155)">
<rect x="267.014" y="21.4091" width="80" height="80" rx="10" transform="rotate(0.019429 267.014 21.4091)" fill="white"/>
<path d="M298.697 80.4198C297.087 80.4193 295.861 80.2157 295.017 79.8092C294.189 79.4027 293.627 78.7384 293.33 77.8164C293.049 76.8945 292.909 75.6678 292.91 74.1366L292.917 53.0897C292.917 51.5272 293.059 50.2929 293.34 49.3867C293.637 48.465 294.2 47.8089 295.028 47.4186C295.872 47.0126 297.099 46.8099 298.708 46.8104L305.903 46.8129C309.263 46.814 312.2 47.315 314.715 48.3159C317.246 49.3167 319.215 51.0127 320.62 53.4038C322.025 55.7793 322.727 59.0451 322.726 63.2014C322.725 67.3576 322.02 70.7012 320.613 73.2319C319.206 75.7471 317.237 77.5745 314.705 78.7143C312.189 79.8541 309.251 80.4234 305.892 80.4222L298.697 80.4198ZM303.159 52.976C302.128 52.9757 301.425 53.1942 301.05 53.6315C300.674 54.0689 300.487 54.8188 300.486 55.8813L300.481 71.3501C300.481 72.397 300.668 73.147 301.043 73.6003C301.418 74.0535 302.121 74.2803 303.152 74.2807L304.23 74.2811C307.574 74.2822 310.16 73.4628 311.989 71.8227C313.833 70.1827 314.756 67.3393 314.757 63.2924C314.758 60.5893 314.337 58.4954 313.494 57.0108C312.666 55.5105 311.463 54.4632 309.885 53.8689C308.307 53.2746 306.409 52.9771 304.19 52.9764L303.159 52.976Z" fill="#684532"/>
</g>
<g filter="url(#filter2_d_243_155)">
<rect x="182.788" y="11.6498" width="80" height="80" rx="10" transform="rotate(1.11811 182.788 11.6498)" fill="white"/>
<path d="M221.43 72.0013C218.181 71.9378 215.366 71.2578 212.984 69.9611C210.603 68.6643 208.773 66.7454 207.494 64.2044C206.231 61.6636 205.636 58.5108 205.709 54.7459C205.826 48.7626 207.374 44.3311 210.352 41.4511C213.331 38.5556 217.43 37.1587 222.648 37.2606C227.537 37.356 231.375 38.8765 234.162 41.8221C236.949 44.752 238.288 49.0446 238.177 54.6998C238.099 58.699 237.371 61.9901 235.992 64.5731C234.614 67.1404 232.686 69.0406 230.208 70.2738C227.731 71.4913 224.805 72.0671 221.43 72.0013ZM221.694 65.6771C224.506 65.732 226.612 64.765 228.01 62.7763C229.408 60.7876 230.139 58.1842 230.202 54.966C230.275 51.2324 229.689 48.4157 228.445 46.5161C227.2 44.6164 225.156 43.6389 222.313 43.5834C216.705 43.4739 213.829 47.1138 213.684 54.503C213.62 57.7993 214.24 60.4759 215.544 62.533C216.863 64.5748 218.914 65.6228 221.694 65.6771Z" fill="#684532"/>
</g>
<g filter="url(#filter3_d_243_155)">
<rect x="96.4617" y="21.9684" width="80" height="80" rx="10" transform="rotate(-0.776399 96.4617 21.9684)" fill="white"/>
<path d="M137.078 81.0094C133.828 81.0534 130.992 80.4668 128.569 79.2495C126.146 78.0322 124.253 76.1749 122.891 73.6775C121.545 71.1799 120.846 68.0484 120.795 64.2832C120.714 58.2993 122.114 53.819 124.996 50.8422C127.878 47.8498 131.928 46.3182 137.146 46.2475C142.036 46.1812 145.923 47.574 148.805 50.4258C151.688 53.262 153.167 57.508 153.244 63.1637C153.298 67.1633 152.679 70.4767 151.386 73.1038C150.093 75.7153 148.229 77.6783 145.794 78.9927C143.358 80.2914 140.453 80.9636 137.078 81.0094ZM137.133 74.6799C139.945 74.6418 142.017 73.6058 143.349 71.572C144.681 69.5381 145.325 66.912 145.282 63.6935C145.231 59.9595 144.552 57.1637 143.246 55.3063C141.939 53.4488 139.864 52.5393 137.021 52.5779C131.412 52.6539 128.658 56.3868 128.758 63.7768C128.802 67.0734 129.51 69.7281 130.881 71.7409C132.268 73.738 134.352 74.7176 137.133 74.6799Z" fill="#684532"/>
</g>
<g filter="url(#filter4_d_243_155)">
<rect x="10" y="13.0221" width="80" height="80" rx="10" transform="rotate(-1.14554 10 13.0221)" fill="white"/>
<path d="M42.8763 71.3765C41.2673 71.4087 40.0369 71.2301 39.1852 70.8408C38.3491 70.4512 37.7734 69.7985 37.4582 68.8828C37.1586 67.9667 36.9935 66.7432 36.9628 65.2122L36.5421 44.1696C36.5108 42.6074 36.6268 41.3704 36.8898 40.4587C37.1682 39.5311 37.7175 38.8638 38.5376 38.4567C39.3731 38.0336 40.5953 37.806 42.2044 37.7738L49.3983 37.63C52.757 37.5628 55.7039 38.004 58.239 38.9535C60.7897 39.9027 62.792 41.5583 64.2457 43.9203C65.6992 46.2668 66.4675 49.5177 66.5506 53.6731C66.6337 57.8285 65.9975 61.1857 64.6422 63.7445C63.2865 66.2877 61.3547 68.1549 58.8467 69.3459C56.3544 70.5366 53.4289 71.1655 50.0702 71.2326L42.8763 71.3765ZM46.7799 43.8476C45.7488 43.8683 45.0502 44.101 44.684 44.5459C44.3179 44.9908 44.1454 45.7444 44.1666 46.8067L44.4759 62.2724C44.4968 63.319 44.6993 64.0651 45.0833 64.5107C45.4672 64.9562 46.1747 65.1687 47.2058 65.1481L48.2837 65.1265C51.6268 65.0597 54.1958 64.1878 55.9908 62.511C57.8013 60.8338 58.6662 57.9722 58.5853 53.9261C58.5312 51.2236 58.0676 49.1387 57.1943 47.6714C56.3364 46.1883 55.1126 45.1657 53.5229 44.6036C51.9332 44.0415 50.0292 43.7827 47.8109 43.827L46.7799 43.8476Z" fill="#684532"/>
</g>
<defs>
<filter id="filter0_d_243_155" x="339.432" y="0.85498" width="105.136" height="105.136" filterUnits="userSpaceOnUse" color-interpolation-filters="sRGB">
<feFlood flood-opacity="0" result="BackgroundImageFix"/>
<feColorMatrix in="SourceAlpha" type="matrix" values="0 0 0 0 0 0 0 0 0 0 0 0 0 0 0 0 0 0 127 0" result="hardAlpha"/>
<feOffset/>
<feGaussianBlur stdDeviation="5"/>
<feComposite in2="hardAlpha" operator="out"/>
<feColorMatrix type="matrix" values="0 0 0 0 0 0 0 0 0 0 0 0 0 0 0 0 0 0 0.5 0"/>
<feBlend mode="normal" in2="BackgroundImageFix" result="effect1_dropShadow_243_155"/>
<feBlend mode="normal" in="SourceGraphic" in2="effect1_dropShadow_243_155" result="shape"/>
</filter>
<filter id="filter1_d_243_155" x="256.99" y="11.4125" width="100.02" height="100.02" filterUnits="userSpaceOnUse" color-interpolation-filters="sRGB">
<feFlood flood-opacity="0" result="BackgroundImageFix"/>
<feColorMatrix in="SourceAlpha" type="matrix" values="0 0 0 0 0 0 0 0 0 0 0 0 0 0 0 0 0 0 127 0" result="hardAlpha"/>
<feOffset/>
<feGaussianBlur stdDeviation="5"/>
<feComposite in2="hardAlpha" operator="out"/>
<feColorMatrix type="matrix" values="0 0 0 0 0 0 0 0 0 0 0 0 0 0 0 0 0 0 0.5 0"/>
<feBlend mode="normal" in2="BackgroundImageFix" result="effect1_dropShadow_243_155"/>
<feBlend mode="normal" in="SourceGraphic" in2="effect1_dropShadow_243_155" result="shape"/>
</filter>
<filter id="filter2_d_243_155" x="171.42" y="1.84302" width="101.159" height="101.159" filterUnits="userSpaceOnUse" color-interpolation-filters="sRGB">
<feFlood flood-opacity="0" result="BackgroundImageFix"/>
<feColorMatrix in="SourceAlpha" type="matrix" values="0 0 0 0 0 0 0 0 0 0 0 0 0 0 0 0 0 0 127 0" result="hardAlpha"/>
<feOffset/>
<feGaussianBlur stdDeviation="5"/>
<feComposite in2="hardAlpha" operator="out"/>
<feColorMatrix type="matrix" values="0 0 0 0 0 0 0 0 0 0 0 0 0 0 0 0 0 0 0.5 0"/>
<feBlend mode="normal" in2="BackgroundImageFix" result="effect1_dropShadow_243_155"/>
<feBlend mode="normal" in="SourceGraphic" in2="effect1_dropShadow_243_155" result="shape"/>
</filter>
<filter id="filter3_d_243_155" x="86.5962" y="11.0189" width="100.808" height="100.807" filterUnits="userSpaceOnUse" color-interpolation-filters="sRGB">
<feFlood flood-opacity="0" result="BackgroundImageFix"/>
<feColorMatrix in="SourceAlpha" type="matrix" values="0 0 0 0 0 0 0 0 0 0 0 0 0 0 0 0 0 0 127 0" result="hardAlpha"/>
<feOffset/>
<feGaussianBlur stdDeviation="5"/>
<feComposite in2="hardAlpha" operator="out"/>
<feColorMatrix type="matrix" values="0 0 0 0 0 0 0 0 0 0 0 0 0 0 0 0 0 0 0.5 0"/>
<feBlend mode="normal" in2="BackgroundImageFix" result="effect1_dropShadow_243_155"/>
<feBlend mode="normal" in="SourceGraphic" in2="effect1_dropShadow_243_155" result="shape"/>
</filter>
<filter id="filter4_d_243_155" x="0.197882" y="1.62061" width="101.188" height="101.188" filterUnits="userSpaceOnUse" color-interpolation-filters="sRGB">
<feFlood flood-opacity="0" result="BackgroundImageFix"/>
<feColorMatrix in="SourceAlpha" type="matrix" values="0 0 0 0 0 0 0 0 0 0 0 0 0 0 0 0 0 0 127 0" result="hardAlpha"/>
<feOffset/>
<feGaussianBlur stdDeviation="5"/>
<feComposite in2="hardAlpha" operator="out"/>
<feColorMatrix type="matrix" values="0 0 0 0 0 0 0 0 0 0 0 0 0 0 0 0 0 0 0.5 0"/>
<feBlend mode="normal" in2="BackgroundImageFix" result="effect1_dropShadow_243_155"/>
<feBlend mode="normal" in="SourceGraphic" in2="effect1_dropShadow_243_155" result="shape"/>
</filter>
</defs>
</svg>
