<svg width="145" height="38" viewBox="0 0 145 38" fill="none" xmlns="http://www.w3.org/2000/svg">
<path d="M11.5985 35.004C9.6145 34.9652 7.96988 34.7534 6.66464 34.3685C5.37503 33.9839 4.33704 33.5182 3.55068 32.9715C2.78026 32.4095 2.18933 31.8588 1.7779 31.3194C1.64126 31.1136 1.5201 30.9159 1.4144 30.7263C1.30871 30.5367 1.23471 30.3243 1.19242 30.089C1.13603 29.7754 1.08147 29.368 1.02874 28.8668C0.976312 28.3501 0.980087 27.7563 1.04006 27.0855C1.06117 26.8046 1.11966 26.6104 1.21553 26.5029C1.32732 26.38 1.5088 26.2898 1.75998 26.2322C2.21515 26.1317 2.80281 26.0494 3.52294 25.9853C4.25901 25.9059 4.78326 25.8692 5.0957 25.8753C5.42376 25.8817 5.68812 25.9494 5.88876 26.0783C6.08941 26.2073 6.32744 26.4229 6.60284 26.7252C6.90888 27.0594 7.43961 27.4917 8.19502 28.0221C8.95075 28.537 10.1253 28.81 11.7188 28.8411C13.2497 28.8709 14.412 28.5733 15.2056 27.948C15.9992 27.3227 16.4072 26.4399 16.4294 25.2995C16.4413 24.6902 16.265 24.1164 15.9004 23.5779C15.5518 23.0241 14.8983 22.4722 13.9401 21.9222C12.9823 21.3565 11.6108 20.7593 9.82589 20.1306C6.87722 19.0729 4.76124 17.7891 3.47795 16.2794C2.19467 14.7697 1.57879 12.6948 1.63032 10.0547C1.673 7.8676 2.23983 6.05019 3.33078 4.60246C4.42174 3.15472 5.91186 2.07422 7.80114 1.36095C9.69042 0.647677 11.8614 0.314977 14.314 0.362846C16.2043 0.399738 17.7621 0.656747 18.9874 1.13387C20.2286 1.59568 21.1874 2.11449 21.8638 2.6903C22.5405 3.25048 22.977 3.7044 23.1734 4.05205C23.2944 4.25758 23.3695 4.41532 23.3986 4.52528C23.4436 4.61993 23.4723 4.75333 23.4846 4.92548C23.522 5.41067 23.5271 5.94994 23.4999 6.54327C23.4727 7.1366 23.4049 7.80728 23.2965 8.55531C23.2448 8.80435 23.1555 8.97451 23.0287 9.06581C22.9178 9.14178 22.7452 9.17748 22.5109 9.17291C20.9949 9.17458 19.8248 9.0736 19.0005 8.86998C18.674 8.78546 18.4568 8.70309 18.3489 8.62284C18.2411 8.5426 18.103 8.41488 17.9345 8.23968C17.6903 7.93798 17.2987 7.58652 16.7595 7.1853C16.2363 6.76876 15.381 6.54891 14.1938 6.52573C12.5534 6.49372 11.3823 6.84593 10.6803 7.58238C9.97859 8.3032 9.61874 9.12446 9.60075 10.0462C9.57941 11.1397 10.0704 12.0088 11.0736 12.6535C12.0771 13.2826 13.6648 14.009 15.8367 14.8328C17.6519 15.509 19.2084 16.2348 20.506 17.0103C21.8036 17.7857 22.7847 18.766 23.4492 19.9511C24.1293 21.1365 24.4506 22.6899 24.4131 24.6114C24.3665 27.0016 23.7732 28.9747 22.6332 30.5309C21.5089 32.0874 19.9861 33.2376 18.065 33.9815C16.1598 34.7101 14.0043 35.0509 11.5985 35.004ZM44.3931 33.839C44.384 34.3076 44.276 34.6337 44.0693 34.8172C43.8784 34.9854 43.5487 35.0649 43.08 35.0558L38.0888 34.9584C37.6201 34.9492 37.2859 34.8567 37.0862 34.6809C36.9024 34.4898 36.8151 34.1599 36.8242 33.6913L37.3355 7.49312L30.3525 7.35683C29.9776 7.34951 29.6976 7.28154 29.5126 7.1529C29.1119 6.86378 28.6966 6.51967 28.2668 6.12058C27.8527 5.7218 27.401 5.24415 26.9117 4.68762C26.7595 4.48148 26.6846 4.31593 26.687 4.19095C26.6898 4.05035 26.7709 3.89566 26.9305 3.72686C27.4411 3.18985 27.9111 2.73018 28.3405 2.34787C28.7855 1.96585 29.2139 1.63821 29.6255 1.36494C29.8467 1.24423 30.1291 1.18723 30.4728 1.19394L52.0312 1.6147C52.4061 1.62202 52.6861 1.68999 52.8711 1.81863C53.2718 2.10775 53.687 2.45186 54.1168 2.85095C54.5466 3.25003 54.9983 3.72769 55.4719 4.28391C55.6242 4.49005 55.6991 4.6556 55.6967 4.78058C55.6939 4.92118 55.6128 5.07587 55.4532 5.24467C54.9582 5.78199 54.4882 6.24165 54.0432 6.62367C53.5981 7.00568 53.1698 7.33332 52.7581 7.60659C52.537 7.7273 52.2546 7.7843 51.9109 7.77759L44.9044 7.64084L44.3931 33.839ZM73.3425 3.88255C74.1783 5.10222 75.0228 6.67368 75.876 8.59695C76.7452 10.5049 77.5795 12.5997 78.3789 14.8814C79.1783 17.163 79.8906 19.4977 80.516 21.8853C81.1574 24.2577 81.6754 26.5417 82.0701 28.7373C82.4649 30.9329 82.6769 32.8827 82.7061 34.5867C82.7056 35.415 82.3226 35.8217 81.5571 35.8067L75.8863 35.6961C75.1521 35.6817 74.7765 35.3071 74.7596 34.5723C74.7312 32.8214 74.4915 30.6913 74.0404 28.182L61.2459 27.9323C60.761 30.3608 60.4695 32.4806 60.3717 34.2915C60.3261 35.0251 59.9206 35.3845 59.1551 35.3695L53.6015 35.2611C53.3203 35.2556 53.0875 35.173 52.9031 35.0131C52.7189 34.8376 52.6387 34.5469 52.6622 34.141C52.7742 32.4085 53.0625 30.445 53.5273 28.2505C54.008 26.0407 54.6153 23.7553 55.349 21.3941C56.0827 19.033 56.8934 16.7281 57.7812 14.4794C58.6693 12.215 59.5849 10.1465 60.5278 8.27396C61.4708 6.40137 62.3836 4.87202 63.2663 3.68589C63.7319 3.05423 64.2175 2.59487 64.7232 2.30781C65.2445 2.02105 65.8801 1.88499 66.63 1.89963L70.0043 1.96548C70.7698 1.98042 71.4074 2.14133 71.9171 2.44821C72.4269 2.75509 72.902 3.23321 73.3425 3.88255ZM67.9383 9.33282C66.8752 10.953 65.8918 12.8951 64.9881 15.1592C64.0844 17.4232 63.2966 19.752 62.6247 22.1456L72.7947 22.3441C72.1855 19.9255 71.4736 17.5674 70.6589 15.2699C69.8442 12.9723 68.9842 10.9942 68.0789 9.33557L67.9383 9.33282ZM95.7818 34.8419C95.7726 35.3106 95.6647 35.6367 95.4579 35.8202C95.2671 35.9884 94.9374 36.0679 94.4687 36.0587L89.4775 35.9613C89.0088 35.9522 88.6746 35.8597 88.4749 35.6839C88.2911 35.4928 88.2037 35.1629 88.2129 34.6942L88.7219 8.61325C88.7524 7.05104 88.9171 5.81965 89.216 4.91906C89.5308 4.00315 90.106 3.358 90.9416 2.98361C91.7931 2.5939 93.0234 2.41475 94.6324 2.44616L100.842 2.56735C108.997 2.72651 113.013 5.9383 112.891 12.2027C112.854 14.1086 112.503 15.6646 111.839 16.8706C111.174 18.0766 110.359 19.014 109.393 19.6828C108.427 20.3359 107.479 20.8253 106.551 21.151L106.549 21.2682C107.582 21.976 108.556 22.9014 109.472 24.0445C110.403 25.1723 111.238 26.3998 111.978 27.7269C112.719 29.0385 113.342 30.34 113.848 31.6314C114.354 32.9071 114.699 34.0469 114.883 35.0506C114.967 35.5211 114.961 35.8726 114.862 36.1051C114.78 36.3379 114.512 36.4499 114.059 36.4411L108.646 36.3354C108.24 36.3275 107.882 36.2346 107.573 36.0566C107.279 35.879 107.014 35.4753 106.776 34.8455C105.647 31.8386 104.327 29.3827 102.817 27.4778C101.308 25.5574 99.8454 24.0129 98.4304 22.8445C97.5231 22.0922 97.0724 21.5599 97.0785 21.2475C97.0834 20.9975 97.2385 20.6567 97.5439 20.2251C97.7365 19.9632 98.0162 19.6483 98.3828 19.2804C98.7494 18.9124 99.0673 18.6373 99.3366 18.4551C99.6058 18.2728 99.819 18.1597 99.9761 18.1159C100.149 18.0724 100.407 18.054 100.751 18.0607C101.907 18.0833 102.875 17.7037 103.656 16.9219C104.453 16.1404 104.868 14.8904 104.902 13.172C104.933 11.5473 104.543 10.352 103.729 9.58596C102.932 8.80463 101.814 8.39994 100.377 8.37189L98.9713 8.34445C97.9402 8.32432 97.233 8.52931 96.8495 8.95941C96.466 9.38951 96.2639 10.1357 96.2432 11.198L95.7818 34.8419ZM133.345 35.5751C133.336 36.0437 133.228 36.3698 133.021 36.5533C132.83 36.7215 132.501 36.801 132.032 36.7919L127.041 36.6944C126.572 36.6853 126.238 36.5928 126.038 36.417C125.854 36.2259 125.767 35.896 125.776 35.4273L126.287 9.22921L119.304 9.09292C118.929 9.0856 118.649 9.01762 118.464 8.88899C118.064 8.59986 117.648 8.25576 117.219 7.85667C116.804 7.45789 116.353 6.98023 115.864 6.42371C115.711 6.21757 115.636 6.05201 115.639 5.92704C115.642 5.78644 115.723 5.63174 115.882 5.46295C116.393 4.92594 116.863 4.46627 117.292 4.08395C117.737 3.70194 118.166 3.3743 118.577 3.10103C118.798 2.98032 119.081 2.92332 119.425 2.93003L140.983 3.35079C141.358 3.3581 141.638 3.42608 141.823 3.55472C142.224 3.84384 142.639 4.18795 143.069 4.58703C143.498 4.98612 143.95 5.46378 144.424 6.02C144.576 6.22613 144.651 6.39169 144.648 6.51667C144.646 6.65726 144.565 6.81196 144.405 6.98075C143.91 7.51807 143.44 7.97774 142.995 8.35975C142.55 8.74177 142.122 9.06941 141.71 9.34268C141.489 9.46338 141.206 9.52038 140.863 9.51368L133.856 9.37693L133.345 35.5751Z" fill="#684532"/>
</svg>
