<svg width="390" height="192" viewBox="0 0 390 192" fill="none" xmlns="http://www.w3.org/2000/svg">
<g filter="url(#filter0_d_333_108)">
<rect x="267.014" y="19.9863" width="80" height="80" rx="10" transform="rotate(0.019429 267.014 19.9863)" fill="white"/>
<path d="M303.408 78.9987C301.798 78.9981 300.572 78.7946 299.728 78.388C298.9 77.9815 298.338 77.3173 298.041 76.3953C297.76 75.4733 297.62 74.2467 297.621 72.7155L297.628 51.6686C297.628 50.1061 297.77 48.8718 298.051 47.9656C298.348 47.0438 298.911 46.3878 299.739 45.9974C300.583 45.5915 301.81 45.3888 303.419 45.3893L314.435 45.393C314.81 45.3932 315.091 45.4558 315.278 45.5808C315.685 45.8622 316.106 46.1983 316.544 46.5891C316.981 46.9798 317.442 47.4487 317.926 47.9958C318.082 48.199 318.16 48.363 318.16 48.488C318.16 48.6287 318.082 48.7849 317.926 48.9567C317.441 49.5034 316.98 49.972 316.542 50.3625C316.105 50.753 315.683 51.0888 315.276 51.3699C315.058 51.4948 314.776 51.5572 314.433 51.5571L307.87 51.5549C306.839 51.5545 306.136 51.773 305.761 52.2104C305.385 52.6478 305.198 53.3977 305.197 54.4602L305.196 59.0071L313.61 59.0099C313.985 59.0101 314.266 59.0727 314.454 59.1977C314.86 59.4791 315.281 59.8152 315.719 60.206C316.156 60.5967 316.617 61.0657 317.101 61.6127C317.257 61.8159 317.335 61.98 317.335 62.105C317.335 62.2456 317.257 62.4018 317.101 62.5736C316.616 63.1203 316.155 63.5889 315.718 63.9794C315.28 64.3699 314.858 64.7057 314.452 64.9868C314.233 65.1117 313.951 65.1741 313.608 65.174L305.194 65.1712L305.192 69.9055C305.192 70.9524 305.379 71.7025 305.754 72.1557C306.129 72.609 306.832 72.8358 307.863 72.8361L315.199 72.8386C315.574 72.8387 315.855 72.9013 316.043 73.0264C316.449 73.3078 316.87 73.6439 317.308 74.0346C317.745 74.4254 318.206 74.8943 318.69 75.4414C318.846 75.6445 318.924 75.8086 318.924 75.9336C318.924 76.0742 318.846 76.2305 318.69 76.4023C318.205 76.949 317.744 77.4176 317.307 77.8081C316.869 78.1985 316.447 78.5343 316.041 78.8155C315.822 78.9404 315.541 79.0028 315.197 79.0027L303.408 78.9987Z" fill="#684532"/>
</g>
<g filter="url(#filter1_d_333_108)">
<rect x="182.788" y="10.2271" width="80" height="80" rx="10" transform="rotate(1.11811 182.788 10.2271)" fill="white"/>
<path d="M222.009 56.5481C222.244 55.7088 222.495 54.8854 222.76 54.0779C223.042 53.2551 223.38 52.3397 223.775 51.3316C224.121 50.4319 224.539 49.4008 225.031 48.2383C225.523 47.0602 226.038 45.8669 226.578 44.6584C227.133 43.4503 227.67 42.3277 228.191 41.2908C228.711 40.2539 229.18 39.4269 229.599 38.81C230.113 38.0543 230.664 37.4946 231.249 37.1309C231.85 36.7676 232.721 36.5971 233.861 36.6193L236.931 36.6792C237.743 36.6951 238.42 36.8333 238.962 37.0939C239.52 37.3392 239.907 37.9172 240.124 38.8279C240.282 39.503 240.427 40.4904 240.558 41.79C240.689 43.0897 240.787 44.8888 240.851 47.1874C240.916 49.486 240.944 52.4402 240.936 56.0501C240.929 59.6444 240.873 64.0895 240.77 69.3854C240.764 69.6666 240.666 69.8991 240.475 70.0829C240.284 70.2667 240.055 70.356 239.79 70.3508L234.447 70.2465C234.181 70.2413 233.957 70.1432 233.773 69.9521C233.589 69.7609 233.5 69.517 233.506 69.2202C233.586 65.0959 233.655 61.5966 233.711 58.7222C233.767 55.8477 233.806 53.4652 233.827 51.5746C233.848 49.684 233.854 48.1839 233.844 47.0741C233.851 45.949 233.836 45.0814 233.801 44.4712L233.661 44.4685C232.796 46.3582 231.872 48.4656 230.889 50.7906C229.906 53.1 228.945 55.4879 228.006 57.9544C227.067 60.4053 226.224 62.8034 225.475 65.1486C225.258 65.8476 224.99 66.3347 224.672 66.6098C224.37 66.8696 223.68 66.9889 222.603 66.9679L219.908 66.9153C218.986 66.8973 218.371 66.7681 218.063 66.5277C217.771 66.2876 217.523 65.7748 217.32 64.9894C216.839 63.1985 216.306 61.3049 215.719 59.3087C215.133 57.3125 214.523 55.3549 213.888 53.4359C213.27 51.5016 212.664 49.7238 212.07 48.1025C211.493 46.466 210.972 45.104 210.509 44.0166L210.368 44.0139C210.207 45.8548 210.054 48.0944 209.909 50.7327C209.764 53.371 209.63 56.2361 209.507 59.3281C209.4 62.4203 209.307 65.5754 209.228 68.7932C209.223 69.0744 209.125 69.3069 208.934 69.4907C208.743 69.6589 208.514 69.7404 208.249 69.7352L203.445 69.6415C203.18 69.6363 202.955 69.5381 202.771 69.347C202.587 69.1559 202.498 68.9119 202.504 68.6151C202.682 60.2888 202.976 53.6449 203.385 48.6832C203.81 43.7218 204.227 40.4011 204.635 38.7213C204.906 37.617 205.358 36.9069 205.989 36.5911C206.636 36.2599 207.366 36.1022 208.178 36.1181L211.974 36.1921C212.834 36.2089 213.456 36.3773 213.84 36.6974C214.24 37.0021 214.721 37.5976 215.282 38.4837C215.616 39.0059 216.007 39.7871 216.455 40.8273C216.919 41.8678 217.397 43.0258 217.888 44.3013C218.379 45.5611 218.839 46.8125 219.268 48.0555C219.713 49.2831 220.075 50.3529 220.354 51.2648C220.648 52.1926 220.92 53.0965 221.168 53.9765C221.417 54.8409 221.635 55.6969 221.821 56.5444L222.009 56.5481Z" fill="#684532"/>
</g>
<g filter="url(#filter2_d_333_108)">
<rect x="96.4619" y="20.5457" width="80" height="80" rx="10" transform="rotate(-0.776399 96.4619 20.5457)" fill="white"/>
<path d="M141.014 77.705C141.02 78.1737 140.923 78.5032 140.723 78.6934C140.537 78.8678 140.211 78.9582 139.742 78.9646L134.75 79.0322C134.281 79.0386 133.944 78.9572 133.739 78.7881C133.549 78.6031 133.451 78.2763 133.444 77.8076L133.057 49.193C133.05 48.74 133.124 48.3952 133.277 48.1587C133.966 47.118 134.936 46.0189 136.186 44.8612C136.417 44.6705 136.619 44.574 136.791 44.5717C136.979 44.5692 137.175 44.6603 137.381 44.845C138.076 45.4294 138.662 45.9918 139.138 46.5323C139.614 47.0571 140.027 47.5672 140.378 48.0625C140.537 48.3103 140.62 48.653 140.626 49.0905L141.014 77.705Z" fill="#684532"/>
</g>
<g filter="url(#filter3_d_333_108)">
<rect x="10" y="11.5994" width="80" height="80" rx="10" transform="rotate(-1.14554 10 11.5994)" fill="white"/>
<path d="M54.9194 68.4705C54.9288 68.9392 54.8338 69.2693 54.6344 69.4608C54.4504 69.6364 54.1241 69.7289 53.6554 69.7382L48.6642 69.838C48.1956 69.8474 47.858 69.7682 47.6515 69.6004C47.4603 69.4167 47.36 69.0905 47.3506 68.6219L46.8267 42.424L39.8438 42.5636C39.4688 42.5711 39.1864 42.5142 38.9964 42.393C38.5846 42.1199 38.1561 41.7925 37.7109 41.4107C37.2813 41.0286 36.8111 40.5691 36.3003 40.0324C36.14 39.8324 36.0586 39.6699 36.0561 39.545C36.0533 39.4044 36.1283 39.2466 36.281 39.0716C36.77 38.5149 37.2215 38.037 37.6355 37.638C38.0651 37.2387 38.4801 36.8944 38.8807 36.6051C39.0969 36.4758 39.3768 36.4076 39.7205 36.4008L61.2787 35.9697C61.6536 35.9622 61.9361 36.0191 62.126 36.1403C62.5378 36.4134 62.9663 36.7408 63.4116 37.1226C63.8568 37.5044 64.327 37.9638 64.8222 38.5009C64.9825 38.7009 65.0639 38.8633 65.0664 38.9883C65.0692 39.1289 64.9942 39.2867 64.8414 39.4617C64.3681 40.0181 63.9166 40.496 63.487 40.8953C63.0574 41.2946 62.6423 41.6389 62.2418 41.9282C62.0256 42.0575 61.7456 42.1257 61.4019 42.1325L54.3955 42.2726L54.9194 68.4705Z" fill="#684532"/>
</g>
<g filter="url(#filter4_d_333_108)">
<rect x="299.014" y="101.564" width="80" height="80" rx="10" transform="rotate(0.019429 299.014 101.564)" fill="white"/>
<path d="M334.658 159.334C334.658 159.802 334.556 160.13 334.353 160.318C334.166 160.49 333.837 160.575 333.369 160.575L328.376 160.574C327.908 160.573 327.572 160.487 327.369 160.315C327.181 160.128 327.088 159.8 327.088 159.331L327.097 133.245C327.097 131.682 327.238 130.448 327.52 129.542C327.817 128.62 328.38 127.964 329.208 127.574C330.052 127.168 331.278 126.965 332.888 126.966L339.099 126.968C347.255 126.971 351.332 130.105 351.33 136.37C351.329 138.277 351.009 139.839 350.367 141.058C349.726 142.276 348.929 143.229 347.976 143.916C347.023 144.588 346.085 145.095 345.163 145.439L345.163 145.556C346.209 146.244 347.201 147.15 348.138 148.276C349.091 149.385 349.95 150.596 350.715 151.909C351.481 153.206 352.129 154.496 352.659 155.777C353.19 157.043 353.557 158.176 353.76 159.176C353.853 159.645 353.853 159.996 353.759 160.231C353.681 160.465 353.416 160.582 352.962 160.582L347.548 160.58C347.142 160.58 346.783 160.494 346.47 160.322C346.173 160.15 345.9 159.751 345.65 159.126C344.464 156.142 343.098 153.711 341.551 151.836C340.005 149.945 338.513 148.429 337.076 147.287C336.155 146.553 335.694 146.029 335.694 145.717C335.694 145.467 335.843 145.123 336.14 144.686C336.327 144.42 336.601 144.1 336.96 143.725C337.32 143.35 337.632 143.069 337.898 142.881C338.164 142.694 338.375 142.577 338.531 142.53C338.703 142.483 338.961 142.46 339.304 142.46C340.461 142.46 341.422 142.062 342.188 141.266C342.969 140.469 343.36 139.211 343.361 137.493C343.361 135.868 342.948 134.68 342.12 133.93C341.308 133.164 340.183 132.781 338.745 132.78L337.339 132.78C336.308 132.779 335.605 132.998 335.229 133.435C334.854 133.873 334.667 134.623 334.666 135.685L334.658 159.334Z" fill="#684532"/>
</g>
<g filter="url(#filter5_d_333_108)">
<rect x="214.788" y="91.8043" width="80" height="80" rx="10" transform="rotate(1.11811 214.788 91.8043)" fill="white"/>
<path d="M250.044 151.504C248.435 151.472 247.212 151.245 246.377 150.823C245.557 150.4 245.007 149.725 244.729 148.798C244.465 147.871 244.349 146.642 244.379 145.111L244.789 124.068C244.82 122.506 244.984 121.274 245.283 120.374C245.598 119.458 246.173 118.813 247.009 118.438C247.86 118.048 249.091 117.869 250.7 117.901L261.713 118.116C262.088 118.123 262.368 118.191 262.553 118.32C262.954 118.609 263.369 118.953 263.799 119.352C264.229 119.751 264.68 120.229 265.154 120.785C265.306 120.991 265.381 121.157 265.379 121.282C265.376 121.422 265.295 121.577 265.135 121.746C264.64 122.283 264.17 122.743 263.725 123.125C263.28 123.507 262.852 123.834 262.44 124.108C262.219 124.228 261.937 124.285 261.593 124.279L255.032 124.15C254.001 124.13 253.293 124.335 252.91 124.765C252.527 125.196 252.324 125.942 252.304 127.004L252.215 131.55L260.627 131.714C261.002 131.722 261.282 131.79 261.467 131.918C261.868 132.207 262.283 132.551 262.713 132.95C263.143 133.35 263.595 133.827 264.068 134.383C264.22 134.59 264.295 134.755 264.293 134.88C264.29 135.021 264.209 135.175 264.049 135.344C263.554 135.882 263.084 136.341 262.639 136.723C262.194 137.105 261.766 137.433 261.354 137.706C261.133 137.827 260.851 137.884 260.507 137.877L252.095 137.713L252.002 142.446C251.982 143.493 252.155 144.247 252.521 144.707C252.887 145.167 253.585 145.408 254.616 145.428L261.951 145.571C262.326 145.578 262.606 145.646 262.791 145.775C263.192 146.064 263.607 146.408 264.037 146.807C264.466 147.206 264.918 147.684 265.392 148.24C265.544 148.446 265.619 148.612 265.617 148.737C265.614 148.877 265.533 149.032 265.373 149.201C264.878 149.738 264.408 150.198 263.963 150.58C263.518 150.962 263.09 151.289 262.678 151.563C262.457 151.683 262.174 151.74 261.831 151.734L250.044 151.504Z" fill="#684532"/>
</g>
<g filter="url(#filter6_d_333_108)">
<rect x="128.462" y="102.123" width="80" height="80" rx="10" transform="rotate(-0.776399 128.462 102.123)" fill="white"/>
<path d="M164.241 158.792C162.964 156.84 161.708 154.654 160.472 152.233C159.251 149.796 158.139 147.295 157.136 144.73C156.132 142.15 155.325 139.669 154.714 137.286C154.104 134.888 153.785 132.744 153.76 130.853C153.754 130.447 153.836 130.125 154.005 129.889C154.357 129.384 154.788 128.862 155.296 128.324C155.82 127.77 156.437 127.191 157.148 126.588C157.379 126.397 157.597 126.301 157.8 126.298C158.003 126.295 158.207 126.386 158.413 126.571C159.155 127.155 159.788 127.716 160.311 128.256C160.834 128.78 161.278 129.29 161.644 129.785C161.82 130.017 161.91 130.36 161.916 130.813L161.915 130.719C161.933 132.047 162.134 133.646 162.519 135.516C162.919 137.37 163.454 139.324 164.122 141.378C164.806 143.415 165.575 145.397 166.429 147.324C167.299 149.234 168.22 150.901 169.193 152.326L169.333 152.324C170.361 150.872 171.283 149.188 172.101 147.27C172.934 145.337 173.642 143.343 174.223 141.288C174.821 139.233 175.271 137.273 175.574 135.409C175.892 133.53 176.042 131.911 176.023 130.551L176.024 130.622C176.018 130.169 176.092 129.824 176.245 129.587C176.981 128.546 177.997 127.446 179.294 126.288C179.541 126.097 179.759 126 179.946 125.998C180.118 125.995 180.323 126.086 180.56 126.271C181.271 126.855 181.88 127.417 182.387 127.957C182.894 128.482 183.331 128.991 183.697 129.486C183.857 129.734 183.939 130.069 183.945 130.491C183.964 131.913 183.784 133.564 183.403 135.444C183.037 137.309 182.525 139.284 181.866 141.372C181.207 143.459 180.454 145.547 179.607 147.637C178.76 149.727 177.865 151.724 176.922 153.627C175.979 155.515 175.033 157.192 174.084 158.658C173.288 159.904 172.187 160.536 170.781 160.555L167.547 160.599C166.141 160.618 165.039 160.015 164.241 158.792ZM153.759 130.83L153.76 130.853L153.761 130.923L153.759 130.83ZM183.945 130.444L183.945 130.514L183.945 130.491L183.945 130.444Z" fill="#684532"/>
</g>
<g filter="url(#filter7_d_333_108)">
<rect x="42" y="93.1766" width="80" height="80" rx="10" transform="rotate(-1.14554 42 93.1766)" fill="white"/>
<path d="M82.9958 151.955C79.7464 152.02 76.9064 151.451 74.4756 150.25C72.0449 149.048 70.1404 147.203 68.7623 144.714C67.3997 142.226 66.6808 139.099 66.6055 135.334C66.4859 129.351 67.8574 124.861 70.7199 121.866C73.5822 118.855 77.6222 117.297 82.8399 117.193C87.7295 117.095 91.6248 118.463 94.5258 121.296C97.4265 124.114 98.9333 128.35 99.0464 134.005C99.1264 138.004 98.5285 141.322 97.2528 143.957C95.9768 146.577 94.1253 148.552 91.6983 149.882C89.2709 151.196 86.3701 151.887 82.9958 151.955ZM83.0099 145.625C85.8218 145.569 87.8872 144.52 89.206 142.477C90.5248 140.435 91.152 137.804 91.0877 134.586C91.013 130.853 90.3165 128.061 88.998 126.212C87.6795 124.363 85.5987 123.467 82.7555 123.524C77.1472 123.636 74.417 127.387 74.5647 134.776C74.6306 138.072 75.3556 140.722 76.7397 142.726C78.1391 144.714 80.2292 145.681 83.0099 145.625Z" fill="#684532"/>
</g>
<defs>
<filter id="filter0_d_333_108" x="256.99" y="9.98975" width="100.021" height="100.02" filterUnits="userSpaceOnUse" color-interpolation-filters="sRGB">
<feFlood flood-opacity="0" result="BackgroundImageFix"/>
<feColorMatrix in="SourceAlpha" type="matrix" values="0 0 0 0 0 0 0 0 0 0 0 0 0 0 0 0 0 0 127 0" result="hardAlpha"/>
<feOffset/>
<feGaussianBlur stdDeviation="5"/>
<feComposite in2="hardAlpha" operator="out"/>
<feColorMatrix type="matrix" values="0 0 0 0 0 0 0 0 0 0 0 0 0 0 0 0 0 0 0.5 0"/>
<feBlend mode="normal" in2="BackgroundImageFix" result="effect1_dropShadow_333_108"/>
<feBlend mode="normal" in="SourceGraphic" in2="effect1_dropShadow_333_108" result="shape"/>
</filter>
<filter id="filter1_d_333_108" x="171.42" y="0.420288" width="101.159" height="101.159" filterUnits="userSpaceOnUse" color-interpolation-filters="sRGB">
<feFlood flood-opacity="0" result="BackgroundImageFix"/>
<feColorMatrix in="SourceAlpha" type="matrix" values="0 0 0 0 0 0 0 0 0 0 0 0 0 0 0 0 0 0 127 0" result="hardAlpha"/>
<feOffset/>
<feGaussianBlur stdDeviation="5"/>
<feComposite in2="hardAlpha" operator="out"/>
<feColorMatrix type="matrix" values="0 0 0 0 0 0 0 0 0 0 0 0 0 0 0 0 0 0 0.5 0"/>
<feBlend mode="normal" in2="BackgroundImageFix" result="effect1_dropShadow_333_108"/>
<feBlend mode="normal" in="SourceGraphic" in2="effect1_dropShadow_333_108" result="shape"/>
</filter>
<filter id="filter2_d_333_108" x="86.5967" y="9.59619" width="100.807" height="100.807" filterUnits="userSpaceOnUse" color-interpolation-filters="sRGB">
<feFlood flood-opacity="0" result="BackgroundImageFix"/>
<feColorMatrix in="SourceAlpha" type="matrix" values="0 0 0 0 0 0 0 0 0 0 0 0 0 0 0 0 0 0 127 0" result="hardAlpha"/>
<feOffset/>
<feGaussianBlur stdDeviation="5"/>
<feComposite in2="hardAlpha" operator="out"/>
<feColorMatrix type="matrix" values="0 0 0 0 0 0 0 0 0 0 0 0 0 0 0 0 0 0 0.5 0"/>
<feBlend mode="normal" in2="BackgroundImageFix" result="effect1_dropShadow_333_108"/>
<feBlend mode="normal" in="SourceGraphic" in2="effect1_dropShadow_333_108" result="shape"/>
</filter>
<filter id="filter3_d_333_108" x="0.197754" y="0.197876" width="101.188" height="101.188" filterUnits="userSpaceOnUse" color-interpolation-filters="sRGB">
<feFlood flood-opacity="0" result="BackgroundImageFix"/>
<feColorMatrix in="SourceAlpha" type="matrix" values="0 0 0 0 0 0 0 0 0 0 0 0 0 0 0 0 0 0 127 0" result="hardAlpha"/>
<feOffset/>
<feGaussianBlur stdDeviation="5"/>
<feComposite in2="hardAlpha" operator="out"/>
<feColorMatrix type="matrix" values="0 0 0 0 0 0 0 0 0 0 0 0 0 0 0 0 0 0 0.5 0"/>
<feBlend mode="normal" in2="BackgroundImageFix" result="effect1_dropShadow_333_108"/>
<feBlend mode="normal" in="SourceGraphic" in2="effect1_dropShadow_333_108" result="shape"/>
</filter>
<filter id="filter4_d_333_108" x="288.99" y="91.567" width="100.021" height="100.02" filterUnits="userSpaceOnUse" color-interpolation-filters="sRGB">
<feFlood flood-opacity="0" result="BackgroundImageFix"/>
<feColorMatrix in="SourceAlpha" type="matrix" values="0 0 0 0 0 0 0 0 0 0 0 0 0 0 0 0 0 0 127 0" result="hardAlpha"/>
<feOffset/>
<feGaussianBlur stdDeviation="5"/>
<feComposite in2="hardAlpha" operator="out"/>
<feColorMatrix type="matrix" values="0 0 0 0 0 0 0 0 0 0 0 0 0 0 0 0 0 0 0.5 0"/>
<feBlend mode="normal" in2="BackgroundImageFix" result="effect1_dropShadow_333_108"/>
<feBlend mode="normal" in="SourceGraphic" in2="effect1_dropShadow_333_108" result="shape"/>
</filter>
<filter id="filter5_d_333_108" x="203.42" y="81.9976" width="101.159" height="101.159" filterUnits="userSpaceOnUse" color-interpolation-filters="sRGB">
<feFlood flood-opacity="0" result="BackgroundImageFix"/>
<feColorMatrix in="SourceAlpha" type="matrix" values="0 0 0 0 0 0 0 0 0 0 0 0 0 0 0 0 0 0 127 0" result="hardAlpha"/>
<feOffset/>
<feGaussianBlur stdDeviation="5"/>
<feComposite in2="hardAlpha" operator="out"/>
<feColorMatrix type="matrix" values="0 0 0 0 0 0 0 0 0 0 0 0 0 0 0 0 0 0 0.5 0"/>
<feBlend mode="normal" in2="BackgroundImageFix" result="effect1_dropShadow_333_108"/>
<feBlend mode="normal" in="SourceGraphic" in2="effect1_dropShadow_333_108" result="shape"/>
</filter>
<filter id="filter6_d_333_108" x="118.597" y="91.1735" width="100.807" height="100.807" filterUnits="userSpaceOnUse" color-interpolation-filters="sRGB">
<feFlood flood-opacity="0" result="BackgroundImageFix"/>
<feColorMatrix in="SourceAlpha" type="matrix" values="0 0 0 0 0 0 0 0 0 0 0 0 0 0 0 0 0 0 127 0" result="hardAlpha"/>
<feOffset/>
<feGaussianBlur stdDeviation="5"/>
<feComposite in2="hardAlpha" operator="out"/>
<feColorMatrix type="matrix" values="0 0 0 0 0 0 0 0 0 0 0 0 0 0 0 0 0 0 0.5 0"/>
<feBlend mode="normal" in2="BackgroundImageFix" result="effect1_dropShadow_333_108"/>
<feBlend mode="normal" in="SourceGraphic" in2="effect1_dropShadow_333_108" result="shape"/>
</filter>
<filter id="filter7_d_333_108" x="32.1978" y="81.7751" width="101.188" height="101.188" filterUnits="userSpaceOnUse" color-interpolation-filters="sRGB">
<feFlood flood-opacity="0" result="BackgroundImageFix"/>
<feColorMatrix in="SourceAlpha" type="matrix" values="0 0 0 0 0 0 0 0 0 0 0 0 0 0 0 0 0 0 127 0" result="hardAlpha"/>
<feOffset/>
<feGaussianBlur stdDeviation="5"/>
<feComposite in2="hardAlpha" operator="out"/>
<feColorMatrix type="matrix" values="0 0 0 0 0 0 0 0 0 0 0 0 0 0 0 0 0 0 0.5 0"/>
<feBlend mode="normal" in2="BackgroundImageFix" result="effect1_dropShadow_333_108"/>
<feBlend mode="normal" in="SourceGraphic" in2="effect1_dropShadow_333_108" result="shape"/>
</filter>
</defs>
</svg>
