<svg width="445" height="112" viewBox="0 0 445 112" fill="none" xmlns="http://www.w3.org/2000/svg">
<g filter="url(#filter0_d_357_277)">
<rect x="348.577" y="17.1674" width="80" height="80" rx="10" transform="rotate(-5.14017 348.577 17.1674)" fill="white"/>
<path d="M397.349 70.7711C397.391 71.238 397.319 71.5739 397.134 71.7788C396.963 71.9668 396.644 72.0818 396.177 72.1238L391.205 72.5711C390.738 72.6131 390.395 72.5576 390.178 72.4046C389.974 72.2346 389.851 71.9162 389.809 71.4494L387.462 45.3516L380.505 45.9774C380.132 46.011 379.846 45.9739 379.648 45.8662C379.218 45.6225 378.768 45.3257 378.297 44.9758C377.842 44.6246 377.341 44.199 376.794 43.6991C376.62 43.5108 376.528 43.3544 376.517 43.2299C376.504 43.0899 376.568 42.9272 376.708 42.7421C377.157 42.1526 377.574 41.6444 377.959 41.2176C378.36 40.7893 378.75 40.4169 379.13 40.1004C379.336 39.9563 379.611 39.8689 379.953 39.8381L401.429 37.9062C401.802 37.8727 402.088 37.9097 402.286 38.0174C402.716 38.2611 403.166 38.5579 403.637 38.9078C404.108 39.2576 404.609 39.6832 405.14 40.1845C405.314 40.3728 405.407 40.5292 405.418 40.6537C405.43 40.7937 405.367 40.9564 405.226 41.1415C404.793 41.7296 404.376 42.2378 403.975 42.666C403.574 43.0943 403.184 43.4667 402.805 43.7832C402.598 43.9273 402.324 44.0147 401.981 44.0455L395.002 44.6734L397.349 70.7711Z" fill="#684532"/>
</g>
<g filter="url(#filter1_d_357_277)">
<rect x="267.014" y="21.4091" width="80" height="80" rx="10" transform="rotate(0.019429 267.014 21.4091)" fill="white"/>
<path d="M302.658 79.179C302.658 79.6477 302.556 79.9758 302.353 80.1632C302.166 80.335 301.837 80.4209 301.369 80.4207L296.376 80.419C295.908 80.4189 295.572 80.3328 295.369 80.1609C295.181 79.9733 295.088 79.6451 295.088 79.1764L295.097 53.0905C295.097 51.528 295.238 50.2936 295.52 49.3875C295.817 48.4657 296.38 47.8096 297.208 47.4193C298.052 47.0133 299.278 46.8106 300.888 46.8112L307.099 46.8133C315.255 46.816 319.332 49.9502 319.33 56.2159C319.329 58.1221 319.009 59.6845 318.367 60.903C317.726 62.1216 316.929 63.0744 315.976 63.7616C315.023 64.4332 314.085 64.9406 313.163 65.2841L313.163 65.4013C314.209 66.0891 315.201 66.9957 316.138 68.121C317.091 69.2307 317.95 70.442 318.715 71.7547C319.481 73.0519 320.129 74.3411 320.659 75.6226C321.19 76.8884 321.557 78.0213 321.76 79.0214C321.853 79.4902 321.853 79.8417 321.759 80.0761C321.681 80.3104 321.416 80.4275 320.962 80.4274L315.548 80.4255C315.142 80.4254 314.783 80.3393 314.47 80.1673C314.173 79.9954 313.9 79.5968 313.65 78.9718C312.464 75.987 311.098 73.5568 309.551 71.6813C308.005 69.7901 306.513 68.274 305.076 67.1329C304.155 66.3982 303.694 65.8746 303.694 65.5621C303.694 65.3121 303.843 64.9684 304.14 64.531C304.327 64.2655 304.601 63.9452 304.96 63.5704C305.32 63.1955 305.632 62.9143 305.898 62.7269C306.164 62.5395 306.375 62.4224 306.531 62.3756C306.703 62.3288 306.961 62.3054 307.304 62.3055C308.461 62.3059 309.422 61.9078 310.188 61.1112C310.969 60.3146 311.36 59.0569 311.361 57.3382C311.361 55.7132 310.948 54.5255 310.12 53.7752C309.308 53.0093 308.183 52.6261 306.745 52.6257L305.339 52.6252C304.308 52.6248 303.605 52.8433 303.229 53.2807C302.854 53.7181 302.667 54.468 302.666 55.5305L302.658 79.179Z" fill="#684532"/>
</g>
<g filter="url(#filter2_d_357_277)">
<rect x="182.788" y="11.6498" width="80" height="80" rx="10" transform="rotate(1.11811 182.788 11.6498)" fill="white"/>
<path d="M227.31 39.7661C228.146 40.9858 228.991 42.5572 229.844 44.4805C230.713 46.3885 231.547 48.4833 232.347 50.7649C233.146 53.0466 233.859 55.3812 234.484 57.7689C235.125 60.1412 235.643 62.4252 236.038 64.6208C236.433 66.8165 236.645 68.7663 236.674 70.4703C236.673 71.2986 236.29 71.7052 235.525 71.6903L229.854 71.5796C229.12 71.5653 228.744 71.1907 228.727 70.4559C228.699 68.705 228.459 66.5749 228.008 64.0656L215.214 63.8159C214.729 66.2444 214.437 68.3641 214.34 70.175C214.294 70.9087 213.888 71.268 213.123 71.2531L207.569 71.1447C207.288 71.1392 207.055 71.0565 206.871 70.8966C206.687 70.7211 206.607 70.4304 206.63 70.0246C206.742 68.2921 207.03 66.3286 207.495 64.1341C207.976 61.9243 208.583 59.6388 209.317 57.2777C210.051 54.9166 210.861 52.6116 211.749 50.3629C212.637 48.0986 213.553 46.0301 214.496 44.1575C215.439 42.2849 216.352 40.7556 217.234 39.5694C217.7 38.9378 218.185 38.4784 218.691 38.1914C219.212 37.9046 219.848 37.7685 220.598 37.7832L223.972 37.849C224.738 37.864 225.375 38.0249 225.885 38.3318C226.395 38.6386 226.87 39.1168 227.31 39.7661ZM221.906 45.2164C220.843 46.8366 219.86 48.7787 218.956 51.0427C218.052 53.3068 217.264 55.6356 216.593 58.0292L226.763 58.2277C226.153 55.8091 225.441 53.451 224.627 51.1534C223.812 48.8558 222.952 46.8777 222.047 45.2191L221.906 45.2164Z" fill="#684532"/>
</g>
<g filter="url(#filter3_d_357_277)">
<rect x="96.4619" y="21.9684" width="80" height="80" rx="10" transform="rotate(-0.776399 96.4619 21.9684)" fill="white"/>
<path d="M141.014 79.1278C141.02 79.5965 140.923 79.9259 140.723 80.1162C140.537 80.2906 140.211 80.3809 139.742 80.3873L134.75 80.4549C134.281 80.4613 133.944 80.3799 133.739 80.2108C133.549 80.0259 133.451 79.699 133.444 79.2303L133.089 53.0296L126.106 53.1243C125.731 53.1293 125.449 53.0707 125.259 52.9482C124.849 52.6725 124.423 52.3423 123.98 51.9576C123.553 51.5728 123.086 51.1103 122.578 50.5702C122.419 50.3693 122.339 50.2063 122.337 50.0813C122.336 49.9407 122.412 49.7834 122.565 49.6094C123.058 49.0558 123.513 48.5808 123.929 48.1845C124.361 47.788 124.778 47.4464 125.181 47.1597C125.398 47.0317 125.678 46.9654 126.022 46.9608L147.583 46.6686C147.958 46.6635 148.24 46.7222 148.429 46.8446C148.839 47.1203 149.265 47.4505 149.708 47.8352C150.151 48.2199 150.618 48.6823 151.11 49.2226C151.269 49.4236 151.349 49.5866 151.351 49.7115C151.353 49.8522 151.277 50.0095 151.123 50.1834C150.646 50.7368 150.191 51.2118 149.759 51.6083C149.327 52.0048 148.91 52.3464 148.507 52.6332C148.29 52.7611 148.01 52.8274 147.666 52.8321L140.659 52.927L141.014 79.1278Z" fill="#684532"/>
</g>
<g filter="url(#filter4_d_357_277)">
<rect x="10" y="13.0221" width="80" height="80" rx="10" transform="rotate(-1.14554 10 13.0221)" fill="white"/>
<path d="M50.2455 71.7918C48.2615 71.8314 46.6098 71.6847 45.2904 71.3517C43.9866 71.0183 42.931 70.594 42.1237 70.0788C41.3316 69.5476 40.7194 69.0207 40.287 68.498C40.1423 68.2977 40.0135 68.1049 39.9004 67.9197C39.7873 67.7344 39.7049 67.5251 39.6534 67.2917C39.5847 66.9805 39.514 66.5756 39.4416 66.0769C39.3688 65.5626 39.3491 64.9692 39.3825 64.2965C39.3925 64.015 39.4433 63.8186 39.5348 63.7074C39.6417 63.5802 39.8195 63.4829 40.0682 63.4154C40.519 63.297 41.103 63.1916 41.82 63.0991C42.5524 62.9907 43.0748 62.9333 43.3872 62.9271C43.7152 62.9205 43.9821 62.9777 44.1877 63.0986C44.3932 63.2195 44.6396 63.4256 44.9267 63.7168C45.2457 64.0386 45.7931 64.4496 46.5689 64.9498C47.3444 65.4344 48.5288 65.6608 50.1222 65.6289C51.6532 65.5983 52.8028 65.2549 53.5711 64.5988C54.3394 63.9427 54.7121 63.0445 54.6893 61.9041C54.6771 61.2948 54.4783 60.7284 54.0927 60.2047C53.7225 59.6651 53.0478 59.1394 52.0686 58.6277C51.0891 58.1003 49.6952 57.5577 47.8868 57C44.8986 56.0596 42.7336 54.8604 41.3917 53.4026C40.0498 51.9447 39.3524 49.8958 39.2996 47.2557C39.2559 45.0686 39.7505 43.2302 40.7834 41.7405C41.8163 40.2508 43.2626 39.1123 45.1223 38.325C46.9819 37.5377 49.138 37.1195 51.5907 37.0704C53.4809 37.0326 55.0476 37.2279 56.2908 37.6563C57.5493 38.0687 58.5279 38.5492 59.2265 39.0979C59.9248 39.6309 60.3789 40.0672 60.5888 40.4068C60.7179 40.6074 60.7991 40.7621 60.8325 40.8708C60.8813 40.9636 60.9152 41.0957 60.9342 41.2673C60.9908 41.7506 61.0172 42.2893 61.0134 42.8832C61.0097 43.4771 60.9684 44.15 60.8897 44.9017C60.8478 45.1526 60.7653 45.3261 60.6422 45.4224C60.5345 45.5027 60.3634 45.5452 60.1291 45.5498C58.6144 45.6114 57.4412 45.5567 56.6095 45.3858C56.2798 45.3143 56.0596 45.2405 55.9487 45.1646C55.8377 45.0887 55.6946 44.9665 55.5194 44.7981C55.2635 44.5063 54.8583 44.1706 54.3037 43.791C53.7644 43.3954 52.9011 43.2095 51.7139 43.2332C50.0736 43.266 48.9173 43.6642 48.2449 44.4278C47.5722 45.1758 47.2451 46.0106 47.2635 46.9323C47.2854 48.0259 47.8103 48.8749 48.8382 49.4795C49.8658 50.0684 51.4809 50.7316 53.6836 51.469C55.5242 52.0729 57.1081 52.7367 58.4353 53.4603C59.7625 54.1839 60.7816 55.1247 61.4923 56.2826C62.2188 57.4401 62.6012 58.9797 62.6396 60.9012C62.6874 63.2913 62.1725 65.2864 61.0949 66.8864C60.0329 68.486 58.5568 69.6955 56.6665 70.5147C54.7916 71.318 52.6512 71.7436 50.2455 71.7918Z" fill="#684532"/>
</g>
<defs>
<filter id="filter0_d_357_277" x="339.432" y="0.85498" width="105.136" height="105.136" filterUnits="userSpaceOnUse" color-interpolation-filters="sRGB">
<feFlood flood-opacity="0" result="BackgroundImageFix"/>
<feColorMatrix in="SourceAlpha" type="matrix" values="0 0 0 0 0 0 0 0 0 0 0 0 0 0 0 0 0 0 127 0" result="hardAlpha"/>
<feOffset/>
<feGaussianBlur stdDeviation="5"/>
<feComposite in2="hardAlpha" operator="out"/>
<feColorMatrix type="matrix" values="0 0 0 0 0 0 0 0 0 0 0 0 0 0 0 0 0 0 0.5 0"/>
<feBlend mode="normal" in2="BackgroundImageFix" result="effect1_dropShadow_357_277"/>
<feBlend mode="normal" in="SourceGraphic" in2="effect1_dropShadow_357_277" result="shape"/>
</filter>
<filter id="filter1_d_357_277" x="256.99" y="11.4125" width="100.021" height="100.02" filterUnits="userSpaceOnUse" color-interpolation-filters="sRGB">
<feFlood flood-opacity="0" result="BackgroundImageFix"/>
<feColorMatrix in="SourceAlpha" type="matrix" values="0 0 0 0 0 0 0 0 0 0 0 0 0 0 0 0 0 0 127 0" result="hardAlpha"/>
<feOffset/>
<feGaussianBlur stdDeviation="5"/>
<feComposite in2="hardAlpha" operator="out"/>
<feColorMatrix type="matrix" values="0 0 0 0 0 0 0 0 0 0 0 0 0 0 0 0 0 0 0.5 0"/>
<feBlend mode="normal" in2="BackgroundImageFix" result="effect1_dropShadow_357_277"/>
<feBlend mode="normal" in="SourceGraphic" in2="effect1_dropShadow_357_277" result="shape"/>
</filter>
<filter id="filter2_d_357_277" x="171.42" y="1.84302" width="101.159" height="101.159" filterUnits="userSpaceOnUse" color-interpolation-filters="sRGB">
<feFlood flood-opacity="0" result="BackgroundImageFix"/>
<feColorMatrix in="SourceAlpha" type="matrix" values="0 0 0 0 0 0 0 0 0 0 0 0 0 0 0 0 0 0 127 0" result="hardAlpha"/>
<feOffset/>
<feGaussianBlur stdDeviation="5"/>
<feComposite in2="hardAlpha" operator="out"/>
<feColorMatrix type="matrix" values="0 0 0 0 0 0 0 0 0 0 0 0 0 0 0 0 0 0 0.5 0"/>
<feBlend mode="normal" in2="BackgroundImageFix" result="effect1_dropShadow_357_277"/>
<feBlend mode="normal" in="SourceGraphic" in2="effect1_dropShadow_357_277" result="shape"/>
</filter>
<filter id="filter3_d_357_277" x="86.5967" y="11.0189" width="100.807" height="100.807" filterUnits="userSpaceOnUse" color-interpolation-filters="sRGB">
<feFlood flood-opacity="0" result="BackgroundImageFix"/>
<feColorMatrix in="SourceAlpha" type="matrix" values="0 0 0 0 0 0 0 0 0 0 0 0 0 0 0 0 0 0 127 0" result="hardAlpha"/>
<feOffset/>
<feGaussianBlur stdDeviation="5"/>
<feComposite in2="hardAlpha" operator="out"/>
<feColorMatrix type="matrix" values="0 0 0 0 0 0 0 0 0 0 0 0 0 0 0 0 0 0 0.5 0"/>
<feBlend mode="normal" in2="BackgroundImageFix" result="effect1_dropShadow_357_277"/>
<feBlend mode="normal" in="SourceGraphic" in2="effect1_dropShadow_357_277" result="shape"/>
</filter>
<filter id="filter4_d_357_277" x="0.197754" y="1.62061" width="101.188" height="101.188" filterUnits="userSpaceOnUse" color-interpolation-filters="sRGB">
<feFlood flood-opacity="0" result="BackgroundImageFix"/>
<feColorMatrix in="SourceAlpha" type="matrix" values="0 0 0 0 0 0 0 0 0 0 0 0 0 0 0 0 0 0 127 0" result="hardAlpha"/>
<feOffset/>
<feGaussianBlur stdDeviation="5"/>
<feComposite in2="hardAlpha" operator="out"/>
<feColorMatrix type="matrix" values="0 0 0 0 0 0 0 0 0 0 0 0 0 0 0 0 0 0 0.5 0"/>
<feBlend mode="normal" in2="BackgroundImageFix" result="effect1_dropShadow_357_277"/>
<feBlend mode="normal" in="SourceGraphic" in2="effect1_dropShadow_357_277" result="shape"/>
</filter>
</defs>
</svg>
