<svg width="445" height="112" viewBox="0 0 445 112" fill="none" xmlns="http://www.w3.org/2000/svg">
<g filter="url(#filter0_d_357_261)">
<rect x="348.577" y="17.1674" width="80" height="80" rx="10" transform="rotate(-5.14017 348.577 17.1674)" fill="white"/>
<path d="M397.256 70.7795C397.298 71.2464 397.226 71.5823 397.041 71.7872C396.869 71.9752 396.55 72.0902 396.083 72.1322L391.111 72.5795C390.644 72.6215 390.302 72.566 390.084 72.413C389.881 72.243 389.758 71.9246 389.716 71.4578L388.769 60.93L383.639 55.9555C382.417 54.7633 381.379 53.6879 380.525 52.7294C379.685 51.7695 379.03 50.7616 378.558 49.7059C378.085 48.6346 377.782 47.3597 377.649 45.8813L377.465 43.8271C377.424 43.3758 377.471 43.0264 377.606 42.779C378.214 41.6889 379.097 40.5191 380.255 39.2697C380.472 39.062 380.673 38.9497 380.86 38.9329C381.047 38.9161 381.25 38.992 381.469 39.1605C382.207 39.6903 382.834 40.2065 383.35 40.7092C383.864 41.1963 384.315 41.6734 384.702 42.1406C384.88 42.3756 384.989 42.711 385.028 43.1467L385.211 45.1776C385.302 46.1891 385.698 47.283 386.4 48.4592C387.102 49.6355 388.22 50.8998 389.753 52.2522L392.232 54.4295L394.235 51.849C395.374 50.3817 396.215 49.004 396.758 47.7158C397.316 46.4262 397.545 45.2211 397.445 44.1006L397.26 42.0464C397.219 41.5951 397.266 41.2458 397.401 40.9983C397.979 39.9266 398.831 38.7596 399.957 37.4974C400.173 37.2897 400.36 37.1788 400.515 37.1648C400.702 37.148 400.905 37.2239 401.124 37.3925C401.831 37.925 402.434 38.4433 402.935 38.9474C403.449 39.4345 403.892 39.9124 404.264 40.381C404.442 40.616 404.55 40.9513 404.589 41.3871L404.774 43.4413C404.928 45.1531 404.702 46.8285 404.097 48.4675C403.49 50.0909 402.381 51.9791 400.771 54.132L396.296 60.1117L397.256 70.7795Z" fill="#684532"/>
</g>
<g filter="url(#filter1_d_357_261)">
<rect x="267.014" y="21.4091" width="80" height="80" rx="10" transform="rotate(0.019429 267.014 21.4091)" fill="white"/>
<path d="M298.697 80.4198C297.087 80.4193 295.861 80.2157 295.017 79.8092C294.189 79.4027 293.627 78.7384 293.33 77.8164C293.05 76.8945 292.909 75.6678 292.91 74.1366L292.917 53.0897C292.918 51.5272 293.059 50.2929 293.34 49.3867C293.637 48.465 294.2 47.8089 295.028 47.4186C295.872 47.0126 297.099 46.8099 298.708 46.8104L305.903 46.8129C309.263 46.814 312.2 47.315 314.715 48.3159C317.246 49.3167 319.215 51.0127 320.62 53.4038C322.025 55.7793 322.727 59.0451 322.726 63.2014C322.725 67.3576 322.02 70.7012 320.613 73.2319C319.206 75.7471 317.237 77.5745 314.705 78.7143C312.189 79.8541 309.251 80.4234 305.892 80.4222L298.697 80.4198ZM303.159 52.976C302.128 52.9757 301.425 53.1942 301.05 53.6315C300.674 54.0689 300.487 54.8188 300.486 55.8813L300.481 71.3501C300.481 72.397 300.668 73.147 301.043 73.6003C301.418 74.0535 302.121 74.2803 303.152 74.2807L304.23 74.2811C307.574 74.2822 310.16 73.4628 311.989 71.8227C313.833 70.1827 314.756 67.3393 314.757 63.2924C314.758 60.5893 314.337 58.4954 313.494 57.0108C312.666 55.5105 311.463 54.4632 309.885 53.8689C308.308 53.2746 306.409 52.9771 304.19 52.9764L303.159 52.976Z" fill="#684532"/>
</g>
<g filter="url(#filter2_d_357_261)">
<rect x="182.788" y="11.6498" width="80" height="80" rx="10" transform="rotate(1.11811 182.788 11.6498)" fill="white"/>
<path d="M227.31 39.7661C228.146 40.9858 228.991 42.5572 229.844 44.4805C230.713 46.3885 231.547 48.4833 232.347 50.7649C233.146 53.0466 233.859 55.3812 234.484 57.7689C235.125 60.1412 235.643 62.4252 236.038 64.6208C236.433 66.8165 236.645 68.7663 236.674 70.4703C236.673 71.2986 236.29 71.7052 235.525 71.6903L229.854 71.5796C229.12 71.5653 228.744 71.1907 228.727 70.4559C228.699 68.705 228.459 66.5749 228.008 64.0656L215.214 63.8159C214.729 66.2444 214.437 68.3641 214.34 70.175C214.294 70.9087 213.888 71.268 213.123 71.2531L207.569 71.1447C207.288 71.1392 207.055 71.0565 206.871 70.8966C206.687 70.7211 206.607 70.4304 206.63 70.0246C206.742 68.2921 207.03 66.3286 207.495 64.1341C207.976 61.9243 208.583 59.6388 209.317 57.2777C210.051 54.9166 210.861 52.6116 211.749 50.3629C212.637 48.0986 213.553 46.0301 214.496 44.1575C215.439 42.2849 216.352 40.7556 217.234 39.5694C217.7 38.9378 218.185 38.4784 218.691 38.1914C219.212 37.9046 219.848 37.7685 220.598 37.7832L223.972 37.849C224.738 37.864 225.375 38.0249 225.885 38.3318C226.395 38.6386 226.87 39.1168 227.31 39.7661ZM221.906 45.2164C220.843 46.8366 219.86 48.7787 218.956 51.0427C218.052 53.3068 217.264 55.6356 216.593 58.0292L226.763 58.2277C226.153 55.8091 225.441 53.451 224.627 51.1534C223.812 48.8558 222.952 46.8777 222.047 45.2191L221.906 45.2164Z" fill="#684532"/>
</g>
<g filter="url(#filter3_d_357_261)">
<rect x="96.4619" y="21.9684" width="80" height="80" rx="10" transform="rotate(-0.776399 96.4619 21.9684)" fill="white"/>
<path d="M133.672 80.4695C132.063 80.4914 130.834 80.3049 129.984 79.9101C129.151 79.5151 128.579 78.8587 128.27 77.9409C127.976 77.023 127.819 75.7984 127.798 74.2673L127.513 53.2224C127.492 51.66 127.616 50.4238 127.885 49.5139C128.169 48.5881 128.723 47.9242 129.546 47.5224C130.384 47.1048 131.607 46.8851 133.217 46.8633L144.231 46.714C144.606 46.7089 144.888 46.7676 145.078 46.89C145.488 47.1658 145.914 47.496 146.357 47.8806C146.799 48.2653 147.267 48.7277 147.758 49.268C147.917 49.469 147.998 49.632 147.999 49.757C148.001 49.8976 147.925 50.0549 147.771 50.2288C147.295 50.7822 146.84 51.2572 146.408 51.6537C145.976 52.0502 145.558 52.3918 145.156 52.6786C144.939 52.8065 144.659 52.8728 144.315 52.8775L137.753 52.9664C136.722 52.9804 136.022 53.2086 135.653 53.6512C135.284 54.0937 135.106 54.8462 135.121 55.9086L135.182 60.4551L143.596 60.341C143.971 60.336 144.253 60.3946 144.442 60.5171C144.852 60.7928 145.278 61.123 145.721 61.5077C146.164 61.8923 146.631 62.3548 147.123 62.895C147.282 63.096 147.362 63.259 147.364 63.384C147.366 63.5246 147.29 63.6819 147.136 63.8559C146.659 64.4093 146.204 64.8842 145.772 65.2808C145.34 65.6773 144.923 66.0189 144.52 66.3056C144.303 66.4336 144.023 66.4999 143.679 66.5045L135.266 66.6186L135.33 71.3525C135.344 72.3993 135.542 73.1467 135.923 73.5947C136.304 74.0427 137.01 74.2597 138.041 74.2457L145.377 74.1463C145.752 74.1412 146.034 74.1999 146.223 74.3224C146.633 74.5981 147.059 74.9283 147.502 75.3129C147.945 75.6976 148.412 76.16 148.904 76.7003C149.063 76.9013 149.143 77.0643 149.145 77.1893C149.147 77.3299 149.071 77.4872 148.917 77.6612C148.44 78.2145 147.985 78.6895 147.553 79.086C147.121 79.4825 146.704 79.8242 146.301 80.1109C146.084 80.2388 145.804 80.3051 145.46 80.3098L133.672 80.4695Z" fill="#684532"/>
</g>
<g filter="url(#filter4_d_357_261)">
<rect x="10" y="13.0221" width="80" height="80" rx="10" transform="rotate(-1.14554 10 13.0221)" fill="white"/>
<path d="M46.8116 70.0554C46.821 70.524 46.726 70.8541 46.5267 71.0456C46.3427 71.2212 46.0163 71.3137 45.5477 71.3231L40.5565 71.4229C40.0878 71.4323 39.7502 71.353 39.5437 71.1853C39.3525 71.0016 39.2522 70.6754 39.2428 70.2067L38.7213 44.126C38.6901 42.5638 38.806 41.3269 39.0691 40.4152C39.3475 39.4875 39.8967 38.8202 40.7169 38.4131C41.5523 37.99 42.7746 37.7624 44.3837 37.7303L50.5933 37.6061C58.748 37.443 62.8879 40.4937 63.0132 46.7581C63.0513 48.6639 62.7623 50.2325 62.1461 51.4638C61.53 52.6951 60.7523 53.664 59.8132 54.3704C58.8737 55.0612 57.9465 55.5877 57.0317 55.9498L57.034 56.067C58.0944 56.7334 59.1045 57.6196 60.0643 58.7257C61.0395 59.8158 61.9229 61.0093 62.7146 62.3062C63.506 63.5875 64.1801 64.8633 64.7368 66.1337C65.2933 67.3885 65.683 68.5137 65.9061 69.5095C66.0092 69.9762 66.0162 70.3277 65.9272 70.5639C65.8538 70.7998 65.5905 70.9223 65.1375 70.9314L59.7245 71.0396C59.3183 71.0477 58.9573 70.969 58.6415 70.8034C58.3412 70.6375 58.0599 70.2446 57.7974 69.6247C56.5505 66.6647 55.135 64.2628 53.5509 62.4191C51.9666 60.5598 50.4444 59.0743 48.9844 57.9626C48.048 57.2468 47.5767 56.7327 47.5704 56.4203C47.5654 56.1703 47.707 55.8237 47.995 55.3803C48.1772 55.111 48.4442 54.7853 48.796 54.4032C49.1478 54.0211 49.4546 53.7336 49.7164 53.5409C49.9783 53.3481 50.1868 53.2267 50.3421 53.1767C50.513 53.1264 50.7703 53.0978 51.114 53.091C52.27 53.0678 53.2228 52.6503 53.9723 51.8383C54.7375 51.0259 55.1029 49.7606 55.0685 48.0421C55.036 46.4175 54.5983 45.2385 53.7553 44.5052C52.9277 43.756 51.7953 43.3957 50.3581 43.4245L48.9521 43.4526C47.921 43.4732 47.2224 43.7059 46.8563 44.1509C46.4901 44.5958 46.3176 45.3494 46.3389 46.4117L46.8116 70.0554Z" fill="#684532"/>
</g>
<defs>
<filter id="filter0_d_357_261" x="339.432" y="0.85498" width="105.136" height="105.136" filterUnits="userSpaceOnUse" color-interpolation-filters="sRGB">
<feFlood flood-opacity="0" result="BackgroundImageFix"/>
<feColorMatrix in="SourceAlpha" type="matrix" values="0 0 0 0 0 0 0 0 0 0 0 0 0 0 0 0 0 0 127 0" result="hardAlpha"/>
<feOffset/>
<feGaussianBlur stdDeviation="5"/>
<feComposite in2="hardAlpha" operator="out"/>
<feColorMatrix type="matrix" values="0 0 0 0 0 0 0 0 0 0 0 0 0 0 0 0 0 0 0.5 0"/>
<feBlend mode="normal" in2="BackgroundImageFix" result="effect1_dropShadow_357_261"/>
<feBlend mode="normal" in="SourceGraphic" in2="effect1_dropShadow_357_261" result="shape"/>
</filter>
<filter id="filter1_d_357_261" x="256.99" y="11.4125" width="100.021" height="100.02" filterUnits="userSpaceOnUse" color-interpolation-filters="sRGB">
<feFlood flood-opacity="0" result="BackgroundImageFix"/>
<feColorMatrix in="SourceAlpha" type="matrix" values="0 0 0 0 0 0 0 0 0 0 0 0 0 0 0 0 0 0 127 0" result="hardAlpha"/>
<feOffset/>
<feGaussianBlur stdDeviation="5"/>
<feComposite in2="hardAlpha" operator="out"/>
<feColorMatrix type="matrix" values="0 0 0 0 0 0 0 0 0 0 0 0 0 0 0 0 0 0 0.5 0"/>
<feBlend mode="normal" in2="BackgroundImageFix" result="effect1_dropShadow_357_261"/>
<feBlend mode="normal" in="SourceGraphic" in2="effect1_dropShadow_357_261" result="shape"/>
</filter>
<filter id="filter2_d_357_261" x="171.42" y="1.84302" width="101.159" height="101.159" filterUnits="userSpaceOnUse" color-interpolation-filters="sRGB">
<feFlood flood-opacity="0" result="BackgroundImageFix"/>
<feColorMatrix in="SourceAlpha" type="matrix" values="0 0 0 0 0 0 0 0 0 0 0 0 0 0 0 0 0 0 127 0" result="hardAlpha"/>
<feOffset/>
<feGaussianBlur stdDeviation="5"/>
<feComposite in2="hardAlpha" operator="out"/>
<feColorMatrix type="matrix" values="0 0 0 0 0 0 0 0 0 0 0 0 0 0 0 0 0 0 0.5 0"/>
<feBlend mode="normal" in2="BackgroundImageFix" result="effect1_dropShadow_357_261"/>
<feBlend mode="normal" in="SourceGraphic" in2="effect1_dropShadow_357_261" result="shape"/>
</filter>
<filter id="filter3_d_357_261" x="86.5967" y="11.0189" width="100.807" height="100.807" filterUnits="userSpaceOnUse" color-interpolation-filters="sRGB">
<feFlood flood-opacity="0" result="BackgroundImageFix"/>
<feColorMatrix in="SourceAlpha" type="matrix" values="0 0 0 0 0 0 0 0 0 0 0 0 0 0 0 0 0 0 127 0" result="hardAlpha"/>
<feOffset/>
<feGaussianBlur stdDeviation="5"/>
<feComposite in2="hardAlpha" operator="out"/>
<feColorMatrix type="matrix" values="0 0 0 0 0 0 0 0 0 0 0 0 0 0 0 0 0 0 0.5 0"/>
<feBlend mode="normal" in2="BackgroundImageFix" result="effect1_dropShadow_357_261"/>
<feBlend mode="normal" in="SourceGraphic" in2="effect1_dropShadow_357_261" result="shape"/>
</filter>
<filter id="filter4_d_357_261" x="0.197754" y="1.62061" width="101.188" height="101.188" filterUnits="userSpaceOnUse" color-interpolation-filters="sRGB">
<feFlood flood-opacity="0" result="BackgroundImageFix"/>
<feColorMatrix in="SourceAlpha" type="matrix" values="0 0 0 0 0 0 0 0 0 0 0 0 0 0 0 0 0 0 127 0" result="hardAlpha"/>
<feOffset/>
<feGaussianBlur stdDeviation="5"/>
<feComposite in2="hardAlpha" operator="out"/>
<feColorMatrix type="matrix" values="0 0 0 0 0 0 0 0 0 0 0 0 0 0 0 0 0 0 0.5 0"/>
<feBlend mode="normal" in2="BackgroundImageFix" result="effect1_dropShadow_357_261"/>
<feBlend mode="normal" in="SourceGraphic" in2="effect1_dropShadow_357_261" result="shape"/>
</filter>
</defs>
</svg>
